<mxfile host="www.draw.io" modified="2024-03-28T05:47:15.791Z" agent="Mozilla/5.0 (Windows NT 10.0; Win64; x64) AppleWebKit/537.36 (KHTML, like Gecko) Chrome/123.0.0.0 Safari/537.36" version="24.2.0" etag="xXRFfWMLuVqdne9FCX9B" type="device">
  <diagram id="AvwhQlU069jGUK_7Wwo3" name="Page-1">
    <mxGraphModel dx="1513" dy="753" grid="1" gridSize="10" guides="1" tooltips="1" connect="1" arrows="1" fold="1" page="1" pageScale="1" pageWidth="827" pageHeight="1169" math="0" shadow="0">
      <root>
        <mxCell id="0" />
        <mxCell id="1" parent="0" />
        <mxCell id="OKBfxnP3OJGm2N5aAB1n-4" value="" style="edgeStyle=orthogonalEdgeStyle;rounded=0;orthogonalLoop=1;jettySize=auto;html=1;" edge="1" parent="1" source="OKBfxnP3OJGm2N5aAB1n-1" target="OKBfxnP3OJGm2N5aAB1n-3">
          <mxGeometry relative="1" as="geometry" />
        </mxCell>
        <mxCell id="OKBfxnP3OJGm2N5aAB1n-1" value="" style="shape=image;verticalLabelPosition=bottom;labelBackgroundColor=default;verticalAlign=top;aspect=fixed;imageAspect=0;image=data:image/png,iVBORw0KGgoAAAANSUhEUgAAAJgAAADaCAYAAABaUotGAAAAAXNSR0IArs4c6QAAAARnQU1BAACxjwv8YQUAAAAJcEhZcwAADsMAAA7DAcdvqGQAAP61SURBVHhe7P3Zr21bnucHjb1X36/dnva2EZFNZFabVBm7MMKWeQMeKAnJDzwgHvgD+AfgBfEKogoj21XIJVMWhWR4sJDAEkK2KMqZVVmZGRmRETcibn+63ay+X2svPp/fWHOfc+/d99GRD9Q8Z+611mzGHOP3+45fN35jzKM9W/pX27/a/mvajg+f/2r7V9t/LdtvFmD/Slb+/932G1eRt9eDdP3mOpVKx6lSLlMBDh72qMlR3vfspUopHR17IKW7u7t0t7u7/34UF/HfQ3w9OsrX2Zz93T7d+cn5Y+6Pa3mQlxyVjlKpfJyOeb4Psczdbhe/y9VSlGXBPtd733aKY67dp81ym9bLdbrbUoe4Jpdle/x9R4Wsg+3Kt1rG4ZvXlo+ifjvraJvYvaRcLqVypRzP3FEnq1Gm/cdHx2mz3qbVYpM22y3VOErVWjnV6pV49p467ba7eNgR10Z7+C09rFPQSLrlKuTmuR2+WDW/ZvJleqw3tJFnrn2e5UAv9wrPbTTr1KuStpxbQYfNapN2m8wPyyjRDj89X6vVfvMA+5M//JP0h//lH6Z6rZKa1XpKEOhIkEgDdyp3VwIcMKLebx4Ycpe2NHiz2gbxN+tNKh8BBq/3fghdKpXjXg9u11wDkeBhKkNkmQQ7uY69CoMaFRpfjeNrALPcrFK5Vkptn+ezQYfgrrDfgyOV02Zxl8bX8zS+mqYt93FlPDcYTpmVehkK5w6w2+wCkNZRpt1RmWPKa3RqHNrDgF3aAmzB7fOq1KdWrQRI18sN5R6lVrtBHUtpdD1J49E8bSm33Cin3lkzdXuNVKLd29UureYbAE9d7gAjv5eLNeBLqQGNExi5oy5UIEAfnc328GHL3DPZqBPXLebrNJou0nS2TLPVOh0BmHqzlmrNUmr1G+nksp/qrQbXrdJkOEvLyYJ9zXP20DpxbSPaMxqN0/nl2W8eYJ/8+V+kn/3Ln2SAIAXcS3sAIC/s2ZIfPh3DtHq3ke5An4Da04Ad+5zG20NLxyV4mSVIqUTvRxr6eXzsdUcBMiVFEJLP/R6G3u3S+m4LiBIAq0CQUhzzGXcc63SbAIt6QKBjyitzoTVSEPAUpNddWkw2aT29S8f7UlrABKWK91TrpdRs1wFQM+rvue0cxgqkNc+lg9DM1D1rp3KTulaQeIIfQLltkQK2Tem4BsgVuGUdvXc0mNAByjC3B7haAJlOt99wzxag03U2KTrKdgFYN7T1ThjtU4X9mF7nXsBJOkOVAIHfA3DQZ7FYpcFwmkaTORLMTksdaX8F0Fcb1eg8xzUkHJ3UfUfnKR9zrlRLG0A5H0+p8zGCo5lW2026urpKZ5cnfwkA+5kA+zN6Gw1T4vMJ3UN62aM3AOEI4lfoNZVmlWOoI0561Wa5S2N7DQ0CD5kAqBXVi705f8+q7IjeLPmUfkoRr1VyKMmkaSZ4/ruFBDtAVq5wPRLMwlVXFRishFGaCPDljLrAzFoFNUF9tivAD4D2xwCJ+2pNpDIglQFxDobfIXWVMqq5Y9p18qibjmoAEklUQpoes5dg5n57HJJoOd2k8Q1t5Fk7Op+dyc7RPW+ni6c97qMdgMvy7ESQJ9T1Aimy4zePpiqqK8qlXSWktBgWcPGP5t1xLEtPfnPvnM5wC0BCYh0hRcMcgDbQXdDUGjU6UA0Tgk6BpJ9t5nTAUup1u6mOFpojXecA847OIJ1V/4PhKJ097v0lAOynP0s/RYKhUFKi11JlepgN34fO39GoMvZFiV5zRONSKdtHdv8FRB/eTNJsugw1pHQqQ6waNkG9jMoDZFXtNo7JtCy9oDiEVB3aW4/ouRJ/pzRT7QKcOxjic/dwZw/Q9kjBEgCr1quUQ/0oV9WjhJGAvW4nmDafLKMM76Uzp1qrmjqokXqbHzxrDcBWU6WMAAOcaZP6Fz06DvUDKKWadl/uCBsAuZohHWeoqXEGmgA6BtzNdi3KbPZA5lEGq/URgHbQAISqkN+hEWDwMW0UVKEWpQNPsaPuoIcm2ZIyJM0aG2o8nqU59TuuoKZrjVDvmiR7QKiqzfZpOTVR741+K91V9qjCKuCq0ba7NKPTbxfQAYDRuwKc4/GYztSjZr/hTTUYQsSaQwK36FVBCA1KCI/quqNxgqFSRTxrL9FIr7MXypgK0qKE2lBQCcyFqgXbZc+BABflB9AoK5wFnw1l7eU7bTmYvoepR0iAY6RShfuq/kO8lPf0Yhi2mwMO9v2Sum1gI3r0aJftntl4mabjediFaFEIqUGOSo32yVg7T26h7VIV2vYlncM6qMqOlCB0sg3MWdF5BOKWNmgzeW8DydHrd0KSWu5yukrT4RKbh/qvoAWmgOBSlVeU+hrixY4Ujlbz3yqtkYQzyp7MKAN1SJPRFKo97KtuK3XOewDiJHVPO6nVqYc0rrewVfmsotJrLUyWTjU1epXUO2+kVtfORzsQoda1JKDlIXxDHqc6dkMdwP7GJdjP/+yn6Wd//JNQMxL32NZDaDCH9KCCGPWCbEdPPUYcCyL1v/bXCNUxGU/iuhIenwa+TNnBcNVt9aicWq0mdgA9PaAIE/mmhLyDoRsByD1S3EZ7LoDoJxwpY28gEqmLlmA2zPVGBY7fdRzcVMfL5SrUl15Vhd5dYq+g9sr4LSUkYIAZLu60kah72H8bpBjPryMJlEb1Nh0BIGygw0oJgDRQTQpAgaPBrHqaLxfRFlAWz1Q6hTkADSpI7x312m2ynVrW5LC9Ph9ptuP7hmcqsRbYsqr/egtJhKEuBXy213g8vFKauMKA3+22qUr5SlgluiK7imapIqWVZnvas5qu02pMx1hwnvvWOBd76mJn03Y8e/qXYOT//M9+ln72L36SqmWYCaqOIYSNCnajDrRT3DVCt3YJ7KIGBBFgw9spjFhiH9EEGr+FgBulzMG4VcJUkFhVgBLhCbpWwIfnGF5YYbsJLglZZlcqHkE8JaUeno6Cn8dIANWKqm8jyAQkZejBapcoTbZITRncwrDXBtRgNwSimt1x7k7bSQmjrUkdAqAc05i2y7fwAguA2Q5VTQACcHmtxrUgsNwJ9pF1jnK4xjpX6HxKOB2V+Qz7B1VHi5SjVPQO1Q1QrSfgWvN7xX131E9w905xFKi73uYaKW5jEYLRZjtUeKT8bqCaq0gwunBahX0GyNAodrANAFKiLgHYDmdGW26JLafQKKNB7vi8eHb+mwfYL/4MIx+AVXDvs0jlj+IL4umia+Afa5dIeI0EfmsL2aAZLnFIIO0k7tB+CEMa3AQjAarM1e4SZDLAWJu9yXsFmUTMasSY0zEgQhVrc/Fd8Cg9KzxPqRTYZFdi7rEB7+NWVoFjZQx0VZP19qJgDuWF8WybuC4r5wwwj6+1b1QjtlOngrZ47zHSN2xNfm7xwjQNwuWHuZPRDNsStc15n5/rKbOpI+Uu6XR64hGO4X5p4DNEsg4McKey2KoAttVrAk4l8AKbEi94TQej/uU6dMYurKKOj0WbdAGQapDgBRJSb1TPVseBKobUNUSxHK2ww+Y4YGPUI2UcV+HJNl0+/8sA2J/+RfqpEkyCQRy9HoEWlaChIT1CLPMbgioldjTMGE3YT4JlhlHJp669hvCe8/Ya/61QXYvlMtW4r99th7o0ZjPCEK0gNTXu9+gupVUNI1UpJ1hk8mq9gl8GCDGoYYZqaA9xrVfYjAKJi2Vk2Byoca+37lLR8IBSw01GCwSu4nnUE6aHLUbHsnE5mGnPQFK06qndMUSSg6rz2YJrUZEcVxLPJjMkigCkMlHXKPztJx+e04iXTh4q00nKagm8290xdaQT6QlWoIfqfYHU2yKp9jwnQiy9KuDDBuU+62kdbgfDAFm310l1j9NSuMN5yrQzawLQhOVkk158eZ1uXg9SE9OnilheY+tdPvlLANhf/MufpT//5z9JDQx3Hm77DxKMTWYLMO0gOzN7WQPXpqFu1PE3r4cRY4oO6g0Aw3+CR6moatDWqQLObqsVKmQ6nUUAUbWzgTIyu4p73WwYyDzYYxB1CnBXqwXqu5Ta7WZqGbUGqMbFuIBH8QnQLNPr94CLmiJjlF6Z38FdfuceoyRjR334vQSoPacQNNAqKFT/jTZqhzZvqDdVw4FYcA3SAqYaIlmjnpS2Mh+WAkI8TFUlvzTwlTiqc6WWkjJ7fBiDYpk6a+ALZqocHSvoyXdNkSqGfB0DvooEM54noPyn6ry5GdK6u9Tr0VHr2My0TdV/FFKX/xSyxyxZoUVuXo+4Z5c69U44T4NXg9Shg//GAfazP/5p+vM//FMqjP1A79Egzcw4bADDRspUZUMZVSHBtBeuXt6mq1cjeg43QC3VWRVPRfXm3qgjdQDadrNC9d6hXSEm5c/nC2yQXao3ILoM9plSG6ZoVxnVl7lLGLlEiimoWqjXNiqqYzQ9DH+IK2s4mYdDBFg+qtbO9UEqHkYItpQnsMKz5ALVloAyvrYJNWvcDVVN2yxfcDj0coTI3MEggeKzNKaVutKgg7ens7BAumjQh4Tl2aF+KVPpb+xQZ+O4Rt1EoNISGyk65R3SOWJ1eInsR+BVIadGPAjn2ATOFsk0QOUJ3G63mZp0Np+zXCy4wg6t3anERlViP86xx+rQrF7BXp5t0uDFmO8tRcBvdguChdeDuIURVrbAlz0HfsEMDGI9KUSYqnBwNU1ff3adXn89wp1XNWJ/qSJhoL3xSHuKBisF7PHaV2FTURbuKD3cIRgkET+1qbRldCi26Octam6FVFtS6BqJFOft5YBhtloCOIDCfaFSdelRq6oJwyjGykqoeqPsDSRG+wTjGQaqjmJMkn8BIgxyme8x7QGKQjrpjFB3nr9DIhmQPaKumg0Gi8tKEtAjTUrYatpHRbkCVZBLrkAGu2q2dQoQ+qi5Nh23QadDKmHaRT0sybo6VNU6Awg9bTLrZscQzFxD2WFn8lzbp9e9ApiGf3KnhGfQLsZdoXWYM5DyGDo2cVha7PUm3nyHsrt6nPCFKv5GNysqMCJIqHi3kvddxwv4oMcba1rSEwxNvHkxQARP+G1wkGtFigQDOGGbAKYwtDmx3WJHARgj8DHOx3UVpRxc9feWcxtA7q6WVSVrBKuOswoEe0rNGm4896y5RzURMTk8TKWG9ZURQWylKO67QVYj8zuMEg1iwxGhUpAadqrwVNl1AhzOcszTBusVxrilxjbt0vuSucVum7THFEeqStsGvqCbHdN/tIHTenvB0BplV7J0dIA6wjCAzPMdANg5a3Adx0pKV6njrjTmSTxfu1Y7d4kdu5jTwTAtVgBMftkePWafrW0Yz+cYj6Dz2amtC8+GDg3suUbfzvgb3hzj0rB0DC/MKGsFwaWU9oo63gbqoUyGqzS5WcT4n16co/h7mGvc5gjVI2iyB5fvV91pa6wgTrjpEMXjAkKjPAAGw/UcVcExFghABZBQVBI4Bqm0C7Jr28RZ6uUV3BcosL481n4RLEba2Pu3GM9b1BwoDo9LCW3cypiSDNGI9z5vpKkcV1oLKna+q/Y00mM8Eg857B1JZDlIdKPrsjUkNbv1ddMhcogrOxx6f7luBXD0Vlv9SuqeV1OtjWqz/octl+DmtdCIOpi5MdXrBmx7CrNT2w6b6siCu3QwIKw2EmDuUsm/1q2BBGuf/CUATDe4gv21oXLGVvJYGyfY7fVrVMVsusZTRDybsUCjBZa2jRkHprDo2Sn5dPG1K2yYIJJZDt0sIghqoRCNbmkQUkkiVEIFwmgNaG2GEh7r7pg6wKAy9TJTQFUwmU3SZDFPGyqXycZ1oEIbSK4IPj9VWRJaFbcPYFE3d+5Q3akVvVcOyHiZYwezXbZX6ZU7QpYGdjLTX5RsSmYdk8jq4FlKTDtECcMpdwQOckrg2gF2B4820MVmWMTgcEgw1FYJ9XVnW7mIJrLZPbw2X+8h6bagcy+WmACYAw2cHTNNQr1zhUNnmh/WPTsbPBM+bO/gJW5l/KYupar0lA6/4U1byV0CUzMqSsUzfSMQOadxsylqDMPR2FfkTUkGiKiYN3XEIKEpMtpFecdSpSm63yucAdMZHC66AwzLjQb+KpinUSrDBKu5TRIujx+206Nn5+nJexfp5KwX3tdkPknT+SyMWLMLjF9FVgcHSrhbMtv4kzZiDNgjRrQZj2iTbVGaxoAybVLVyUrvUXW5q7o0F0LFQIocGKYzxTXUTVXM75yeBKg9zzk7yNayaZtZII6B1huYCp4XOFDCOmh7GjANwx6j33SikDye50OVXWzWN0IsAHu1yp2ziTHV73fYW6mFp6ttm3FL56A6DuYL4NyxtYu30CgDTIcjd/roWr/ZTZ2+nK2CIHpZW5gnkcOLQgpovNsIB5U1cml6SJ+wgQBH2BYRdQdk7EbuHTrxOgFUDC0ZrDWnzNK2oRJ3kaSnBM09DrAgamoNAIaX1GrjNXaxT3TXubfeaqYGXuQxjNYOM7wRdpuA4DlVjgvm+XROmwCa0hjpKVNjF5lWX8YjbZUyhgVUp6oQDf8KzzYtSSm0p372NMuO7BDAlKWZ9pt2pI4K91OmYPR35JDRHg9nncvpiE8ptakzu2VIrwJcxWYHvz/Cd1XzarEK+kdiIaDyfASzHYZCgknmMP51SqCFQ2LHqkq+h0etgxB7fq7l/sbDFH/yz3+a/uj//S9SEwKZdCjQ9JgcNJ459OCwDzpQEbza0Zsg+pZGHB08JyuuJKhjiJtFobiW6vZ2GScRJJ0SRelir5JxdmqDj47tOTg+nc85tk+dTjvAu1wvUp1ea17V3LQcn0OZtbIBRsBJ2fUq4IVZWUXcUd85ZXMcRgcgQh+qlq2RZFUdAhoBBbi/oeooW3GkXbXG5gn1SuWpOTvn2EMle5z7S3QupYKyQQDa0ULBWZ6X892Rjz20dAxXaaekK+Ottnp1Og4XYdhbtJcrPQWuv7SxNOTVAErn4ngEtwGUOt9UJhMiBZAhlzw8pkpFanFN3MI9JhcIftvXbX5PPtj81zdprxi3MpyWmBH1lXDRQxCJEEbEWpC2go0NdEMsh2zsNbUuUuGiDR29FjsA3fNHf/bT9Kd/8Unq1hupQYX1iLg1BljNUDDAR58LMbvlYUeowwi+QjCZKDH15MKjQz0GUyCAHlxkXQTzASl1kDk2zroowleArYadxQ3YeDgPjmtqy1DGfD5FIjgArOTgg2ss24CtosGRgSbgVIWZJqwhLqEdKTDYaaxKOgkQN2nnr7UxFew7h620+cJJANARKpG5SBs95juNZY+rA9mCpqhcbTEdGxmag6lZkmCK3TM1P9FBbS0xziOBlbwOszU6dOQ2kr/KldIaAtK02OyUtv2O5ziyYHuq2F0BY/guHcJORHrLD58nz4P+SDkDrsYPvS+6Exfo1UtTt3b9e/LBbv/Tn6SdA7FGdn1YPMTS2QG0gcANBLbXRb42xNIzMw1mdjNLW7w+kdx63EkXP7pI24o9FBW3TOmPvvo8/en116kPwE667QCYRHTgdD7GhoLYDg3ZSO0u4zZlVJ4ByQADTclwzj3QmJFxIkyukHCSO3LJAyT8UuJwXFE/mc5gnMFJrlEda5jTNigc3mfEtII49F7qJOEaEFJVoHrtdAzkOhxl1qlB0X0EjAWihrq2kiDTRgmVBAOtizEjVU4dW0iJFtJDgAkQqW916bSm+AiwGG9EeoXW3EoLGMczcoiHZ8hsbwSQ0cHY5aIg8F8gDhAcQzfTbMoNAcfl0DoG9QGg3+VbjC6AuGwPqqL1oCUez5fSlquAUYWqGum8DmtpA2u6GFBWynm/XnPYmdjE2mXNSudhgN38/X+Wdri1qcFNZXdupCI5ZkV9RDYEpdQo1APGl0ybWQyXaTMASWuY0mum7vv9dFenyoCyurhL/58XX6V/dv1V6gCYp4/Og4FmQqznm7TAc1wgAR3a0IBtYBN1ThupTi80dUS7LHoV55VINkqDvwLAMqd4DuCUqRH7Uo0gPfT47PmZQKYz6wyYfYDaomsbWjCsIWMit5+izHpYL5cR0a/CkCb2knlSAiw8XzqMFyodIyOVDijwlkhGY0lKOjuIBFc9GqMqVbjHPnpQ835XAwQjoacD/wLG8VU7sB12Dx0NSsvYwJQMiEdnKePd4U3a+gAbJw/fj01oBGSmIJnl4WcJ9Wl+VwmJFnXTM1dLqFqpkjIkNqWp6v7w28cvUaPSqU1Hkx+GbQJc8J4mZYBRiPFNNVyjigD5X7DlIt5uo//8s2Cc7m0MJzQhVpPK13goe6pDjAY7wEnsuyoSoIwxWKUWDXoIgKgJiib2S437YFpE7uHh58NR+tXtLRXYhA2msSyjZKrMj9QV1c3xNnXOcmCwgYhXSkWPlS/0PiWG9pUGZeHuh1EM82VgDYlhOrKj6RrtZj0YEHW4KHh0MPo77VaAxgwGNwml5LIcK+WgvPVs1OuowkNcKyQk7aciOQiqOqPuBoeRbNbJivqcGjRwvO8Yt93gavTHMLhze+K3X+M7gOWHNDDDVU9tSUcYDkZpOByjxlcRdlBKxvCQtFK68Em1c5l8CYNc8EGXSCiwM1DlyNe3WdS1MHVsj+W5BU69j8sDXHE0fuRvfgQPuNCOYcXjgRlcZfgcmRgUF0NwVWj9kAT7xf/8/5FOnvdS+RzDsgehulChyQmjAVIkhDY1pWToHJ6HCW1+mhJTouI1enTt2LQXo+hVJBg22Hyf/umbr9M/vfoiVWHC08t+6vVaETcSgAZXHZTWWxPQTz46x0AFKAYR7SlcY5fa747T6HqWXr94w/ULelMltZp5vMzQgzaImZmmoBixNrxhM91RCgAQJtolqbuTNzbY6qbzyKgcuUb9K01ooVkEbcrVBpMzAlFJaMqyEkBG6NZL0DuBx9Zs08MBlgHOCh0OMkQ9lKgCUhUneORYpGRDTZkuDWJanPlVSK795ihmE/3ys8+wrzBHYKg2n53CgXpz6hwT5Mqgc0gg430WxkaNw4EqI7lUfV5wxx5xRKRbyTgVdbJeJQSBHTIGwNEuocK5N0AUuDXbBJLRfjGkaZIBdlDnfDejxbQjpZy2Wa/7PUb+//3v/uP0W7/9OPWew/wLDNNTGNSG4FRAVxly8tDcCPm0wL6ZLRbhiawcuwNsdZrXLsMYkwB56NEKOwqA/cv5TfrDycu0Xy3TxVk7dfFwnDNhtsRqvqViqsZ66jxpwSQaDHF4SqjkvUIGcM2nu/TV52/S1ZsRYhvbCUI0EfUOTDdapp00Uu+ilWrYkeWGTEaFAVrFvYPP/A2p526P3i32ABXCUc8AoPEgJMcWFSVTj7hos9WFN9NTguo0mP2A57Wi5wAYe68A753QprNW2K88IRgm0Iq8pEqoeWwppQnPCWmkJDqkIoWEoY2V4xre7Cp99uXL9MWL12kLvzUnHl+ep7P+CR40NIV1qqqww2yTNpimCkzRGLde1r8siAUZoBBk2ribHXXHS1eaqvL0NLXVohNAIu1Gs3xjvFXbljJWjibQidbwzmwYHS2f5bkICh80lQPigvz8/PJhgP17//rfS3/9956n5z84SfUnuPEXQL3PQ5BiCjAJJ6oDv9w9h8iT2TzSYuzdStQG7m4bmNVgRN15XCt0/yylf7m8Sv9i+RqPcp8eP+rTAzNwZLa2i5mqPTzPShcCgrwQmPY8CD8brdLt61GaDtbp9mrK89ahIvSw6hC/pveEpKigxi8enabzZyepfaqqVNLq8XKea90CYFRe28n89jXSM2YiUXcna5gdYAasqnyJPTZbzCPbwgrpbVYxYsyZ0vuyjkqSXr+Rnjw/Tf3zDnWmbNCiatfGkSiqUB0kDfktEkpHwfiZgDNkYbBT50gO8y1NJsv05eurdIN01ZO+gF6PLnp4Z3T66CA+mw6JfegUMqW8KjXCHpQp6SRcZjE7DPOo0kgbdjyZ8lgcFcyJKuCqQrf+WRdTAmnI8wx5gF5oqmABYGgmq2pH4yf0tL7HmB08XxBiKjgRxnCH9zx6/PhhG+z/++//C5C5RyqYlksPAalHENQMgwj2Bdd5aOa+VQ8PxjCAXo7HZUDNwWi6XhmZfLSBuauj9GI9Ta/2k9TE/jk769FQ0GUBktTndaupzp4AXtgk0fNy5RfTTXrzapxGgzkem8Mg3Mh/mRsTIyjF0QAbaD20t1r0Th2VIgsh6s+mWinors5Q1W1g9my6wNbBUdGm41ikqCBZFvTeFWDcIGmV2hJ6pWvPpwaDvd7EvbbZCjgnAkz/T+kamR2o0cWY8m+XkeJtPvv4ZhJp4DOYYufSww2TgnpqVfEYGF+P+ZCP6CxPAW+vT6eFJ2ZjVJruSO8+tO7iAYfxjg1MZzMoXcXAd4aWIYtw0pAwMc6KVAugSD94pTpUBlrPSMKk3SFJC7uNuuXIQXbk9GztmEr7iqMafHrtFOdugAAY387TbLxKZcTIgwD743/wZzDwLtVhTBPdnKPlWvx+wgyBpVhmBzZROX/rwck0rgqA1bERSjDvmMrErBwA9vlikF7uR6mPGnSChlIgmAyDtJ9Md9E+MAhq75dgEsWUkeloiX0isGAG9VF6KZkMlegsKKGKtGTHOS02vEztDT4je4NeR1XzppanzoJbCbmIia/2fo85yJuftaS84IUoom2WK5Pc+QnjeD7MbKGeYxY0NozxrXA8+HRK13K0TpNbwDtcxRxGbavb23G6HU1ilo8MNzJvFqvOiI6JuVu981Y6f9pmdza3oDHeJ/A4jwlQ7aAZjHNhCpQ8pyTCJHAv63DxqdqLITVo5AiCai9GFzjmSIbB5wb11pExn87hMOlRjIm67+jQ+TvtxUTQc1Yl8gTamrXL1deDdP0Sh+RmkQbXc3gUSaUPqMi//R+kdq2eLk7L6fJxNZ0+aqfGRSeVTtjpLfsWhDZ3DwCowwXDhqdo6GsgO8JOE1JdCQao7iDq0Qz7Y3yc/ovBL9NPa1fpB+89CiN1NjaVGcbbYNUcTHLsTLvF6erO9EEYRSbrEOlV2beQME7g2OJZzSILVUkhcWr0/hnSywDqDr3XapXTo6e99PTjs3Tx/CQbpmKELatHduNM7Pa46XARqsY0oAlq6fZ6GGpqjiqD5tHT7eV2sIgX0W6Do0a426iZroHltoFXaGJP56bCs1VtLbHzjPMtAP+ces5QNSs4JqNP+p30CEl1juPTMvYXnQL1CiCOwxi3H+byokO7+xFKxDpRQVmpqqVDK4F0iiKtfAEwkEAhlbxE8wyJ6kRm+0gEXO02opxP6el1Oa6mrD9sXGzH9kg+Rvt9NtplOJigXW7TZLrETKJD0ak++PhZVO87m/ozRPVxK61meGyvp2n5apL22D27q3na36zSfsijsakSZskxjKrAuUYZIjtI2mynDrtuaoVjVmAHkzZIK2lSxwMqIeE0kCsNY0QYjEgAn6vRaNDTJnitjVZqrRF0MrUJE88B+wk9++Ssg0rCoIbxOwAeTIcyDn3c3SHh6FnaUQvAY+64zlUOrFL2O9LLnjodzQJ09m4J6zDQCPCPqfOUMuZ0HO1Lh2NCgKsSAYHzA0+VMtYJA19nYw9DV3Sq5QhQjZ0YsaFTrENSDSazNMBeXVDPIzpxo9tP/YuzdPL4LHXOu5gHSKP2EZLJHTna5HlVKout5TPteEexUweViqrYiCwNinoZt6xoy2KboqkrTSRah46LTVtpA1olnceRdlXOmXAIvgNgjkZI/9AM0gYp5UM1ATaAFrbg/Nyl+XiThleTdPMKafVmmkY38zTEqzcLAz1EfaqUoznBnQ9JsP/wv/WPUhOAffD4USofgUgM8xN0fw+bqdJrIsWwa/A6EqL52BgZItuhJatZpHWox8NAQXKt38zS+moIQFfpk/4yffF4nVpc3wxppY1AGQEpwYGuBxkSS+NRe2S7VsrQXo6ZG6XaWev5Te/SELV5faOkmXCuFMFAvVk9H+2VS6Tvo6d9mNdIlZZ1tG4ijbpRxztU92S4TtdvqB+HVYMLOsNkvICoYBG1qoenUawnphR0qKQDHQRXh72J/Uf3SHdIhCVgnmOLOGRmXZUA0yVgncMAbDlort6OjmH7aqpWOk3/FJMBeprlelwR6EowJKVAgpSaIwWjol/El8Mfz8eBd7Y4bEeDqko17SbDKe5INiWaY7VKufh9UIVer1bSps2SEhqwayqMb+mEXGuSgVkaYdOC8jG0f430chzzTkMf73cwnKT3Pn70PQD7N/5B2EjvPTqnY2D7jG9Ss7RPJyb/d5up3GulUk+Q4W2gLvcYnHseGpsxB+tFqYrkhOTZgO4t9sbd1TJ99fwuvfxol4yB9k8pBw8v1Kz/JAa3KMK3uMPZxqM4dH6oJdRR2AcwfE9v2gG81eqYBq5CRE8Bhb3PoKXBUW2i3ikS9TKHPIz1hCqJp/BMnhcr5uCVGvKQiNpwxsgs5xiC1bATDU0oVaFWqqGyOgDi7KKLNAUg2HYawguAPrUXI7lCqgNMB4LHAGuKW3+HvVJuQDuNbwO3gKnhhAvMgKafSJkKYIrxSKUSvSkcnIMJEgADWcEsfseWm3G/Hc7Gt3z4wAg3PGQ7UHjPeu0CTLCtaK+TlwUbvwMN3KaTYCBXicbDgyeziXZVOdWxESs6GUjrJabK55+9TG9eDqBNMx7nyjwD+PHeR48fBtj/7b/3n6TTE4iIyFe9zbh4O56gAp0Fg9pzTK5TTyUIfNzBKKSn7SGgi4AovqkFjQEEMOxuTkMwau+waUrjffr6g0168dGGssphwB6XFU02gOupioRUfNmTYlyPRhfZodLVIZU77BiJJMiUQBs+l3g42ji63QYXIwMBzFeoW04l5jFIn4xY7uVZGuIbJeHsLl1fDUJiOSFjT32cG6nR7fhkEVvSS+wguZVaShqHg1y2SNttiue0nm6pH8VDM7vKerdJG3xBvfBas0k9BJhlwySkqYa6KspRhhhPpbgAyQFQNJnvGTaSJXLocvWjfL953F+Hn/ebtLJT5uv8bQH8ByihZPSGqasTfteHyctK6jyemoPIXufIgbSKTBbLhLZVvX1tTWzo0WCRPv/1KxwW8BEAM5EAgA2n6fmH3yPB/un/5D9LbXqps5YVr9MbXOnXt+mYh9dBdh3vJsbW2kowbA6YqPa9q2zR9RARpkSul+N52B+7GZUEFMercvrs2TS9+WidTrvt1ALER6UcqLP2ke4CxRS9fOHZivQCZGBD744HCTBTiJUUPkem3u2MlXkR/wuJSHl+aruYGxbAp2R3h3NUFwLVoOlwNI2ww1piAi4zOZUgcsprHU3oohY7SG5Yg226OLjvu5Ccxs6cxeQY6B1tsMOEZ9x0IoSmAHamw1fYSI4waAOF7SOoDoByK8YSBUs+Rp2Ds8Vhv9zD5nD47T3vbqYsHc7kSyxHtQ+dwiuk7YYfXHDF+kvTnP8Fv9QmdnQ6OXfQMfRCUZu0yUkiDrMZ3pkMl+nqapymeODVijOPUgxpjcbz9OyD7wm0/uH/9D/DuEQF4tWpGua307S5maUSFWhClRZiXQM3Zv2y39H71jCghBHZfdSP+NOdntJwnia4q2uMXT3B5eIoff50lBY/vkvvP7mMOI7BVCWLhM6gyGTLmRGwkhq7UMkRYIjZyxiPkeJCzztSVSrRIIJutcaJPSwYw32Spthkug11gDyyZJVUAjAcgiMcjm2aU+eVYDK1plmnThrM1Me6geKmU8KwvzZ0nM0MRwSRF0NElBczdmi3amMXLUF60tPLDWgFoOz1hgw0zLWd0aAHMNlm6ntgg3VXJcZ3eos0iNK4pMCem1+/AS43230oR8NcAniPh0Ib2AFR52voaRxO1e5kk1hqSm0DjTUNpI+wyOGoKC7qqwMUXqPju9aTjq1XHNoDJ8geZcrQDPpM6YDPP/weFfmf/91/nLaVRlrCAGdR32G01TfHCcilNgTsOoCrJyPhedAGRO9Rlb1neESP8YRQJdvFIg1eDdOrz0H39SItkRKvRqv05oNJav/tRvqtj55DcHoYtcyxrtxTZZhZo44vOiZmTzLTYg+gDH2UdohqwGRsaY9ENWUo7pF41EXRHhke3Bcbx4JGls0ewdP7Jgs0LuXavIYD6hLbD+0Rncu0FleYMc42hw7m9kf0k70mxQOAxxFHqjUNLeCwqFr06FTTgt2Op1qkvEiIVFrDea/x+fGfr+7+UD2LE4FGaz1oLeNvVnPeEC2K72Gf8TWu97QGPe2BJFn6CBbapUGf7a19zNZajvLcyuicQRcL0e4DREqrA088IX1i6MnNZ/M/oO99nNPjjMkqgFQtsISGTgV87+PvAdh/+m//gzSngCni0rHFMhVsY8TUIWob9dFir0G8Eo1zGtamdJcaT0/TB3/tg9Q8BQbHOSRx+9U4ff4X12nwepZusXO+MG71w2V69Hda6Xd/+H6s1me+fIBAKlETgWIv8HcHNaWxvJmianHz9UorGPwOBNsgFzwz5qbIt92qViWfjT9QLNqTCZF75r0U4AFhNPtMuJslGoSiEiuuc7KHIQEDlpIoVo7huClDxsJMvSljKphmbUC0MMbzfhiW4pjJhuK9CPBm0FD3QBXX8vwAlw3wg38BzDDIogdTZyWt1wsa/8SF/ud+zvHPTqCHK/gDSHQ8vcIoHyDZSVdzeIXN6TjrGjUm+JDX8WgD0qaIG4OrsdvB4C5lQF9NAe0zaK6N5tinD7fGMReAuko/Y26C65iyqu1yevLBxcMA+0/+zn+Y5ly4VP1w2pXyqtSiSkEuHFKDiXUM1wbfYXfaoUZ6P3ycPvyD91OtD5O2y7SbostvN+nqi1n6/FdX6RcvBumzwSztf2eXnv2ddvrhx0/So+cnMDd7i/ZDe4p2kenT5hNV7U0ofW0bc7aW6PXjNQSx50FkmRSDrdzvmguR3VAgSEbYNMrM5SLtIH40V0ZzT7BU6mbOB7MoOvZQqRyLNB6eJRG9jCeG6jt5coKHKXI85y6h8/dQcVEsx/iMB/FcgVSkAfnd8/lk/h6Sz39KDhnPX/cj1LaqzF9KI8cyo5nubOJNiak0yuObKulShGvMlJWepv8YCxQgkesGfQ2i9E5PU7vfiZV+jIsdGSKJUAkdNZwY6mxH9vlU3XRyaerIgH1AiBb1sIPaflPTDV2dYC7x87ub4257VJHRHReWDbVCi3bsLme0RPy5DqdzG0PFYahjdGErUXGknt6IhHCKWbuPXdKoYI9znGsdDzNYOZoMqeeB2DKd//YMPTNz7WslKonhbtKdkkqDPq+fBdDQ+RqiagAQn45R2SXH4SBQCbV7jAFtNuexHiDlbWAcphvdTYYHVQJ0QRBBEODhAnfq4nIGaP1Ya6vCjX63IzmD2aTD08cnOUeN8hQaAQURw33xGMoLwvoM0LqHHsEkGQ+j9giPYo8hNFMltIdcS0z+cVyvLpwjvPC7Bcf43Lha4oKyAix0BsrbIJk2dGbt3PntKg1fL9L1i1m6cX85Q3vM0+AKbXIzT9d4ejeDSRqhXebwb0ad9/WUmueV1LpAxXfheQcJ7RATdqMmgsNPZe1IHTtMgJBY0kILQe8XYROTSvTaDbNoBqj+wYhrhT0owf6jf+0/gNEN9OkasC0AhjNIKBZgKPVrFNyv19OJ7raZkVSyct5Oj37wmEqa0AdREKeKZGNMX/36Ov3s09fpKxyFo98vpe5fL6ez01r6vd//ISA5uMWhetD78gpwRhgCBm8ArYtpuA6Y4DLrRSDkRdOQqIC3hp3kkIoNFCNuOdALQGGo44tbVD3aKu731vCSBJiQCGBldaJq0bEQKhallDT0YgKjRC63YIJjhRCYWt4/j1sph/8SyOI8YJk+J3bpR5mc0Jj2BjMR4vq4VDWtOvU6qg6DrEGZRnF3tCE8Ux4Ykpp7ckwLsLEb5zI8YDzQQCddBMfFDF5jenZGS+Feytce1KN10eLzR810+aybmv0m9p8SFEGiiUI9bYN1ClUbHeIozbGjFZmq5FDlUf3sjPkEye7MdYVH/+J78sH+yX/7/4gKbKfRYpbG7LFOF3fmz01qYAQ+7rTTkxPcdnryHglmsLV92QVsyEYerFd2jQd59WaSFoNVukY9vhrM0+73MJwBWL9dS7/1o/dtTqg5pZ2D6jYsBlkBhp6hqcMrerLLTCrwYl2x6PCA/hCPqSlN9GoBWIgOWhTwQPqYChRz+FAJPChianYwiRQGqozX0NUcKDxSOGzmjgQsAaZquxp5ZvbqWO0vgCVlfVDIqiwRD0Te8j3stACPD/JZMIH6+9PExpDWMonbw+mwTmx2DDWDYNJZiTRxjjtMZdlZFVNnDuYIPNpFkwGaGeC8vR2msQvyAjAzS2SZzLa6xvWc42gSZ/eil5p8rzS2aJlqasNLgZeBTjt4gM8Q7JZtYNa8udktuggv1OukT/ANh0zQR+vtVOxG+k/Ovwdg//jf/IcArB6Lf0yWDpn4JHpNNH6eGjD2Sb+bPkRVnJ024CO95GhL766hPk1v2abheJlevJymm9sZqsao9p5jqNG/AcPYm1D22ZMLKkjL+R/zHZUKNtBeqdRCBWg4OjxhQ1VlLn8ukyEdUqUMwGA8ItxwQozTQclgtq2iLuGKAzJ0PN/hMMcEWAYZTOeYiYXuxrXswYLU2F65UU31XjMDGEcm6iazuDXbSQdG0zY7SQYs4IexJgI6MSLwx6VKm2gLVXDGugCLAGuAkC24kMFiNohtCHEQoLLa3Mg9hnTCU+VaTQSTE5X+W6SV69Q6RHMzGEcqjjRzzkEM8lNGHY1jHK9jEB3e6QVv90tAdlhxEQltDlt0TmgdnSjoSP0RXBsctauvRqjeYUyYcQzYzI82ZoMxU4f1QgPxz9jh9wLs7/21/11kOvgcMx8lXiw0wkPXmwUNTOn8tJPee9xPTy7aVAy7in/HIHmApLq6GqbXV1OkFjYC9kWjUg3jdjFFxf1rrVT+m0g5PJnzfg/JkN13CW3cKcQ+PTzSh7W9qJ3BS3OcDPLBYYgN5SCYkfWKadFlLuPeiNMIMMWBvZAPDVu9KgFlgFaD19iZ45ZKM1eQcZ13wZeX1aTRlFdC9TZ6LVRJlbJluFSmMuyBGTkG6QSCgMlDVJkpqn0dAYmvSrJnR2aCUpl9MlxwK46TqspwgHyk6JiPYLvtYNAhx9hMWqRKGnvQyTXri5BI2CtsOkFRD9o2Hi/o1IcXN9DR260OUkvmazftk7PAlWCd0xb1ghYIBieBNDqOWthhaKcQkx9ULDsTfO7g8fw4/fJPv0y//vnXaCjrZWD5KIDbdYJOC5BWkYoc98bTi/7DAPv7f/V/G73C+gd5uCQkA+eME030rGjsJeD64Ydn6aP3T1MH19ZefXs9Tm9eDdJLpNf1rfZMJdVRa3cA1ZWU0x80U/prtbTH2+m3WpHeYsMd3LXX5AkP2XPz6XoreaVjAB4EyMwKO8H7NCqVfNQ1whQUo2caaTUQ3rmFOwzkxWSZpreLmB4nQ3UkAmBh1+1RvUoTdsGO9DIvTW8o1imDyRLJ4GLYcFzPU/mkfUgcc+dMQ44csQwnGGmWaAXwe0xpwh2oMwF9ezUOVex6p+ZoqZK1k4wjudvBjMupqqyrNk1e5gBGmmaOvVtDcuey7UjUDlxEXXAUppNtusUWu3lzk9qNViwgl5croGPVjkLqO7pgipUjC4JLO1bBQevif/zx4WyR6YvTt54cpz//o0/Trz/5iqc6+7sdddus59E5m3QYg9HdjnMGaunRs8uHEw4/+Qf/PG4wDQTlhlSg4ejUIYbyAM9gBFgmiIbhapXG/MYoS+2Lbqp1zAOh9zZshPnVtXQ7mQGGo8iBMkdoc4buvsRTVEwIEv7pMpvOYhaD2I1lyGmssSTz6Us1ep+mHcSJteyVBtwr2JQ4ZrwKDomsqnAZSmeCGyxUbWrMz0bLyAbQWDaYqFRU5Wt/hdHss7S3IJIiSpvHVGlVQUyMVbUqxIKJOBzUNdbIz6ZdOBNKstkhG9Y2hMqQR/EcYIdENlV65eCyUop7LX86X6Tp1FRjnBHu9dN5DqYou3DeDtdSKWauf/9xK7VwkEwsNC0ndqsMgJR2Ps+JIYLXjpZVtTEyOhESv+mUMwPCACMylWlrLGNApzogK7aQO3QmaaQUUxO4HutXn12jpaaUpartcl+exmfGsx1CmsUK1ZTtOh8PAuzVf/wnEVB1VrMLhSgWrha4uQBsCNBmiFFUslMf0wyijS2UlvXP+6nZq0cKb/ekDSAa6TXieoYr7RLaivDae/XUfq+ZSqaPUCGZ4SwUR/ZNGXapRnuX4DAeU8NrK+sqK1VCnSANpAO9PnLCUR32ToGmraanafzHfDbVicwtwOXYnJNGO/Ro1VdIFspzskZDG4JyYo0M7tdJUZogsAOgxZw/Jbm/IxNBBtjt2f2u12Zb7DR5A5TeA2KNpJu9qx2m6lbouAqQ4JqbjCj4BC80iYxcHrw+SLLj8h30bKbzZ4e0I8GlFqLuAiRsMkDujCgLjoV6D7TRPmogjQWQkzRUtdExNSn4rk0XHVGVGPQ4VJ06ZpPAzkF7kYyjm0V68fUVwEfqNVsxHumEGJ0UJ70oSV3DwyKcydTrI+GisG9tPaTPOfbHCUZ7t9NJpVYvDSH0mMZPEasLesYS92yBJJtiWL68mqWf/PxV+sXn12mJZKphnzWfNNPZR910+fFpusNTWR/T66m1wz89GOqgueA1E7XRaETKrhVWDZo0Z0antkHO7MyqKwgKg+EZn+wy0O4l4iSaIp4TxWo7C7zP4fU0Xj8jE3qXnXT6pAOT6pFuXKJHq2paJy4nqXG9DSkqY10V0fQT33xRdtodjwhXX44iMQ2AmeuuLbTcINmnozSaTWJNe+cmaOgr4QTrAM/uiy9epM8+f5m+fvk6zfDMNZCpcZqHBFvH58LOBqD2NOQIkSWPDRH5DAfLY+EW2hlhBzqCjKQW4cisZ3RSvTvv10RAsrU7GODYW00+jduZKSzo1wBbOupUKWnMW+NwkDE2P+mM5uCZabEaw78Z9qsZF/QkbS87qEtgFQuwaJJkjvBprJMy7HAe/c62h3g6xdofdpXdURXgYOCjKmkGN2P4s/vOHN1RV1u5uZ6kn//iq3SNAbux5m1E82UlPfr4JDUvkUhGiSlXW6dBo5wp3UGatNsNPBCHKPKUM9NX7LEh9ilGKZcxhMSAARFDorfaY+05nM67hKXuNt7UaVXh6GYaqTQawE2MUFVLtYsjgCY3gKgtYvqRTHSiR6g3CYgKdQlx8+Ndy0LJFatCs9vDY2IF9pUD4mvU0uvBIL24uk7Xo3EazedpPJ3FLKvZbJWurwHXl6/Tp1+8Tl9hm3756ia9ur5OU9e2p76xlAEMpvrx7FhfgnbJbNtFS4OJSkGXVpgNkHi3qFO+r+lAyzHmyvU8khwNRqvSIjMVQRCzsvB+paU2nBI9XqKACNWGddO5iqEfJFXeLcPFZ5xGeJdW2HO+DsdUJE0F18S1U7tsAKzMwoFOGCEVzRJ2Ew+Nw8mqB1Xkn/7DP0LtLVFr5qI7Ql4KybU8WqXNHo9L7lKEDwAz2vsR6d5sluniST+dYic4GcEUGTMcHZpYQeztdJ/6zxrp5H3UEY1SjQlUvQl7RLwgCoApXsOmooIUHbsiRBUYu96Y0kRu2/vYNPz1OhXTHveZEtFBc1VuRN7RmLrmBh/lqEa+tlC8lg4P1/usk4PX2hZCNksibENUllLHSR3uWw1zjPtX1wP2YZpgBsSaGjDI8VttROt0PRylN5oJ9P6VTKMcJZwDxDEzXGkILXQQIpBqO9ljLBFJJR1i+QKlAtrC0YAdtmzkby2weai37zUyqOywWgxWo+pV/RlEtBMa2UmU7CYMrpAsLr/gqEnMg5SE0po9ehDmi2vhCl4TMvXCnRStvVit1UMNOrE21pMFUBoB0l0TxrhYmA1s3X7rYYD90//9f3UwMjGIub1Foe1uKx3R67dHyDBEsEx3lWjHJykXjGiwb9LFo146f9KNNTqNgKtq7BmL6TwtBuvUeyLAmiHKDYGstmukVp7VUkEdRkYnhWcDWbBZWYiv1NLuAWCR6utRzvtPQkq0mJEtc/itSrGBrqhsOCOkoVS0lhrpvkBg4gyfZbqDgJbfwiuKJQe4tijT6LjT2TSa49UugFWG3N6O0uefv0pXgGe3V1ViG9G7i4CjDoMdZ8T9U5izU+XwdHczZfMUMmqvsa39w3cQnvfARbavTJ6sUqEKdMxjgoY7MtPtbCY3NpuoctRVLEtK+6tmd9B+6yGwIgTEP9gWbXe80o4VgBLcSkzAHVoBrGrMz25yAmUkJEIH1/uoo2EuH1+G3TaZoB3Y85ILSllnJaEyMXnsXIvlPFLAHwTYT/7hnzvGGZV1KrpT15zmf/n4DElQC9QLBGfP1OkxDdQSwEU17dOz52fp0ZNezG/0ZUvhzdFrVFka2+3zSupeoHIh/GKFxQbjNLLNlwrg09jo/aijCDtAHEERw0fKXCpmjEhDWcJEjj7fBZcGsiCIVGRc7zL1NjnOxUsi54zO4ruDlkMk6gipRO+M+RKUIZNiDYkKTKMeYZzTMQzAxso3/MumwAB19zJ9+fVtGozndHgN6Ep0BMHlWJxxqvc+fJZOz/ph001oq2/cyIPgR6nb7kX4IK81ZptpE22zPZ4XbLZbO7Vje/BszWqAkjCxGfl2SlgBbW5/vDSijoRDMjvrOrw47jG9O1YkQio5EuKLuKT7FqdCxSEtDdTaaddIQSXWcrSLZRmmg3lME7T+qtWzx93UPkPQ9JtpNJzEiy1UBNbB9cCKlXZ0vAT6bDoJrfQgwH75f/4VqhDVxoXbuxUSapdO8EaePDnF9Wyn03439Trt1AUYbWyRDo3pod5Ozprpgw8eI8H6qMiaEcCQMuGyG0uhITVUpyshG3W2A4l87aZIGRZLgDoApuvLT3tgiGBApeTKA90ZYAJPSaNK0ZYJpwG7SqcgvE3FUkgDpAdfY73420UQU8NYr9L1FGQopQAOAGvg1nr7TJ6sFHOd/elika4G4/TqBjuL+3e0JxgNgWPIB1A6KuHwy/l5L12cdWm3nVBDugq4cozP+FAfUNQ4YbZIDbWluaA48YVarmmR1491QkkDWrci7BAr+ESb7Vn850OPVSkyGilNnLxr+jeAnuRAbqyKGDTlP8/WaFeVIg95JqAwLqfqc1WjKfbdaHWvbh1mc5hKSeiLu1p9NUwM+acZRv/Vmxts0jUds51BDA23aKSgGfVyPsL5+fdE8v/9f+sf4QFQ2dU8lfeLdIGB/hHgev6Dp6l23k5retcUD2m8cLmACYybAaBdquN5Pv7wMp3gTlf69bS3QkqbJTodw/T201G6Xd6maWWa4zswwGi5Y31FIDWCjkiiYrA3E4nKAy7tKteQMGgZNhvlR8oOzbKXVfA6deFVA1tUr0FMV8dR8kWiHfaKvdehKB0F7Y1gFKaAdotxJgnpyICxNAfrZ6hRpWOM840w3GFIzMAWGIAkPDZVGXaCg8f9k3Z44aY0zUazYPgdKnTBM6+Qfq7Mo6Oj3eoIhzaiqkybzlUMVW8C1Qh5S7BxTOYrVVYu9EKbYiE7aONSDbGOrGBCE7SQdgJ1g3jSaepftDA9dBBop5J/hbrDY3UVx3CKAJK0dfgrj45o0lg3rqccpWKkd+NxCzLpuVnx3OE2/eIXn6YBTk2r3UnNeiMAlt/fbcfGRIGeP/yt9x4G2P/qb/19II/IBfLV4016irr5waPT1Dund75/mqqAYg9DzXhdrHzJFB4MUqSCN2hOfgU1eoRUi7UNkDD4BmmPx7O+WacXk5fp9eYKgpYMDqPK8NRMckNfu7gK1eOfksmAJG4R35VoxUs4VwBNgrlioG43VhkCKg+hCDBFdbx7UUYCrljPC3Xr643NiYKS0ZPt0XqFpvaO8ehEyUm8VbaTOqiCCFxyXZgY9HlDHa9eDNIQL87RgfuhImxSh0pcJejktBN5+/ZzE/pmetTYMNpc1tpn2Q5BSZUR8MgS6wgtjcq7ZqterasRgmHOwWDqLyDGV0hRVJMCydRsHYQJdu1wnNcDsS621WrpyNgBY1ogfAjNrBSD+bE6I2rf65WKLilgZUy7caqa9XKnZRHkdpa9ZnTMFOfau41Co5S+/voqXQ+GYXqYq88NHOfZPKeG6m/Rlg8+evowwP6Xf+PvcQIm84/r0keI/B9if22PJunxe/3U4vcx6nFPQZrbMXQj70D/jtqF/QK4YmQdg7SM17f3DR3o+De7q/TmeMBdSB8bhUqpYPtUWtgjAMweJcAcjxs5DQ37x1VstFF0FlSHXlNHesWiH9xj2MBZQH4a4zHY6rWhXr1NaRmMpWw9OYBqDvkEhg9GLleOhwsZmoD8/HEzXT7vpjOcFZdhMgZWQqTNUR2vvrxNr78epqkhAgBs+S4Z0AdUp6dILhwKB7DXlKe0dEG9GAWANhr8oXr1HKmUTC9sO6PtMXZpJ7FjSnk0gjaoJoQKezHdpektYMK7F5B1pIae6Bzbds7z1jGbXXMBmodaRhrqIMED7TdHLHSAnERjh4WEYTvq8Rk+MsYWWRGc0IuXd5Hb5U55YStSD+1AX7t8O5zSMWfpzraAA20vnRGXE61qd/PblbsfBNj/+m/9H6gYKAeYfcT+R49O0geP+rjZk9TBOyzjKZiWUzI+Q2O3FLYCEEqXmDRrRaioDduh0lwv7AgCren9ox5q9QwRTVWPaFQZaXcnHUoA0aAqjTWSbfR/BlBibBJ1qTqzcTbcrsJlsW6Xq0PbW5U4YQfQO33lchkiyBhVrehXLkJfpOIujTmv4T0J20oDPHcU89jqrX26eNJKz9+/wCM+ATD0WMB6dFeJCbpvXo6wPwao6yUSAqnV72CPYojjqTqgrAQ1nSW8MZivYxDhjW4tNU2+hPE58m5w1BADKtSQAfVvQFNV0xx7z4m+xr8agJwGIxGRuGiBGWpRs0DHSK/3CPGiPev7iyzHOJqdMOY0oMZdpTHSygUe9xmgFbyRToSKhkRRH+ku+LUnHVoSaOFZAg+lppJfiS9wTEfy1TtqIOOBdoyYRIxnDCExZ2g3bT9HKD0IsP/Nv/nv0YBq6tMrH5130uVZI3VVYxSid+Gwiwyv0cgyqmpDZSc0Ml4vHIyCIfZQpMYSO4SapfoaqYREWjyFUB8iapEK8eImVKTZsUtsJmcpOT7mWqoT7A5KojyNx1ymYRElkSAuQSxzm5wMrJ0Rlyp1AeR0hK1CYyWSxA1Q0rMW3Hc7mKJWqAflxMvg2SPQqdyk0k0k6elFM11cdiIIrGQQJJVjOtVRLaTfZDrFFlyly8vzdMrz8/uXXNFHSatks0djQhg/A3BN7LrTZ3hhJ00AodfLM6mnQczxFXYdHU9v2FEN6z8ajsITE1ytTjO8Q18Sb9wtpONyEW3rdTqowHpI43CalFC2B2AYnzJZ0dWLAiCUHwCjXK3WvNivm/YbWgTgB538DdhdOduwSCx2TIdXAsoHEbQ52qYanaV9gf2l1IZvAlqe+97xHP5ZpNPL7zHy/8v/2f8zdU8rqadbinHnsIqrPe83x+nqV7fpq0++RjKtU4ce1KCRaxo7mM+RYNg99JpGFRe8VEVa4HldXaXlYpp6e+wyHn73AyTbb1cRreh0VKNxJwO6QrOERNvQyFuMR9oU0kfpoYoRYCEV+THHsNWmaNDTTrst3H7sHpgqxbTdfHl7VUOGa1e67YKd3jmYzNM1KnFOPQ2KSnmKDKODxwDufTrFE36MF+xidhrXX3/+OoKMMQKBunLZ84jgr1bp0aPLsDXmE9cqmwfwY1wOBrlsEiKUz1LqPmqmPnt2YnieJOf/xozfV4s0eYMNi0dnCpFTyubQ0nX8DT+08Dgds3QGtZ61r8lxXX5tSNWg7XYloVi7i8KNqemdumszCUSllc2VdpFBzC74Qu9xXFvMIGzkjXG945ROuNEp8D0AvoPTe3MiJmbTCd7t+46L5oX2BF144+hmJ5colVeYFCdnJw+HKZp/Mcegx0g8obI9KoltguWGLeRCKDP2Ib0vD03sNi4B7jy4VQzmSqjqUT2MQfPAX97gNaKrnc/Y3FfT8Tnq6Jx2GeNCvaKdDka6QzYZXBMIWKFn+jImGaKQNrKtLab9ECnW2gkgykFdpZXLREUQFikayYPcqP3moiXOd5xQxwHAm3HOEbIAnfdDVGN7znB6+v5Jeu/j83R23qWsu6wOX0+QzNqEqj8Xe0NqohYNM8g4e7evyrPz27kEl8ZxE7vMWJzel7tvS7NXWGcNQ21UI+wCXNXmyylcxjNsJC6xvaqk2WIdQV1fq6yUst6iAoxwDRILeixoUzZPkF5xnjL5EpF9QKSXqHQKzQIgw0bm2Upa6y3YCyC6CzSH20IDQEfvVzypvrVzz5+f0mkayZdqhZ1Ge/KIAPWhYhQdu6+E5uO72+vbYYQEbOiOSuyo6NI1HK6xnwarTHBU3hSUDm7n2CYY1pNNjF05wGxC3eB6km5uAQug221zQwSDhrFEUpSrBtTnrtdgxdXrXi+xgngQWyJrh/ndzAsBZvypGYFKZ56bqYD41sMERLHqIBJqpn2Fd6htuMEj5nRaGIjkuYZB/GcqT5ve+Ozjs/Rbv/8k/eDHj9KTD3qp1UVd8BxXPUQGQX3XCpOQjlHWkovMGZLQSJ8LCj41vA0N+E5HPUFzweoA12Eq7TiBlCWXe/BLrlI05wCBncHXuDiZRU2g8T4aL9P19TTd0FEHvrIYCWzbjDVZF/kj0JTa4BHm+hDPHSQWksXwhQ93dUZp49s8pGeO3HOTdVGMUS+PGeCNZTmP9X4dFcCZwowxzafRpdPo+NR9jpJwy7O4x7gj4Aqa8j2W4EIoed2DAPvi86v0+qthmly7BNE2LW6QAC8AzWfDNHxp3Ita3VVRY4CMCrsmlAFQJYg2j3bLEjW2WWNbUPFWqM28zKXIplmgDdApoukt5RaOQsnsDMc6OReABrTYPto6So5YPA1JZaJgE5uhgxfVqjZT5Yh6mEqCrXfjaszYR9PVIsC6gYs6Iaq0ZqcLMLMNZPox/EkuAfXhb1+mD3/nLD39sJf6F/VYM4LHwyzqQftUNQLETA+Hs/S2BITSR+ZqoyhRo9cby6ONDnS//Pp1evnV63SNtHfAPdbiQoUU7zQykr51phD7HZpBAAsSX+Bu3R2zjJUVUY2x4jRYj/kDIkfyQ1elSx4cl2YSVWkDUPiWZ/ugKlHrsYAfwDRM4oC+4Z/QCJggOQUcCQQIq7RB7zxezYdkEmB66WbB+r4CJf3pRS9GKowd6r0qQeNZxfXG8DBdHFLzugcB5iDwHENtSs+ZAqghwBr8apAmX4zSEgPfwVbDGLbKSq53BhPpLRIZxpWOpcYao3yX2jC4rytPj+/RA6owW6Zro2jk611VOkgY9K3jktmjyWt02QgDprFSDlJLZjcqXA8CzCwtAQARac8UXGYzmD60UoVipPosDVDBcX7ST4/Pz7EtABHH+hjc7310lj780Vk6e0LZeI/m3ecurbowmMq91LXB/d2e2bc4NXYKgBDDSEgd3+Eo8xwUd1az64m9fHGTPvv0dfrsl6/SV78CaJ/fpKuvJ+n2TZ5CNnw9T7cvoOuraVrRgZNzPQUP7NDx4OHh+gvksD3pFIYQlEYeC3DBWE0K50toRsgL1aGSMrJO2DWvI4jqtUo5mqfGcI/MDVCrV+mgup45fT7GPm2i5QRUrY+qnd3MDNdn0/EoQ19PRXW5MVSlv3UiLI8fwcuHbLDtn92CRC6mi7qGwewa5LsIHd6OA7+qqfBI2JXKjsMZle4gSlugXehpLynDGxCl22zibXVSn88NNtj0lOdTIdfS11AsYbMYMBzj/Wm8xtQq7ttSWe93VeUwZpGMLaSXcak1PdGY12KBio4lkuhNMMJe44CrLrz12tNYs3M7rWYM06B8Y4zOlQ/f++gEW9MBaoGljRIKJrI1HOg1LGDPdEKDnaNBR3FcsFlFNaPCh5gA2kUy3JiUUnw4nKYB0hTMyXJAiNmAQ2TbBtezWLBtAC1vX40i/ca5n0q0WL5d1UVNfCGqUiEIKdP4pwfvaIVMC4AB6BiTtb789r46dmss32mnhx40O6537X7LNvPXsd8sxWkvdBbAcbf2Fb8Nmjoq4bN9hiA05ucrccxDM1Zp/lwd71GzRmAZC9TBMKgcXiRt0UFCNz0MsAp634VJtG0Wo3VajqngYhPqx0XU4o2xgMyKOiDbAs09dLNv+Tf46WblZGyv3U3NZiOkUplGTnuU08kZGSWkRuPUxUJSmo5ch2wZHpNytdtuca8xph5MuEuz8QS3eRNANrNAW2IuuJbzNDd1BOJ1z7qpe9ILkQ4LUNGmlNABAGR81+aBsM4f6J9iL7l4rtFqe6ysgtjuek+uTngHYC5P++n8lDbgDZZhQp5al9IEEE0AjVFNgan775r9M+h0HKF4g7D1sItc+c93YM4jg0ODXtttHeOH2kaqOsvRxoz1+/mZsy0MLRgjM7kPCaaqVnLQpkivBuQa64JLC8gOpKTXzrVzmtzpaICZuXuOCS7tvjme9QJp2/Kl7baHBghEO6RjqU0klM93HNZVc2JhE9W6KhyNUmtrY5XACF2oFk2FfkirfTmG1q5ejdOrF0MqBQADDd/a6k8Bxo9g1ns9vMhG2qL6bpBIX0xm6RUu9DWEHOIuTw/SrEElY1EUVRk63zehdZBWl0iebquTZlx7M0DNDifh0e2QGHskpMNJrmMQXgdcCyb7l4Y45b1MzzzauY7CIlbXcd1Yw6f+di12lxaXWMr07mkvXVyeReyu7fhmDCUhzZB40D7K21IP35rWQyI169WQljoH97aRKhcv2Bk0ru3vGmZVmF9hxzsHcDvMhll6/eVVunl1G9LHFX8iqLrAXgKQ5qTZ6w0X+LIEI+6tTj+dnFyi4tt4g6uQZktHN+goS8Cs1AtzAAmhRNS2WdLG7XpJx3RoiPoovaAT+IBxWfVpm8acAg4ZR9P2nWP/qfa82HcybWmTyyA4+zokIO0/+C0ZmJxTC+3siY5/IqmV8K6bqw1sTDI7Tqpj1a+O3Bza5aBrznYJt4P67mkf99CJ5jOugyYPAmzXgLHdfep+0End90/TAiB8NZ2kCZVd3ZXSnAcN0QE3rqCDBFlig+1cxISGO+kiEv+pgM82ljVfzendM8QmFSvtUhWp1TgFAC2DKACK3mH8J9aq5xl1uoUr5ziFX8MB2zFSglSPEthkt/FcY56ehU3W7vfx3tr3toMiRrHtC6g0TPWAHGezTqp2maWzcOQKiS4thaEdbzpwMTuIs0Zq7yWOwOT5TjpdYB4MXo/TG+yr1y8dk3QMMHcwr3GMMZbvBMjGi5yPGFIbRrkKolF6p3U5jqjXbIDUN6DItCX3gIUIMhu2UbqHu09jvD/iZ3hsSjqDnfm9lVTOnhMU5Lqwg1BVfPe6bHhrVCll6ECUEYu5KAQipUmtgpkCLdzMzLA8zRM7+3yB2TEdh6r1UZoEqhq1wc5lUTEfwpzhsOu2OXg+xswxeTPeBUXHdbbVwwCjXjtTV3rHqfkExvUbaYwOLleckdLmOeW0pBEzGjui513DbNWn73t0upThAVWSATqXPFJp1hTbUhOB0r6spy62l16X8SrXiZ+O6MXYCpAlVWlE1RgOlXd8y4zOtrYVktQKazPorB/BqDbA6nbaobpktg3OE3cxgujJutztbiPGFbXjYowV8GpjqQYXN9hx19R1iOrCW1641NQNPRZRb/aoEs66jWjXWLVIG+2Z2ljmSs30mGFChFMEm1KXWsaQEABRtamyXRFRD63fQ8KigkzFdmgGioQEcTRBFSYAHSIqMk0FqwHcDR62flVIHHnNs7TBpEbWAHk3q9RsC/PkzeW3Y2mitNraoM5/cHY39O+0QssoqXwV8nqjR0ijAJn283A4on05Dil45KcGvO/PBOERUI3kAVUnvcP3Friura9JNBc/AMZ1DwIs5vdR6135LpXbgAyAaWTKLIczNEKBP9cANIB/DWKvJthDiP/hEImGHeJkh9EE0CwXqUZ5Zg4sNUwBbxMdHq8BBhROJJjjxpuT5KxtQxANiWJ2JD1Sj8+XNigFlFBKRaPOnU43XT46T48fn8dgM9iLoamc34R94yIfGOEz1Hq8mYLzMajMM7b0Ppe8dN2y+e0GB2aZRl8Coq/oJK9w44e48RisLpy7FmBTVM8cYKECBRYyFSqhQugwc5iwCHtI2eGcA8CkoayKMq6ERFBKWPc7dKkqz4FtjUNf4m54wDe8eb8qz3uVdtpPgidihYBJ2PpbSLnpIeagpvaTxoW/zcM3TphtNtWhINcbjhe4UmaFax0Edxy3eQi7xOIllkGZZloMB9PoTGHjAZ48gmD8cxXeqalTJhTkSSaex8HBrjS9ySmKvn/S9ihQHgQYQi96VzQHldZqm0zYgrMUCGFksC9acED5DsTMFnfpFiZMYYIpNab1GoEeALAZNpvBQ2fqLOghMZyhyBXhLu89XMLwHcBq4Gl20wlg6QFAJZZeW9WejMiWWdwMmWUYniXG99NHZ3wiCasaoKrYdZqgumbYOGPHHG8nsRiIUXDH5GKUn44TM7xxXNZj1M5kn1aDTRq/xNa4pv5TZMo6G6w+K/LCaM8aYhtCsAaKDI3rrI5QaQKATzMJajDTQV/X9HLBlfziVimZJcPGCYb8cozyiPb4ziFnQ2s35fdlg2BNAyUtH6q7mAQNcAWAnn2OtmtI2c/1LJHe0CheHc1uPMrwjENCPlODP+jH/cLUzqj2pNgYxzUdvo40w1OKRIGbqxGAwo5EU0EJ6qQEgw7Yhy4ErJ1pynbsNMdYnm9hiXcsoeUqvimCO6XNgwBzaWr6VaAXPKKvUzpDpaUqYhB7SmKUIIA+glJHYjh4rA3ikJAD0qqOGXrdYKFgc7wxcqiQeKvBKs2uFmn0ap5mN8tQiZdnJ+nJ5Wk66TexEcxlsifTQAim9xj56FBcleFYmcb6EUyaA56RkyrwQFW1pvPGJFZA5KuZj49NuMsjCQJGrsV7GakziggDnvoicfNrjZWQhzE8JENE13m2bzozdhTw5riGbcR4YKxtUnKpeuEx9OAXD8vrcinJkYjQwu851UiSK1mQZHQeJYnjfk4fs5wIYM6zNw0+AAL1tyOLD+73mao/V3r2M3LJKEyPM3K7qJvDUGbFam8KZGem652G+gZZAtKM0/tJJajQdqvF830/krOhXC8KsEALjRJpJ+alX6zYA83McUsAypUmjTBoTghGs28dKDduZ9kPAixIZkfln5FZF8t48l4/dft11O8aBGtb6eXdpRYV7mOwajPtML5d0lLGGIB17MqyJF2dbtMz4xKnb/BimgYvpzHV6gimCqSma1L5fiLVhsMPgEgpYI/Wc1FcG8txhrhjm6bsfvnZi/Tlp68wvAfYSNqAjijQWCREFTUj0Vp11KdM5d487Q1CAAIlh+OJe9SKg8syNa81aqqQoxPUb+WwFeCjwwgwmajRLbgEYBAQOgWt3KmvUikvQ6AahE+AOb88Pr8/STtRwyakHeAwa8V0Hx0AwzztmI6PdOQ6PcNqGYeHuptFIYh1TnzLrqsR+hkvk4fOTrgQKBGQpW3ttq8z1NHIdXYLuw06CnQdlMlkjCocRadTiqqiJ1PabOfkmICWXnq3di+dE7NEBGjxKumtjhb1s3O5hVOjzYkZoBPxYBxs83oQFNMWc5hBPe0gbwkPcomnsIEZUCvV4VuLQpy/UqcKLe0beoxeDjeG7m/SQN9+4evfGvTGxUlKo6ZyVfcb47uDV8V1kWmJCBYL+TXFepaIZBgT60vQ4CFe6ACD+xapZU6Xi83qqTh8EsmF0buNBUF8nhfDPJSn4a8UlBeqCvuV13NbWmzX4aCYwq2qk/9LrjW0oo3l23cFWBjUtC8GqOMfG+1UmmdpZq/Ou2DzPtWbV8q4sNG4PyQdF2SA+RIH6ilCAae5+zorwqGFrWscUMabH6YkdKisyHK1Ag5R5bbnMi3D9TpikbyzPp6pT/cf7beDUacwe9iMrzn6oJ1pXFGprvozAhDJBJRrCETzRn7aRmfdO8PeiR/OuKdVcd4hQgOsvnKHKsRztNmc7/owwN4AMKplT49eq8gFmS5iUvbhMgvGVKhk7DyqS28UcA7T6PAKzDzJ1jSXOs4ARyH4tMfDAVmb3tY5aWVbgcY5NcotG8TYPkiiiVJptowYzAhj/co3emhUR6MhGPcpHwVyzvJ0NKEdA84azzt6qencGqeCVUkQPY1dMBlSmNOWJXXWk/NYzHfkdwYIBBZ07CGHKTOM67CT6NG0Ub4W4ArbiGPaTILr8KgAmF/Ci+W3aTlhdFNvbvOCkCp5vibXQk+dHGnuaIXDUR5toE71EGPuIfepAu0oAs9tQVs1cPvYy6dmHXN/HibSSaACdjZudJp/2EkWCpBsj4scT6GxoYfsTcID6OPURZ0JnylwO/1WpCBtECQGYk1uMK6nWWJHjIfwLCWkSZEPAmx9dRsNsO0yBLJBCEQvNk0HA79JL3a1+A7i+hTRftKup7NeJ/KX9vQwNFpmEBXVm6qUclJhiNtLSvugkcclG9gPEgoC2wsdc1TEhjRDr6v2ppNFGiA1b/FqfNFV0B8xrecVeUw0PN6brSTFSwzPSLtEwgow9vB8+B2E4/4AF0QNqSVjeXbYU/6LhiPdJAR/tJlCOnL8SCNbZgkEz/FHSSCwvKaIW9mhypEtauMsSPBhArArWR0YD4nOrhqM4Cx1VCWZldBxWKpVxx7DURq71pfZrdhcet7Sh9+CyfaYIhT2omoMZpmHf0LHdUZS9hKr0VG005R8jmXaSeStnqw0FFSGJARyHptUMmqSUC8JTjvMIrl47HquLSQ8WkVcIPlMY8oLtzjPQH46lIWgoSzfQ/lgwuHsJ78CVPRKgLWZIl2GMGcOaIaopJtZWrKPXw1w5zEGMeolnhmN6CcavovI9GQ0QXRukHoQkt56jAdao1XrP2imu7/tlDd6EOI8Bs1tg6qDmjjWOcdgdy2Ely+v01CAIbpdPEUVY3ypFESVoTwS+82kSBdQ02DWRjEDtbavxHjlZDROrvEaoQBtMMFBy5RJVD2MYpfthv7Ug/pYqFXiu3aIiXSCT1ss0mnopdpHkk2GeptqSxUiE7NdRS+nzWvVkM+zyGAwkhsGaTepSpyy5uzonDli7+dg6S49enYRA8pXr2/Sp79+QbUAJLZkJAvy3JC0dFilX6PRjO8O53SR3Gcu79THHjO4DC10dJwR5euuFaQxvsi12qN2o9JdnrU0HIzRFpg/8Cw8TmsjDXwGQHn09DQ9ff9RxNVubhRAeSjMDppnvmfaOcTk3UP43wPoDwJs+ZNfw2n657KSxi+WafjpBDDR48eIRLy0OyqxwjCeIFLnGoR4FI6RHQViAQq6uARQyvZKtUlao7qq6RQRuwJc87/ZDKPfNShcByGCo6jBiGHR2Hg72XibPvvyVRpCHDMktAPMwtTGKrIGZEgHx+PJB6fpyYfnEcB0kd3B9QjvsJqWI2w2nAHjNZVSLSTgYrmIOup+mD2rwaMoN+AYRQqcIIlXwNiqC7Wg4iHiBAZEdifAi6l1XCfQzbCwPnwFYNQRu6kG8R3nE7kBRFSX47tnj7GNKk4JXIWd4xCVy4q7tILBTtf9eAwjT8/76dWLm/TzP/8MpqEW2cfjScTFIkofz8SbBkQxbERbLs568da3ZiuPIMR8AOtHfaJyVDLUPHU3llXSC0TFXb0cpDevb5Mr/WwpH8wArjBYQx1eAq6Pf/g8NQCtEnyMHayd6nWqYd+eZ/6/AWfrpnnkm1NixaKHVGR6idt/vUmDX8/T6Od8/8zX+c3S1myKCcY1OneIyrri+xsAcGNIAr342fWb9PVtrqjelDaZKTvGznwzWf8cD+l3Gmn3vqoNyRcTZLONo6u7dQ7hnN8rxe4amytnK0QKCwSy8toPbop9y3XpbfO4Th+1UrOHeuqiwrHDVC+3NwPqiugF5A7HOHapNZJfiWISIUBBPfA3vDAlcRjk2BeCTNtGWykCtKhhwRcqhE97qTBUuikJ/IeADbBpFrgrFbNkVIphV6H2fN2yKehtJK5S14nCsTaXbYnhrbzkgaJjNJhF4NrxUYdyXP4qpIrtl2aqfnZz6p10MZ8jCAxsO0yFSWPquNIpTzI2xKF37YA2TlszDxnp4b55dR1ruyoZi/KjRXQKJe7zD5+kx8/POaIGyKDl0lCDmiC20bY5nCWODb+ojhyBedjI/2qSrgDW+BdU+AWo9vV06NktDNqtHPz0nYc0nt7saIF6vFVrpQXfFzYce0B1VzqSOagYc+cveunksp92H6G6HuvKyy/BhD00oveyb+f0Cmx9/AdsLr1Fnk95QJRaZSNaiRHT5Djia1vuYIyv8hsODA5CzONdaunlVBrx9rNbXxzPM4zLKbEconEcTnde3NpTKQ4GmYwoYfkBxXQa2lzX63bC5Q44cb8qNtYBo6fzM+Je/iu2iJxrHwo0OoS/ta18mH3D8NHShEhDINhRTrdX+shQX0ejTWk4w1SeHRYIXQp649jMoRFqVOBLA9Wfw0rtlmlE2Gs4RTM6qBOTJ+N5tPsaW3qEubLAC9WQt+4x08tPeGRAfPAGGl07icW4GPSQ1GxUO4aXnjy/TI+enNIWO5fggg9h9zrMd0Qb0DoALew36m3ZEdLAJj4969L5HtjWA5TaDaoAlXg0p1HYCPvlnE6mcUdP2tJg9i3SqUJBOaZkZF+7zZ5b4ZqjdDNbpGt60TE9rNlpRbptrFiIilBMK7VUu+uJwzs0GnBZwppzA+NQVDb7lgfRzrcAF41XcijRwtBcl9P1q0X6xU9fpJ//5MtIpYm8+H47lWGCSywpBY3jmGemF6fBazpzAM74kSMG6GrHALU5eifYMieAi97u+q8xwRhbRyPZ7Fqfn1OhM7xUu+bA+8ZcJ5zkSRBH4WDIVJm7gonD1zgrZgi/wT58jfd1DS1HG2ixT3MXyrtGa7wy924ZLx+r0mgdlsiawOiKZQXoWHroIR0Bp87M3BAD0moxxSNEC2ydOL2lM29KqNZNevVyBJCcDYYwaDl2W0sTbOkNKrKGIIgxxugqahXsK5wUzQMXRh5hckRHpf6Gglwp0cnGjnHG0gHw24kejuI4GB4ecsTBRMMD2+0no7S4XtFg88BHGIlIh/WMxvmSz27MQL6zt9M4QxjxQk6YHf0QMenAth7TfLdOo80yDeipE8S74TPHrRT/W9SgmQsO2biGqu+BFphLxPmtyYdIHM3ekLnaGzwHcyWGRBTRsZw40isYjSOxx6hfQj/fFT24mkDcdagb03ZihWa4obclsI2WO/XLGUeCqo60MrItNfrYMZcY2W1c/T3ctSONUfk6GZhelKGaBoQA1DCChra2EIdiKMrQg88xXhaBSj1X6BKAo+2u6rMaUtaE9o/vABgG9stpZLdOYpBdOxTAzZ3iTwdkz1kLMJ+6x9ilNKEujpgY8FZy5PCDPMhzVDW6dYZiqVDo6qrTxg59C5rDO9JM7VGijh1sKNcaiZUe6XSquxbSW9rqcL356jayct98ja2Gcze6nSXfEGx2jPFFI/gCM2J7tXKYFPFKRTvsQyryL/6jP0+DVyOYNQzDcob02vKvipHX7J+kGQ0yH0wPyRiQs3uNJU1wXze7Zaqoa9gWvv0DBkTAkd5tL90/gzaXXE8v3s2QRjMpJXJQzRDG1f6GSD7fRgGNIJxGo5gUUPyHk46/eUxQa5xTeNhSGt2mtjhu2uvhXdGjBm8mYctEQFIpSKfQUNYgdXeCq/aMYLPHnSDW+3hiphIpIJaoJlWUEfAcKKUuMppzMULARYYarIuGrmtH5JfoGxxGevG87AhoExzUJUgNRwEJ5bIA7vZ+8/QjGGych09tLAfTnYisOpcGIT19LuVYD4+7GRRXuviTRwYQpU3YiFxvp4wgMOCvAXaJu8CWzku3e/wYAYJZ0MUbNz0cXhuPjOEyQK6XaiDVhVW07baoV2eUOThu2ITHReavYRKzXjVizMejpt/drj67irU4X92O0g29dwBKr/FwvpxO0rW9BvumjPh0VN4FgsfLaXozxVuja2gjLPgcI7lWfHd5oykVfPlmkD779ZtIG/aVMEquO4y2yDPiv7Ee3WltJY1NCRNZCTwjjEouMghqQJSHxjFbpcrUAFYqSXd7X14bSyChGgFeuPXs2jB6P86YcvKDM49c3+HWySLDcZpiy80mY5jtRFijLkhGQRkMUB3KMAfg8zibCXexji09Vm/OcIXSRWLbKP8JqvBaqbiqR0fCY64T4RCYjDZUgU6D2dgwB6CZtm0HyWu6CiY6D+wSEA6g52EvpKDXcG8gnfpo/+WsX+rL4Rh35VytYiJoMzTFZECbXeveMUQkLCVig5bwQLsRjnj83kks1+RUPrWAndphOliUXMjZmU5j+LdFIjsuqfPhSIE0iTRqOjmk4uE++4FtNBjH5AVnuNwdV9P6uJauKeQzAPdr3NkJjT8uATAnYMhomBzr6RuTgLq+c9HXuakWejYKMeYcxwmG+2K4xFOkezoSD9DsIe5mcTqV31BC4YobiDSuZIwJMRABUbMzIwdd3rEbjXcgXfXZ7jbT5ePTmKBhLzY33MbnuBGSwh2p4T1GmgWbwDZavUD6jsbjdP3mOrJVp8NZ5DwJAgFmu5REAiQHNzPpVIfac5GebIejrlTrIFkEVQZXxM6gUzgV6loAYwmBRX7Hawkx+FV5XJBVK/cgq/kO6LwfUJrQadaIUk8JGG/h4Lhgc6SiRsfsYfi3UXshSamIiQlVeGEiJ0ZDTPidYuMJYDusC5zUO3iVfVRjHyB2uJbdpQ7qeLmYVTEJpdPvpO5pH+cK2wyCqxUi9pVbETSWN0X2rIDLVPrWNt+uArVOImi1MHQb7bQJwz2lmxgHnENYvJg6qgRp1sGI72BAl5DvhjCVYqqPLoZjC7XjWJs9UJd2M8NRwKCPF4tCFId7TPMZI3qdHFu83V/+OIlVt9r1J8LoPu3Qo/JMIXurdoaAUez7/u/3P75I7310GWrEqWwavIp3uS3D88wfmMNuhoHQUTL6LGWA3qELqw1vp2kGA1wryxiaYIgyYLLemKk/AQ1AployFpRHFuy29jeYjt1n5J8b47sOgqv+zWZTQI/JYcyLdsYOqGJh35C40Aj6+8a6OzSBDIpZ2ohUpapJmO6mPJnG7adqVftMu7CDWmoZ9ac+7ko0AztHdOK9oMRpc4+kTAGJrdUKZ6aW9hTsjHK9caV9tEM7CtXZ4Rqdnjamx9n5SYQ47DDWPZZUpUc71KQQcdhP0KnKH7TB/vif/FmM9bmpqrg9FqOzz2nHSDTVhIOxRo/N1nStiDIPKmNPOUvGxL4WBHdWz9JsTIh9DCB6H2JIPqsm3z8kOJwM8QbJ6HDQTD2vCgOITi4wDtOiZz1+7zxebvnoCQ2jRzkspC0UA62I9y697gOA9fyD0+TiwkbwFxjSt6/GaXQzDkJoh8jEIn1F1tv7JIIgUeWqApVUSqNWs5nqSOhQQaojwcWnIw1K2NgAtvcaABZgQlVnQTfd3qvN5CLJgmaFhHR4xxBEZIgglSxnzWeAnOdqQ0bQNErQdtNMqCER8Aipu6RXFTfozK4sGQPj1Nskwm6rlTrtVmiUPXXw5RIx0dl6UHd9IvcjpJ2/JaCB0zaetranqtI07PikjtLLDudcSi93oDs6DYWYlatkdQa91yptlV5Bl6BfJXqssbgHAbb6NeqRxs4WGHQQRhc/jG1xSSONh2jEnZy200c/eJoeP+uBOaQCBKzwjBJyF8XGAxz0xYCGyMLVeYyVx+V010eN0otM4hsbqJ0gMQCb087gVtj8DqaanNc9aaQPfnCZnr6P6kNkOzXOzA6xIPN8v45rSTx9dpY6SDepscV5mNws0+1r7apZ9MTwvGBcGL0Bpuz1qMZzPjsF8mk9jbrrMTtw7vFQbaox6JBpcDDWvZrvJgNSNB3GjuEbBAQMEltpsAbs0MWZ2qpmx/acAuZYra9GvAuAY2vKFKUy4PeTSoQzo7rRVPEe663dGwvYcU2FHWzk4al6nlEUA9/UxbrKI0GPrggpHHUGRGFVcp9GeQX1qETXVBBU0WmRbKq/vCSEqyUCmooLs6xjmQYlsx6sGihCMbZDukMnxU84F5TVaALehwDWWuxSCzumjkexRx3pITrsYD1jyj+MlbkNpMvT93rp+UdIjk4NxNNTZ3N1UUgwk/dEf6gimQOT7k64v8fnthRe4shUFC/SUAY4BkFdZxU+hl3n1LL3Adj5I6dYGcB1cBkcAo52u5lzqZBaTgqpcpOruty+HKXxLS55ZGNQHxPnAI+tV3UbZQ/JBTgi7AAT/a4h72ZYwzqbnXGCWjD92DVPjT85IF/YW3kFm2zY24MNnsYkZKxr532WTFvmnljuCrDYXscnZbl/w7vm/mi3HadTTR06bf+yi2ng+C31wUyYraaYKdXU891O2FbafWGXyVANaUFG+/OSngqCbBcaLFaSxmqMtFfJ5X0KiZAyFK/k1EN011PW5vQF+9Q+j6IANmNi0sJyBKidzSUTjOTbCeq1BkLnLsqISD9tNB7Y7/cfBlhtMYmXJfUu0Lnn6GeQruL3gY7JBTMQy+XKPnV65ZBgvfMu3oOAUo2gEiG4C5I4TUZ1Zm86pnF3Z2DnMcYjKki5NqdC1DzUQJFy08RIdczRV6gIqotH/bCxgCbt087j2YAmZnhDgDtFte4+UtGUaeNgo8NaDs7jBF1B8IiD2Uuojz3NHquXqlST6CHZ5FacBYyIB5fEbGIDmgfl8FZ4jNgkSg0BpsSwTsvNIi2RXr609bhWonOiYs0Y6TRTk87awX7UzpmvF6mCtPFVhE7Zc6Jw57SZuueNWIHn7L1+Onnaxdg+rGgNQFZoh4unZ7Ggm0Fgqh+MD1VPVXMuPhINGsbS5LRBoMVO231Zlh1JusWmdLPOSCHHQZVUSi61VLTdBwCw8E55gGXLxDpAc4KxADN3TLUvn0zs1O5ysFwPV2Gk+vRtIA8CbD+4ibdgNLsVDOtW6uO+NntKFR5EHQSBaqoO0RuNo0gP6Z51IEo7NbADVA9bDEUlWbw1lhobzjCXrPyMnvrDPrZVK9aZ8g1tDsaqdmyZTIu0W45pDywWedDU8bk8ZoeaAxRHeyTrCEN8BHGQuK79MAVUxbzDEY6Ib85w2aZQLVV7oWmRSg6OQ2QZ4bhkSDI6jNe5C0brYZWM8LvAnZa0vV/mCFROh9SS2KrCnam5gKaKJGqZ0YAUaqLe6z0YcNpI3YsWnRWNUHZctg49Uffn0BbJ3L9EEl8CtMs619RSrYODBe2dcudb5lwr9dH7J+mEayuoNFWdEiPGY+3D2EWOSOQwidJdS4O2QFE7NyIZ6ZXbGx4w9HM4z8i8M8odj1SFek562KZQe3ZeaBVOCCpaTzTWdQVk2pHSp2ZIBGJEpgkgM6yi3epKQar9B7Mptj//jL80xFN32CWbMjYT9tLNJr1+cZsGr4Zph6tbpoEtDPxHj9vp8r2zVAF0O7y3m6/G6YuffZFe/PyLWDhlayBRpiJhyv/mRWr9O0+S6cqTxRxG1WjgLtar18vU4DQZzmfPUDnXN6/So+ed9Du//wFGfp/jGtjYDeOjdPXpKHL7HVMz1ODkDuM1Qz9tlaovpBf2FKpFw32JJ+fYpWNnsqCIaQkae6/AC2mGissL8VbS5QWqCZDJJAOMMsDLnf8XK9rAZLMOfPVfpY0H13UEAZACODuF0kqJDwkgPnXFLDCobFp3LN8OeBUehgMEusFgbT2NZCPVJvbpTavmNmh8h5pGr/KsKTN69badBGPcyxfo6+4rr6STKi/SaegcQQs6rmpNTWTszzwwHQ6wl+qYJ+1+N2igM6K013BXUuYlnWqADlCh9qECbQdk/KO6UYapTKabRxAbR+v9Hzz+HoD94gtuysRWqsRqMHegdwty1dHasYBej+QOcXiHIet7G2PiKBrPN3os3szSjQHbX75JV19dBUO3uP3d/8GzdPF3P4ghlfF0gbRB7U6pHISXgSpTXWij1xrCN8Or1Dsrpx/9zlMM+fOQHBJufnuX3vxqmCavZ7G2lhkcvjxVx8FiDPjFC7V4jvG07GEdoeZXeK7z5Axoe2jYJxBPqaV0i6n7bILOAVtB1mkibVBNemj20MjcBIUmFbp0pzGkmou4dJE2be5DqtPZ2aFJSEZAKGrZ6JOc4LufqiOeqVSMPS6jFnKM6/UAla4a3fkcf3bUc02Hn26xM13paB3DO+eXJ2l2u0rXnw3T4noGH1zXo85t2KV0VPO2tENzZ4JPSKFY4mo6o3Ou4DWOkG3BjqvVkbRRM+vifqgiz/dTuijZYn0Ljul02FENGwkwY5raaM8+evSwirzDhikCaRHBZA8a4V25Ak0lXlblzu8qwEBEz0CtL8OcDJaxNGSMp02XqQRDjObZIyRG7w/66exfP6ExuM402CBhJCyW6fWI+DBgo+ISwl7oS51akUCHHIgIt9Okxq9m6fYFXuJwGgl7puMIrohJYYjH62OQKK7lFW9jpY5mFegBaXOFCoDbSrc8hpbzzGIDoTHpgWsFoHMd7ThmNMRaDcZ5OK5N1T1DDZ5iO57yzBOklrO/sE0DXDBCgIXesmh23Xz1VvEZ3Z9dUAmmfF22e8LWjZ1jluP92MIKNkEcqUmntPGsifYopTH2p+8xukMjqDWcoOEif9LE2USyMl7uj3o17BFZHLSRWoQtp2nj7/wqH80Q2gHNDcPIDyWTKU8unZ5nsFMe1Y9kTIWMAK1Ba+xSvco+dueDEmz9J6/jxlhP3vZzzIebuxXvGdRLQqY7FjUZbdKLLwfp00++TpM3o5jjaApEDWnXhEkueLKPMat1ml8v0tn/6DI9+ncRnQiB3a6K2oVppgMtELkAxPE359+ZBuLEVHuKL3Y4u2inYyploNashNEbg6H0TCQfbYkMDN9UVsZecaEPe7XDHwLNXumwyNhkSSSU4DLK72ByvAgBgGn32cYINaBisorQtgE82BIVuByBReoj8Q04njxtpXO86OMWIKihkU0BN6oJ0QqAZHSwycD4OPz2l/+VuHQaY2wCzvrHW0kE0wFcckhweH2+27/FCfGo5jhOX//sJo0+Haf9FC2Ac9PAJHDYLF5cyuWaKRGGQK36XAFjGruTQ3RODPCarMBXOhbeb8kcuQjTAqBtup2MESQ6Xs5iMhEz286qxzUA07s+6eI5Uh+zOy6ef88iwNP/10sqQS/A+FOvhtKgB1UoOPK7UCdOFb9Cinz266v0+edX6fr1IO1gfmTCqnroHW3UWZ3KO78uiIkqPP0fnqXzv3uG/UYPLzWoyC6WM1qMMRBptMy3h0WUH/1vay8e9yI3a2my4/U4OdjqKL8ei5TXYuEbBi/qCQYZj6k1y7EQSrcHMAHcdIxXya6HYwqN3pNDJao9gRArAbKFLaF6tocCWDMDzJqQpYJdteVCdK6M+PzHZ6n7GOfnIMUFBoV5ZRBedEjeiD/5k3PvAswMiTs7n0uUj6jbDgkfCYmqbS7xUtqvJskA80BmV1GKG9YaEusovQRgky9nqbRSre7C8I+F43AojpAudhqnpNlBnU0/GaOpoJXpSrUWDhC2oGtRzJw5RgevwR+zeREtsSr31XCIeYd9R1lmW7hmrTWRZkb/rVvLjAyPQ7saEtZqf2ebfzFI009v0/CT63TzC8DDPvjldRr/+jbNMKxHPx+mV398lT77Z1+lz//5i3T7yTDtb7lxCiOWGLbbWjrelrF3TM5zgBn1BdMKA1oaacsZrJO54fHY49mNSemltmmwksMUGBciMT9qdo2B7jKet/PIctD4jVX6/IdUlf4R9wl7UGmA6lWiQThjahqsSjsXANYOiTgR4BEUkWfGHgPSPDNUp24+nOYqVKbg42bqa4yqDuPal61URnr5hrhY49+ilDzxR0oKMJoryKIfv4WFnpgVVnqZDzZ9tUTtzzEjeFBcynnBlS8uiiv+5OPF5iEOOISmd1rv11MVkB6jRiuo7eYT6voUmj6tpd5zPNbn7ViAZluCHpo7zVKMQfbREieXPWzebgR4BbwLzeQhrKxhIBHVoX3UPYaS6HSC1HggVI35pa5NYkq49HzQBnvxf/nTNHs1xoBGJF5j4wzxNJAed9hYu+EqTV5iwH8xTIOXeCFjrP0djFCS0FMdG3P+o4OuvoGt4XgkBqA5VyVQ3fpxKzV/tx1OgpWNmShUFoFHBWEUjNdbUmbsAFC4g3yYq+8AtGtNaAPFm2FheLxsCyD6VhGPCRrfdBaryQA2ieAK0L4k3Ym5MR7P87LdB3gAUjgzAX44FV8zQ5VuTtUz/agwavUMlV6nqMfuU6RXxVgUN2W+5w7EjwMkojy3rO6y/PKvQDYEOMUwH36NBL+BvmgN448uzOeb6t5ulm+Zbrkcfxcb3YkOwG/MkugYSF0x4CB26wJJc46qa/G7ru0Gr1Tl0EZ7qob50Om79ioeMB3T2eLao5LEQKrDZH6XVzGsJY2NWQJAa3APMGilhM7T/HCW0ADnj75HRf5X/+N/jKhEJ6urZTw329MjW8D4E9JwhnQazdbpVsN3jTRx7DCEdUotQNVAXSBAUr9RS51wsbkHzyL923gp/04vVfGGYoC4guvrgsKjJarPAWDth2yT+EoYiS7/nB9oOo3BPSMDEXWHSUbBnXSg8eq7k2JmM1LLm+IfjY+cJcqVQ44vChwlkwa8jXeVxLst3LaTQBzvkXgGKQWYhu4STwtyp+ZJPT3+4Wl6/KN+auDdapfqXd1vh+8ZYFkCWf/4eThneYJihbd99dkoXf96kI6gdxUGP/krj1L7ST3AkG9kgwkuRnPPKr5H6Rz307Jc9mq70AFCWrty0Aw7EgT3n3ZT4wQw4FTloSKLw36ep3SNgDjawjNEb4wIsOvwHO984dU6vfryJoLW2h+l40oMd5l8yeOzqQRT7cBa+2ofbd8YLpLUaJYPfvSEmj2wRZ4QxIjlf3T1udkg3fGRkdwKjNykN6Mp4JpHWg4Ypg7s6JEV7paD25Ajnbda6YPT0/TeyWm67HbSo5MTKo+3g5qTEL6ncY6h7jt9lGg13CNtM2cG7ZdUmoYpnn2jmDn3utWSWIPccTeXIDKK7Pw/h41Oz3pRZ3uQq/pNAejA8l2YA6mlpxo2F4WYg2WbmpTjJGBVptQP2cN5BX5NRnJdDE5DOGnRv2yn8w/7qXaCK0dBAS72cOFjDxKyFef4mi/ht4DL/zwWUrSS5y1ESAJpnNVrrkeIDv+/U07suQS+H57pP1SHoCwZImEvNah7lXIEFufy9fylzq61WqrDnyfdeAe4q0FHGSGqvMYJKtXUP+nSeVGlANUlFszUcCVL1+IV9BanHLPsnFSqBMzZLjoCmi4PqsjJf/Em9T94kjpnp4jbcqzjdf7oInUAygS76RoDe6iRbNYE6lBpEAFSvBVfjuDLkOwNqPb0pOer62ibnketkbZPKml5Sv3wGuMdhtofty5HgC1lLAzQRSwVfT9xwu3tIA3Go7TAFtAuiClmMDomPHSa4S3GpFukZGSjnvYzU2h4YU+5UIgpweZI+QJV52s64UIp6eCxdZeZGsFQKjzGuqoXANhDzcBY4WEZmX/0w7N09gHut1Pugu8+J9Mttjh22OIEDM8fGXzy73BF5PAbAoCOZmkoGdqRTQvhCiOfPxm0tIgvfr1Xt4fyBUc+QZkKA9pjZu8RtmG1BW/u5wAfLooPOrBhFOiRX5+s1ENG6/ULFuuJRPclFBr9Bodthx1ah8Dy7KAufxCztPjuOOkp9D+76MfLSx1XfXgs8rN9OvnoIrW5wAiuK7/EK00A0tc3t+lqhC0EGFyYo9vwfYbYWXgsZjP45g0HUkX90R6vCJulrBo53kWMxPVZX+4nkW81uV2kkblXo0VMWHDNKUMHG7zX2XyWrm9v08TBcPS5gVA9SbMGtDPyxAKcCQUP5SuuDfYtUaXSL1aekQDU2fVerZsEMhOEjgWBVDnYC4DNex2Yd0UcmV9kLGh7RVyO6zd3AOy0kc4/OEntc/VX+NaZyfy3F2fe+Yed+/h72N/9lgHjpw6O46GxgBsdVsZqpPv6vACIdxzK9/vhQN7d4qE2ho/iAv9Dk2PA5TpkeQ17z3H5/XVx4+E4z1FlYvaoVqV/JC/aPIBvOMccL9fEzbVHPSJ1HVx36CgG0SGQ0s+YHyzgudkW7J/2HlaRYRAiXg2i1ulNzY4Lzu1jATknP0RuEgR2obhTVF+/3YmHNuuufaoIzQv7zmDeGDUaOUZIBntaDK5OsLVQgWt21xc7OraL0Uhu0tt0BR1frD7HE3GqWayUozps4/0ogilfwtw3jIbqLDg8sVvqdAQiULWIQkBzRMGx6g91pzh6uBK3HEZ7LIgLKAVut9lKjSoGLtfoBZnl6hhczPcDcGCVjUpygaSWTcWeiR/ciy3zMjMy/nIgVDP1Le6MpcHxditNOnHLMVlsGOxFg7xRFv/DgYj7/Z2PFU8NySVqDpccxE5IP52EPERVXH3Y+JJ/+09i7ACjnuRxODCSzmUAFmoo46AUr82rge8IxgZaufiNtI3ZTtDVXebt6bwOxSnxZoaEAOWDABsNb5AwQy6Yh7vv6/aMoxjvcH14sJaqSgwJToPWd6B8maO7rlWgmNXDWwAwF/3NsS0X0wC0qKtWH7sJXe7u4mfuDSSk69of0wX0BrXtEC2hCnu9dthbxqpy2g114RqzRCW67/w2p8rs1QjWOvZpNBsirZWAuM0ufhLpz9RfANkW6wmeY3hjQUfIEgX3HIJZ7xngMx9OA996GVyOV9XwnILv727fOKY9k78Ek+5/Hb7nT75BP0MchlSMLxl3zCsHfvO+YhOc34R2sectymWXLn7aFd7d4krP+Z1TSjHttDIOca2NxNdBYjMgGxkWqAjnnxqMlY8xIuOMLCejQCPNDD1NV5E0SC0P5pNlDGMp+R4E2ORmjCeCzuV7Dfe1dlZPVXO1QXisCIPqUf2YqXk9vkkvBld8DpA+ilcaRUVC/dCKeHWLJSFSkaup/6SXHv/gPLXOTWehTMvHTjBe5etXFOmx4rHPAIzdDsY8QDQ2pgjOqSMQB8Z4XbyGmHLlrsBQGt2n7CKmVTFKOUHlMe2YTBBcbl171QCAfPX6OlbBNjnQ2VJGR5YA0EX0ZgBMN9jcLTMFnAMofrINVGxZJiihgo1+xOZ3f2SGxx5H829Jo7QRYL6GRalsANiOIhDutyjPY8XXd4AWyKaBbPmO+zOxvX0mW1Fk8akqp8+WkGLaa82u/FBjIRAgmilYbe1XbC+luB27mONgJ41YGJ9G+p3/kD12vh/2BwHmbOMyYqrSxn46xeZhr3QrqY194LQm9atemflhN6NxGkxcM2EXHoXjWKoRmVmvIJFAf8X79Fje76XOk2ZqnVVTHcD6fkiHMgwrmBJjLr0Ndlct6sFoR+gg2LuddOriG/GaEiSbyYmxRBANN13EhDcbKUDML/clpc7YrlZcUyH3QAkSIwWiH+l1F9IdKUzHMH9syD6LAK4mwV0a00snZiOUt0hfUQr4FHvYTVmNHZhZcNND+Q97Zqv/gr1cKyi1/zwfjKeT+K5wmWt8Sg9MuzdsRKWtt1lubPxWX92D2E+3b36GGnbn+e75+Ls7zeDh1jx2PVBMIgfqKz3s2x6eLTTeh6rFsO80wqM05cnNuGEADZC5W2bEHDkuXbOjAEaRfg8C7MhUkw7SpIe72S2nfZ3GUnbrpJYeP+vjrWn8yxjsBZimoWemqAbzaDqMMa4KNWvXW+nk4iz13z9JF799mXofOW7ndSAbOtUlKO50pLQYDgG4en3uuu56JC72q/eoXjYFxleZ9M866fRSjxEHw5nXIEXxbEjD5L8YLNcLRK058VT7LM/WORA0iM5PiBTJcaArVk/ku/afkli3264ddwhWenX3HHvzsheL5ilBcylsgkZJEBKH6wM4kt3vgokf94x2O3yP/1wFLRu0q3GCpujR0QCbgeL765To7veAys/JH1FC/M5/46l8s3DOeU9xm1tUTIq5C4pcjlJMU9hFnyudo1TrlFMDAVODX5Umn2iXmPzMtUqsiO7z6dispDKWphA1CD5HC0TGCRc/CLDWox5SC1dUd1nbK+GducwPhDqDwB9/dJkeP+6kOg/Wi3OSp5DVYB7PXFl6lZArqYfB7BTyMj2gfookOa2GFHHC59qJrpwz5KC7bKV9m+sQ228xm/F7E+8Vcs0xlwlSZJuOHCso8rneOH9SgLPj8kSk/c7QiYPk9Eio5p6JrDpUhDt5VBXKb6SQRLLeAiNcbSUHz5Ewin/vifMQ0Gvs1S0keBBbQsk4zx0+C15m6LnL9PwvuOgZL+KzOBIbYFWCNPpmR9RSqQk9InbFdVF/C86lvt2KZ/hBSfH1vkS2DLO3x/NuKcWhuBoEeLufhjMqdcAFsFqnqMaLWupcNKmXI/lIJuibVSLSSxuNDmmMUMmloMnSC+jyACwctu+Jg6Wv5vGihCNE4utXi/TTP32dfvXnb9KbV7fxgC4M7zWbeF7GQJQU5VhzvVVrpvIe6cPeotINPJRUQrWg6upIG9Nbbvbz9GY5RvztIyhnpTS+fY3M4Hoci3Wox2PKGlJMPZ4X4IUQNoSaqwJ9A4WTUqyP0sNGRa+BbBFbgmIxl1B1qDEPQZwLGeOXlsmxrcThfiWM8RyfEkTnm2o0XnZAwQaajaXFS9aV7oYQUAkHTZfviT9Ugs98jH/Fd77EaTbZmyWdx/Of/ClXLJdPd8tGagVMuCBDku9e+q3v+ZxHoqDDd7f8PT8u0ygfdyvuerupVUKtCjbtQjRLTBGkMg6zja7GyWW2XIs2zA0LzIVHufJHXhSp2/1TtM9DACu9Wca7tK9eL9NP/+hF+uxfXqXV9S7dXk3TEJvLQKQR3bPTTjq76KZLpNqzy9NUg7HmIYEQvF9TQfTCFkg/gEZlXTNrcDxPt3fTmJ1iOoijBqsV0g+A+Spk03gVuUVmgqP3TphVTfoKZ41OG+xMGMfSVMcy25iYjY6pZzS0mFKl0RzgAlgCN1xtpFekrQDUGG6hPdo99kwKCfWojeEu353X2TAvDHA7/1A1nMGQ42SZrxJb6r1VC9I+9vhXbMV1efOrzw8GAfAIS9j0AFhcwmaJhx8yla0AqeLnLVTyp1dEifnSOGyx39y8y+vZOVfcGfWNtoEDgO64pmp0Olym4atRzH/wWloOCXL7/V1IZoWNnVV7vHvSvqfFNzZ70Wqa0i9/8jp99iev0t3rbWousXVGd7FC9JdfXsW4nznmH/72efrRjy/S2aMGYh0bZoME2s2DUL6oYT7bphdfXadf/ezL9NUnL9ICI9peEavvyWAkmLlJsiVm6lBBo8LaRL76eA/jK65lddJMPWwvjf2Iwxllx9B2bGwwGgHCVUzOMJXG6LTSSaPfZQKy8Z/jOkpMgZRVoKo1i3dX9lPSafBHJLv4B92cGV0xDWm8S3Nf2vBiliZv6AwT3fTMuYLf+ePww417i81v75w5bIcjxUn2t8ByywyME++ARH7Gfvj98Kbcd1Nu8u8bN7zzEL8Wx/3ObkLkEc6H6WB+95+GfHQCOpnT5pzJFSMeXO/S7TGLnNt9Ryi9E3pq5T2wra7n6eqTSfrsz16mBYRs7ZFMqKQqOrePdbVdYFRTwJFpMc2U5nez9LMvPk+/+OrL9GZ0m0xsM+223e6j5vILoK4+v0mf/ekXaTGex+i9tptvvlBy6AUahohpV6hFQbWFs76Ys4HN8+Sji1jB0FcTmxQ3GA4iLURPVlXnAi3j8YhnlWIhOddhiKxKgaM6RGLlYRmAreQEgLFKDXsQAFA5DT8mpAZPYKrn7Z0SLxgAwR0Pn9H5Btt4aYPDXMbbjHoHGL212Ljxnpd+Yc8f/vXK4up8QiD7TJ9XeH75b/5TyKl3n5Px4vG46n57p+Q4f4+rw4koR+AfbvMjnNMoybP3d4bEd5TFl1c4EmNcTNUoTXxXgStVxvxM7hBgrq/hsJf5YRFH4/h3tulnk3T1C4ByhXnv65O52Nk9VQp1VekaiK5RqFPX58NN+urTUfr1L18jRhcwsJJ6rXak5+BjYDQ24VkluWrh6MUIJm1TB6A4AKuu18APna8HWa1g7OJB8R2EcL/pK7X06Fk3tTqltFy7dCNSY6cUy2qMC/lNPahjuMeAxAVCzFT1vY6ue2V0vtdsJSd+NAGfw0e+A6mYwKohbW8LFRnc4LfeEXvYQUpEwOrEEt+9aD78GunlYH0GJmzhtgMuMkhh4Fso5MN5+ybJi1tkZoA50OyW7yhUYSQdxjc3jxV7vjdOvrPbjOL82082Kvn2X768+BsVCInLDlOMY0+GvkZ7Bt/Lqd/pYIrglUOP6Ag8JJaU4g7paMukvzSJt4HAhwcBtsWw37yZpGOYhlWHUT3nzhxa8M1pzm+sYuxtkXTXv7pKLz65SriYqdfoph89eT+9d34ZGQ8rxObQPHj8X0NH1TJG/da36S6DOa4k40umTK/Vg5zigS7WSCY5BYi7SLpup5Z22HRvXlyn11/f0qDjGLiO7A7A3On2Uv/kPDnzOCaDup4EHuqeXnSEmqxCrCZyvqmUhColOog2dIxTCjIk2z0T/Rfg0v7K9pnT12KuAKDnSFrh3Qo0J6e6PkecgxlKsQgyQ2Alpyoi1H9gVm74DMkNcwQfl3jkLQhlsns+WuwhVbg3140yM3rZPc01lh2gcMtl5LNFGcXfw1Y85u0H29v7QwV6hkPaXr6jQHOmjYniOGnMh1UA0GZHXHS4DFfQ1Cz8uTcH4hEYB9B9Z5u/Gqf17RgHEKohhdauZkgh5mI55FLC7tgDktFXt+n1r2/S5Aq7Cs+xhwg9R1L0TJttYA+hJk2RUXer8toYfb565CWgNGVncrtKt2/G6QbvcYKR71QubSsNy3oTzxT16CDr8HoSgOy3ndlcj3QgbS6T3jpKJvZqCfW6K6fGUT2VIErkmrtLAEA7n05inMxZ29oUZnvYzWWdIr6Y8KFUVHLZK/PiIYZisAvLqG6+O2nWN7xJaL2q21fzeGmrk0LMydLLinRz7T0kaswBEGxQP2SaoOB5gQueXzAzgOZv9nwyqhObTKdkLrK2fPN0IYn47q3f2LzXcvzi//gaN/El75bz9sb8K7boCOxca+dyxn7vvBlvezE744gOFdqFQn3/lMHolSYGv3V6tKNNMXf9jFhdPJf6zW09mKbKcpNaPMxeTp+jkhS0cnFf0Mq5wZtRevPlNcbuOO0BjWMrkdUIIF0kwzpq4zhmaQOcft85cdmflGa3SIEJFVQw3mkrGWLYoOogZDTQBmtfbWNiqNKigoRyLLKK2jN42gJUrvCiyI50XcqYY/BvkF6O8vtyLaWovcgxS4N/SzzPcK19Qv4IAlhPl/8slhXI7wbXlqvQW/NEVZeNMkfO3Z4akyG2x/E6wBefXKevf/kmOavcsVqZo1MR68fjJRcD/cFj/sVGOdKoYLXb4Ux8etQ6Fob5OxDwYOxx7/35wx7f/UbZ+SN+52OezJ+5tMN18dfPwz/rZWVpaHaADmu3zTBDjD1yjaJnw7cN5blEqXa3N2qjhXbhvJh5EGB3MKkOx/ow1PcQuSyQoDFc4BDKGKa/uZmlm5tpjKyXQz04X3Cdxi4QjLpzfTFfeex7DjXgHz85TxcfnMbs70rJNVFdwATwUiEboeSwuQIsQgfULM8Spv9uS6jQVSxqu5qvIkfe182Yr6VENZXat6sNULdXN4B+OuLeVbYHqJeSkQ+eAZmDwBICMGmDsdsHZJY+Uo3fbYDZriuF66l32k39i37quBibw2R0FDFkQDFeoTLZpjEmxctfDdPXv7pJt69NbdF+sx2yriBxZmyxycgCZB7PLLeD+hnQOVyd65u3fC5LIrYDuOKPn34cAJT3vBV3eyx3D5+XP/OWy41f3F+UodR1vup8Co3HixQvhECzuEu0eCm9+zdUZdYA8Y5LhAYdIEr7xvaz//4/otfi/cFYU6KvptNY0NdCrEqL3t2DCXUNdYDnYv8jCO4YYbwwnQe4TgOyDOuvnHoXvfThbz1KH/zoIn16fJM+WVyFlBm7nhT2lyu4aLTHOyopz7Xi8wK9SCIHWWHEEM/RRewuTs8DHDJYUJuvlBPilppt2F14pnzpNDo8usZ1OWgajaTy8lQiZhsIMksgxbx2FYQyz8xZMRFA7tTTxXunkWi4L0lAygljg/skpqD1Xp2g5QLHZZfaZ410/hRAXuRXrhiw9PV6Th0LN99nR0WskLWKmvEBEP3K8Xzk3XNRae6Nmw7b4XxxyeEzruNfXBmNjS+HT9udz8Zatx7nmsKjtP12dtVvaK0NkniyS4vBGmdunRamsNPeGSbR+NUIusM3+RAPz+nWTtJRgpnR8vSHTx4G2Gf/7v8Vb66bXo5m6cubQXoNEFyyfENFnIh01milC9RTGQht0HPaK1sKb7Y7VLiSJotZpPC4wInR3Pd+cJae/OAi9R6305+NP08/HXwVUujmZkivcOaRIhZxSwPNv3IAOA9sm9LcSKPhOKa5u7bE5QUAgygTJ9zONzEsZQwr1CuANvfLZS07jXZMdZeImpohGf1Hc8M75FOQKdWcQR6vR+a4dkOT3QH41kUnvf/7T1P7aT2GSsKWCu1PRzAtCHtLYM8BecxyQppSAUyBZjp73geYqG9dbx8EfrRRZKRb8N7j1DkOBZMzw70oy5MMBjnkpcqcYvMqT+R7iz+5jQXaoqj7L7ncfM7r+H04L02KEY8Y9uGfNMYypTm0FS3i2h+2GWMlXf3qNr36+SvMJGx1pBRsi3ssNcalwYKe5PMfPbPZ393qnfO0rTTSqzkAG4/SLfbLjFJ8jcEWmyYW+qC3at+oYhxG8e38vXY7jm/5Z0Jfrw0Qz1ydxrfDIqmQhLHwCBJmvlmCRalOtdgls+BSx2twK0H0YlxL1WbFSovUydReXWd7k7lHscQAoNqowhXN1k+DXLtJY9qIB06Dyy/RsdggBW0RkE5QkDhBdCSZtlhksUp5j3vyGInYQDr39qlxegToqMujUuo+raazD5vp8W+fpPd/7yJ9+Feepvd/93G6fB8z4NS3kvFce14Ub/n5u7wOvoqYOM4vd4/GiQx8j5npGtv97XHinf1QDP+iGXHELQ7ef/UamR8/pTf/rIcnwzwBWDG2iI262Zo0AB8wh1x7wnesOzWveY7T9ahG+/MYZbPXRAhkM8dqBv8oUZvMXaNfR+BBgGGbpl+9eZ2+HA7TGISurRs1MqakAew8w9V2gfewQAUepU6/l84vL9MGvXy7Qu3htW32W66Zp+vRVfr6xVW8TH3wcoBn5+tf8Er6rbxijuk4QR6EBJ6H75PudBqp1++ki8vTeGvY2Xk/nfS78WylxBKDU7Xk4LV2QX6tC2ABUC4bUOvg5fG5g8Eao4LWOZGFKC+kgsSVNJLcOI6rBjqEJdAEnNJRT9G38ko9c/9NrRF0uNKAd00nWadK8w5pdZROnjbT5Qf9dOpMnh4eFOrRrAuBowQN4MhYj/HM/OPd3a04V+xvv2WQHI7xEb8oNB93O5w/FJfP00KuuQegfwQZx+I8f0J6qfJp87u75oN00IPSJj4u+YkZYeaHy1PVcbIiW4WTlHnQIdBcVy/T/kGAffH6Jn32GmMZFWTwX+K4xhT9MmJI1toxwhlo3yhtsHfGAOc1Bv4tKgOJ6pyNNMVZuLodpzevR+n65QiP09fFbSJz0lfLdF1u/NThH55BQ5xo28cJ6PUAX6eanj8/T8+eXsTLOhUGPvtYqaK9xm4qs8sLyDknp7Ro9Nnjs/To+aPUAMSC39hVrCYIEIPqNFnxL6VjbQbKk98OedRLjjcawcfwZ1dljG8XaYjhvpziPaEu7tkpWtylIITX0zmu7VKF3u7rbcxSjUrHI/kTlOb6YJolHO7nVIDP04dN1guJ2Lk+d8B89F2QxWZbvN8C3i2kAJB/i1vitsOFITXdcrlx6lBAgC7Os1P3qF+cUvLtU9uVJk+bsV5Is+Ziw8YC6Xzs3ibNzeU0MeFBgH09vE0jpAQigd6M1XWE4ealPDmjGgDR+7fIxt2+koaLbfoKe+p6PIeZpVQpN+ntDa51gkYvrVfHaYAUGDhzeWXiHpXBpjG/q91rx/ihE0uMnXRaSLcOvQPAmBJ1TO/ylcd3GI2uOxqdX8mTdVvEoxxecoGTCwfdXc/1o8t08eQ0XidnY5Vw7plAPBsbwei8Eky7ShwIrjBQ6Y1KsHC1abdrX8wGq7T0/d4ILpGS2UzlguiUKjNj5xlU0IFiySVTXMvDDh4/uCY7+DYiGnL/PbOY3Y/87bub3GOnGH8cdjcB6j+/FseLc258zzcdtlzx4p4YsLa9CIsYwJbf0EhnKmyxqH8uUbDXGtjG2JfNvi/9gm5IfkM8XqY5ECtEihPu8dh3trGRcM67iqCJZJmgis2IJnIMcJQNpOEpHTcis9XVoQ286ZE0qgIklpmBcV3o2MBb3KXXL2dpiQvvFDOZYC6YrySJ9+3guSk9zNTwRQE+avBqkAavB2mJpxlrgm7o0eyCS8IYUXYtBBci7voyeXrW6RnPbmArATjfcSgACza6ZdLym4Nh3IaEMNiKJObZGQsAGWL7otNaqRqB21jOKu7x7rdyJO9FqYfP4idbAJrfHsqHDyehU77XOhQl5S1/K+54e+e73+Nvcfid8xkyec/MpbR7cHE8Ln37LMFjWx2qixUbBUvFZAR+c8xz0Tm8xaK8HzvbRfKaZ657gbdfPQ7HynCPFwku/9m2BwGGRgkUxyzfKNFLUQEUbOqKtnkb0djFU2sKDCoUKRoBdRimmOE6h0wcaN5uSgAL++wWuwmAGe2NlBAud8DbaWLm+ht51+6JaPjSd+RM0uR2FpMs4mWmfOYFTzK4HNh2MoiTQsyk0JA3ZXs6HOH5rKM+QQ/aUAxbSGuj+xFhP0g1D3qdLA+1xIWmC+loWGYVoJreHe3y+sOWDeZ3tow+tqD0YStY7nP8+44E9EFxC3+89/5+t3xXsRXQyYf5k//f72832+yej2b25bJDAMbRd57HBUqvvB5HBpd7zK0ENPLp3c0yfB+CE3zbF428PgeaSCkYu+VFO9kpX5p/ZzN67wRVJVUsfWnYgCubQLTF3uDBDYjvEpq+81EdYw65EkBGOl45X86iic7I8aXrSiTXmHDuo0a6KcxzvAmzIgSl6Dd+5kvGI82D8hw49xPBiDsM+DToqbQEcQESXzHsmz30YmNpyKO8PLoRdVNpXLPVYK1lKI0V4j4jp3rnmJ4Elih5cWOATVsdcK8iASuuEdGkTXjBzjM0fSUS8jL5glkSnL9RloTNhWY2ZiZ7Zd6KO99uxXVRUnzPW3Fn3otzGdDsftKmojxr8u7dAaS4xnL4h7CQP2+fzLeDVLPOsQsOTYTY/Q7DLQe6RKfjH5eFdDIeqI3ZxFt27YtSqxrBZy+ICAAaiBLCknkQYE+aldTDAKohsVoYsCeosnO8sjNnT7ccbHa2N8woLdNoPU5fD64AwDKdOnxTaYSdpbenAb1Yz9NwPsDjm4FDfo8XYfAvRr6ubocEbAEQbDaZClCabVQcEiMWsEUqOg/SCLHDPFoveoLKnaIxsRaFwd19KY2H8/TVZ6/S8HqWF4pDGioVwyuEQJHi66g7BUh4gRVDRABWcm+RUBvaW+6X0tnH/fTkxxfp0e+epbP3O3hO5qll5gVzMBWUAPHVf5QTAOO7hXnM//7IIPBr/D1sb797vrjP3V/5qy21sof74zffDte93eJBbMUJfh/qEjLk8D3/LTav4YPL43j8yffef72v7+HadzdotXfNehwbF1nZAyoB6uTn6OzQ1EIfDLT+s//uf5wmSIzJxhAFaEUntvDqenhm2jhNjGfVxxJV9uZ2md5cL1JpW05NY2e3o3Q1msawkkbvAk9vuV2mLqr0WaOfWv/NRjr+A8Bkr6KnoCHTYrKN9bFsw8lZJ8IYw+EkTSeb9OLF63h7qqP69gxrK+E17OPlnSct6tPES9zlF5DiydZpZKvZRh1vYk2xmure++hSEQMzxgNoJb+GfYPrNfZtq5Ncnv7ek/TRX38PKcY9x7QDCW2HPqDpsNurMzCDOd/YCkDIo/wtX+P34sy73zhpd/e+uDBfF4+JU/wpLvagG7/v7z98uX+G/z0WBXjM+/NFwv3wJbaYvQQ93YVWSCxwrJEfVx/uy833vDDHYILes8EuXX86Sy//4jrNB0vBFOaPgx1TNNOTj75n8ZMuOrXfLKUeBvj7T0/T7//VD9Jv/7Vn6eO/+iw9+d0n6eJ3z9PJb5+ky98/Tz/6bzxPP/6b76WzxxWAiK1EK30J1hjVeLucp6ljglS20+2mbv8kSxuIGd4aXLMdAB6dTxPR7c5LHI2naTSapclsEStF77mghmfZOmnH+v2ujaC0E6CqZ5eP7OI2Xz4+Sx0lYKMRUWejyS5eEiENYz2oxSAXdSwkTniMHFIyrukM8WKteBcQqttZz2Z1Rvwnq4gMMiXJgUcQXWwEI+RMHH13d5OtnoM1XFfscitfkYGlJ+o1eTugg58yzufGP55RMP2bWz7vf8uN35bv93evf+drblBxwO/5U7rk53j2cDyKOTzDHQllgNZ3Jh3vceYQIMFPzrbQPOfdTjppI0zi5m9tO466+rFrVT364FF673efpUc/OE0n73dT/UkrVTTsLtup9rideh910/Pfv0gf/c0PUvtJJ+3QzZjpycWc1Mv2EJf+2W1LaTDxXUQbKkSviXrCXBCWX/ReTs6tvBmM0gtfuIWtVsaR6J2dptOLs9Q76UWcq44x79xIFxx2V0U68daxS99n5LuMdC5M83Hpp2MrYahDycUu4bRbDazq+Zh0qJ9ZvGJGgI3eDNPrz9+kMU5GrIjI/W95dP8lb7Yx/hz2giEBFIAJMOIot2XmFFv+XowDxvf73QMe91c+Vmz3DI/N69gD9N84km+9v9Qjh41jcSo+3x4PbHNT/HvnXj88JRnjaoHOBdFBwYmGfWS0wAfb5yC3WkLa1tF8DwJsQbEljNyz987T6XtnqX7STNUuCMX2OmqVsfaRHk7dQsIdNY9TDXf14uPHqfvoJN2VkRJ73NhDLhUY4DvW12afrnxtHtIpSxOqyw5PqZYG4XFaKXYB1tyJHzRIW8xo/vkZ4OJ7GJ/U2BCHDlhkwXJAp8B1KXw5ADiJjIud8TYIpiccRLL3iRKeaaPNmjC4qgRTXQbAAJ8R//Fwml599ia9/NU1nqxeLPVFIkbkP6jsduDA/Sa7imNe5J5B5nZ/2/327rUPbEqQ+He4Iv4cAOBXDnynBoeispotdrdcSj797bvYDvd9Z4tL83OiH8TvDK7smWsDY35gg2kyyRzt5RhuwpFyexBgqdlIjYs+4DqNuXqQnYMwUn0dD+Kh7jxc5rouge9Y9PdutzBBGucAL7MMuvE0G8a7kDKm/MwWTjebI01sFcxVsmj/4CEacd+DHl9ybuW3m0V4qg1z/2PVYEMUSCDAkcMOpnNv0vhmkq6+vkmvvsAW8F3XAAIZl4d+wt3OwBRMNtj8ceNt+jrWf44DEeBSRVJHJ4+aEHn9+TCWttzOARjeqBNGCsl7oLY/8u6J+J9/F2fjp3/kftzGH3aZ9K2LDn/d8rV+RgDXE1G+u4CNA4c9b6FG3/mdNwvJx+LvoYz4KI55DXX5Jlz9frjX0/e/vOMAcL7awauYJ641lt8JUA0PX00g0LQdHwRYB7ur98EZBu8Rqs5Umm1Ihjt78oobD8R2teK1uUJX4zT88jo+MWRgpDGzuxincsUdY0rIB6SOwzb5DV6qIrNXi6XLY7zQ50QjEqppmyajCfbQPGJfxqwUyep5ZZI2nJmjs5HzKWex52lvaxpvrC6rv5ipFIBkh5BmsuZsVt1tAMXutDrzmnb8c3Kp0izSnTc8ZwNUVzCAZzlmV8iPoHDxGeDJu0cLZnlt/sbRfOJbd/NL5sbBfMQS8jc2j/MjjglIf7z7LG/3In5GFkRoBQAYIPScNTmAh1P5T763kKxvy8s/H9p8jndEMYfr/CzR8Z2U63smXWMkvH9AZpsixnjQFt/ZHv/4eep8fJpqF81UbjrORIGAykzWParH73tXSVoAGNdsfTFIL3/5Vbr58lU6overg2WScUmDo06evXYJ7OUi4k2uwjNGVZpLZPwlr9DiPMZsmC+Mj/lamNtpun51kwa35oK5essd0sWlhRZpOlik8WCOMzDHMXCNr0pqNpsR3nBtMCutxMzZtZBYwkB4e7qMMJYjoM3CkAHBLKihpHOL8w6sT31D7zqchTgnLWLPDI6dw/yKf3mTqYfjnPeeeH7c7CdbcZLPwyWHu9ziZP7qFvf6WVyVP8Or45sSSX4WdiZVz2ALUeXuR253/LAM7/UY+1t8FQ96d3vbrqK7uKnBdM4aXWzfx53Uu2zgaKH5Os5dRdOZAxda5oHNRUpKeGVljGpnZUcEG0YcAQgonz+xqVzwfzNaxTS3FQbxfjZPbeRLmQq5qrNi0uWPfAuH623FGqDaYxhYgsJXscTbQ5SG7BHoo9YmAMbq1IsNUmwRk0RcGE3w+SLz9cxzroAMJVWpSMpYlFZvD1PAKL9gMSioLaCkKhLjwnMEKUpNpYL9OAgRxwwyOhqAfclvY283QyQzUpSbkMQo1wONM8mlS0H4d3e3/P3A39iLM3l759fhmnzh2zLi2wFU99cXhcV1fmaQ+E/8BK4AWfYC3Q83FNfF1/zdMsLJKLb4+s7v++e+e8wn5U1au9RAo1dObezweFturHMG/Tmpg/cgwPYY6ioMbS6Hgu+ZwG98NyrFbZpDMNslxo9X+8i0cOZOn8J7MMi4k68oWaESDQ9gSqUTV8TBY7SClhRurhNijZnxT/WnR2KEvoYdWOJaTqGeJYTPLQjCJ2DQsDSK36ATOLwRg9oAKcAUPTnbAtp22liO8Puk8IgOAAsiRFk+t5E6uNe+OrjVcynLVnK6wTVG/whV7MLIkaMVVeBeynJ/h+Rvd667T5mO0/4prmMrLo3N6/OBOHT4/vaO+wvzdiimeHJ88sW7DyXwW66xBUDflpSB9a7Uciu+vb3u7TE/i704lzdIGOGlSgOvsXOcqk3oSOd2sRkfoy32IMBUT9ObOfaNwzwavTDZ5Koj58Q5UwTz2PoDkGOEWaOMmGy1U7/TTP16NZ3XG6lvzj2XCCS9yD6geXZyls46XewuJA6Swu4Wb5AFZL4IS2mjQW6owRcomGcmyARTZEBQnjLHa1yZJ9YUA2CxXCbSxYkYPs8tEgrZjcu5eJzu7B333YMscyRA5i64fVmWXuvzHzxOH/z4WXrvd56ny/ef0EsbqGglrsNYgsqaHIgNp95CQQkZRw9brrG7DI1r7s8X9+QtDr9779tTh6048BZEeSuOf+uGdyvid3al4f298cE9HMuYO8DV4/nyb23fKv+waTao4QxPjCdTzBdfrgXdudzO/SDAhl9NsKdG6frFKA2dXjbZ4vmp9gwnCC6kEFJFgBlPatrz6fV9AOFMnw6GXsvg6DF2UaWReg0Y1+ml855Zr53UdM0wGOrYj/aXMSun98fMov0WdXccg9cu8mvMy1Rjm5el0jZVEYfNRiVSfAqDXSYLWocq7L0R8+IePR1X6HNNizuowSPzJAUoYMqRNqHHTLBTgl08O03Pfus8Pf/xeXrvdy/Sh7/9JD167wxbow4hMyMKPuTNb4LMbz4x7/7NW3Eu/y3OW+fgbLEFAovfh2vfOV1snvHvfakCPPb7k/GpZI6DhxOhauGVmiiAlg+z8RA+4+nv1icfiX/FVnx72868IahifVeH6kwfd2JQpHMBtAcBNvhsmG4+H6TrL5wlg4d4i6fGzcao1niSGve+zs9p4qopl79s9lup7oRYwKWEUCX51tNevZUuuv102u5RM6QWT/SlnqraeKvaEk+OPRaIo6J6jA5Eiz9fYKUKtJc4vKPqs3cohmPMi4vuuH6BjWdu/BZ7zywJx0W1v7SZYrGUQyujV7ELLt9tFCATYOwa+74AwVfDtC+rqdbl2Sf71DpH+j5qppNHdIxejfLeMjeT+p5TefsGaBTz/vY6K1Fc57Fif7sFOwvAxJHv/o27Aoxvt8BOAR527ckA1D2K/I4pEMBi91+cz2VZmsf8G9Vn9/MbT0FtF7UKmynOZ00g31yp+mgPr1yxjraGkwS/DqT/5nb71RDPcMw+TdPXizS5WeDJTcPgXk7w5lzEd7bEk9R7O06VNhYYO45lWlDwjIKXMM8Jq65Bf9LrxgrRrhhtzMngnPMHVzPHCn2BeQlJV4/xSVfF8QUMGvU2ulmjbFTsNsYPAQ2q0gaE7cT1CgLHHH0PkdPWhqMxXuvBoIfY0mK5cTa29wMmDggyRyJNsaYB4J4yqesxatdV/vJKhhhfxt4c1GbXgUADU6Zkt1RId7AL43tB/MNWLL30raOZazLHrzD5YG4d/mR2ZJYf7j0wNr675YPs1iGf0VcTMAIogCaI3A/leUu+37IsMj+h2IqyvSOXm6X//Z2BNu6Bp3H8cEO+3jbI66PQIC7QrK0ea4XJr3zpN7fxECAMN2k9Smk9vkur8SotBthjtxxnXwymAAzPylAEADuqOlewHEmHsToND9Ab6wCu/kkzXV520tl5J6LvurHnj/vYNaLctVR9VS/X1usxF1ErajHFBnQRWfbpaJJ2ANmMSUcHtPewtiKs4TzMeP8Qz1Q65V6qJ+paX8XUdiQu54MQ8Y9GQ5foGEjbRrsZ+eXt0xYeMw5JaR1MF8Duxu7ucLljRUMZo/TwPCVlRn97y8ezBJD4/Dzc81aKCUzDvNqV/n63pLjQEuJfPgvTc4GHPV9zvx/qaofiS4ArF+NJz7+zxx+uPdQl2kH98i1RYy/ik60o//AR5RbH+B7Six5eTMnb3ilisKMpWjvZT5/ynU1VaD7+cr5PyykSaezKwezDdVoCvvV0hnpbwiiYhYrcQyxf4mSczEkTLjyS02D2eHildHIKA11JGluo2Smjhuqp77t+zloY3/sYSzR5UKDFSi26uBDRKLt7vJUjiIHxiDzWoPStYAEu6rungY6FNdut1OQ5usnqVbRlqFWpZZ6TPcseXtZJ4Fk9VPvjy5P0+OlJOnvUjWUyBYH2pZIxE9c//DiAq6Bv0Dj2t0x5dwtmxBVcy+ni+rd3Z0nxza0AoNuh9EM5+f7iWe7vbEoXH+L54va4QZpx4ADIuOTdrTj2jRP5eW+3fK6Qiv60M+eYmlITzxFTqITzZzDeYTfLK9TxgwCbY7y7NpcvVJ/jp0+nGOFzvIMFvdugI7YTUMAWavKIGrYPasjxQ1RdCU8zr2hTD5G5xDYaOOt6MkaauLAJUg/p1blsR7JarVNLqQppazC9XY2ZRienOgydyM/XifAFCWa6+vJyXyczo0yXj1IwOWPGqf3xzuqIv+SG2fxI3dXYhxg23PiQjZee2o6mVbf7LqVeQ5JBpBIOhSvfhgijAMvKXyTL4TPvweqQTD7J3Y1zWWQVbOGZ7Bx7d9JsMCp+FscK4NyjOrYo2coeAFD8zXe9Le/+jrjBM4d6872QYsVd8Y3y7KzhOh1o8vYZXlc8oTiWd/9YXvzmknwl//ihTa35UmStaDe7NNeDAFtx0RK15OqBvozAwUsjYjV6vgtbVGFE6bhBYbU0m+7TLZ7mzdUkJJ92UquKJ1lvY1uV02KyS198+Tp98uvP063T4IaTNJ8tAFMlZkGrmsqOZ9WOk2/av3x+mp68f5pOLpB4TY1GpBDOxNLALACbm0rDb+fjmaQYueTspm0rnQx3OJCeSaMgs5fJaIOOEhPS2vu0GeL92jgLreMYU6s3nKSC6vKh7lIwk/Dw+Va1uAeh4zP/frvlI+H6Wxefx/93r/j2r7jgfqdMOehtB8bn7cDc/ONQQlHON8t7SwG3XMviU3Bpdiywoxfa1DpZnM59oGjPu9vht0VAwtw/MlW8MdKh1DSehs52bGe0Gz56EGA26m6H1Nga01gCqJS62FNdvEST+0pVpJbLBVC5r1/cpl9/+iJ99eJNuh4M0myzCKbXjYbrGS6P0vBmkm6vhnzfxIuvrt8M0dcbvM5qap028rsNkWr+PnnUSmfP2zHIvjtCKlIfJVVep5Xy+G5cLJbUbLi8QDXsqTgbkku7IBqhaUJHwB5kz5IgEybaiKAq89zGBVLsspa6l814PXLNFyzpR0RZcWX89c53N4mcj7EfwHDgEEfiR0iKYICfh2NxS3w93Bt/337Pm0e46ABML8+SMr7w3734nb/GXtwXVHt7vtiKpziSMh4v05vXtzhvk5i1/fasW77Xv+5xJorlD//jOR6MY/Bm5fAejt9KLQYf6JwGzO2wDwKsgu1UNhSPX1gu7VIPVXLR76ce3mCJG3eAZwRYXlwN0mdffM3+eXp9c51uJ6jCxTyNV1MetEJNYtTjtXbwBJ90++njs7OE4kzXSLvbm1HEnly5+f6VJ3hrrgHhhAI8XrzBDDD6BOddOx9ANfPkDlsc71FCiunZ6TBICZcXyMau/2Eu4jpeB6MtBqPD0wKQej0xceGykXrPO+nkvXbqnCPBOBbUtPmCww/2t5u/9LIOZwI8fiv+HTaOy4PMdD8Lz6zYChi6e8U3WRHXUo+3V/FX0Gdkx/buE/MzvrkFDu+P5nIs0ReyjrGpDT05ymGcMZwErvh2OffHpIUaIE7msgyn6EBpn5umbqKBl1TBiHMmG63vAVinm1Lbpaw7x+n0rJ4ePz6NV+Xty6hOCDVFpN4O5kiiUYQGxjPE7XKfFquUBlNsrukYNTZL3fpR+uiin378/En6+OIsfeA680jCJWr1+sUkLfBOi3mIMsQc+rGZrEi55WyVXMTXtfeNbanT66C1223E7G9vESjaXQLOFGollrOKNOIFkL1JNa8dyI9UrGqo6FbKGqc6KkNgOpPvDAL7FMpndFc2q5Wpy59v7Q6iFwDkfAixuJadP8FcdqMqh8hKPu8QUpzM4HkXQHFRHOG35/lpu+0vXuNHfP3GdpAm1uG+HLeiZMvKR9w8Zgfs9tvpGXx59PQR5kqd45oQ796fb7uvUQAsd9AohN0amaCwnN+l1RTbnAaaHePrFR2NMYXH+7+z/bV/4/fT3/rv/EH63b/xo/Sjv/JB+uB3HqdKt5Qma2ytm3G6fjVPw9cum3SHWDQXv5va9ZOYwAHL0w7bC70FI49TE5C1qzSoWY68LjNQqUbahIe6jmyLvF49zXA1l9E2jV8v0vjNNLIqlqB2i7foLG7fWagt6CzwAAqNcV3XTrcN8NoxAmCaEAVht61iwTxndIsPc8Ny+o45aq4zllVr2GhQITMpqnGgXyZo3jyZ/0rEiH3FKT658S3r857lG/+UyNbH8v3jfV4TD8hPud84HLgrfsSB/JEfdfgRfzMwiyh+9m79V5SYz+df0sPPojBAQidyGdO+c0gxCXJs7+0eTsD9T/7E/Xmz3ACdh9SsvtB0RyfHk4zVIOm8YbagXbR1HwTYxz9+kj74+CL99u+9n97/0eN4A8WGf7eDUSxjef1ymCZIsDWeY2VfTeeNs3TS6qEO82TbNV1vc+TaOyWULGKtskntXiV1+nUengMOTuLwhega7yF59bbQcib3RczNwWU8WHuI7TPE4H3Gv5RoSqQ1kmkxmfGptNvSkxYRQ9PjjDer4XAgyAJUEVKBKma46hCYsBgrTofB5naQOodfsXHgLaELOhfXB5ljz3/ZOZV3fgWY3IrrC6bT2Ph+uMZDcUm+3kNRj3tAeaX1OJyn3bHHP0s8FHCofHGHW9T9fit+8AnBBVmstcFFGVDu3pvrV2zhAXuIZ3o8S7LsnWuV+JZdpZfjyW5qEm1e6eo1DwKsXJIxGOE1e7uL7JokOE2j4YwdKTYYY+BPwmM0HNGuG06oxnKKMxehW81i5em7MtKpvE04nNFTIpVD+4nG2QRTc+zZ/pMo9IVwDHYLCOiKKzaO4/HqZYARC8rhQeoKO4Y5H2PvIVEH2IKD6wG2wCyWLc+D5jyTuptNWwFljmGatiPjQiVDgJgUvIJw0u6dLdiTefQOqdngQBELiy1AcNhk0LvgcTeyHN+9ozjnxm8ZG789xy568+F3tkM5hz3feyjlvuxiP1xxqFNRbv5VbO8UHs+zTnp/iqKiLmxxU3Etn2HcH84DGmm2mx+l9eguTa7QNtjU86kvxchmg3RWK9kpHgTY7atRGsG4FZ7GdrJOi9E8jQbTNMVrXOAxTE3EgzmmrhjNna4WaTh3/uMsTdfcAzgr7ZRaF9XU0DPr1CP7MS82YZWpbGkfEzUidwuiOH5m9Nd/9lAjK7kXcwvn/O4AtuAKcFAPJ/GqRl3hcIItaC/yfrNYq/ROJVd+sVTuTeHh5CqEFIyF45CCHP7Glkn7TdbEjfnLd07ZEfIh78x3v72oOOdWnPMo3wNNBWPfViL/Lq71bnd+878IYFqffGdx/t2tuL8ow+3w+9uXsoVwtMj8kwOHa/2kWjm8A+34MCX9+kvMpM8m6ebznBQxvpnFkqG2VFD53gN3C34QYF9+cpOuvwaVV8s0v8n20PhmHrOmtxtv1JYBNEgtZwm9Gtym16PrNMWwL+M5nmPMP/vgPD36+Dydvn+RmkbsAZgeotkSLgHU8BV+JomBel8gLghUWzHEEFF3msujQnTb+MNvQeJMn7wjgTZZqinRbIzSKqs/z7kwnb2T+wUpF2hv6JXmJYr4bnOCtAXD3CBQELkgeXHGJxyOKYE4FHu+PX+J015bnHB7CzKZ6S+fG5fd3+Pmgbx5KJfrMTtcPhedMW4prvWz+J4LyrUtvhd7ccyb/TS046777p6vD2+RysXud+hkh9dbNKB+/fU8ff7nV+nzn7xOX39yjTAah5ljm0yXcr3c/GIsPUy0V5T6re2LX7xKt19O0w0ge/PFbRq8GKbVwKXB0anc6NICDQpySSel4gzpNV9NsW226fK8mX70g4v04ceX6fTZWeo9P0v1s07aY+xvMHpNYXYFapdp2m0N8pmfvw5v0d5iBYvF4lSd6nObHp0I9ankMlAbC/0DMhdFMdBnz5EXd1DBuZW+Nc0UIHP7HRs1MHtHFwSKaevaCtgK3ZNe6p72IwQSdOc5MjCPQ3qAct1zN47yvSb/OXweAJA3L4ApHPeuHL3PUBAi+T4Bnpntnut9OBc7Zd0/yGeyW4c4R9n+83J2mecUQA6xxw1sstrvHLdHfYPF+XiWK16VP/OeW2GMzARPM4ddEVw7eL3cpfVsl0bXq/T60xlSa5GuX8zSEOGzcl4k98e6FmgMlxRA7kBr6IxpRf2jq35j+yf/1v8pnXb6YQDut1py6FRE4Bj7Zu2kSQz4I3bqklwqc71fBSC63XJ69t5pevbxaTr9AKP/rIc0qqXtABGKlNtfL9Inp6v08sOj1K+X0xy1u5q6nIBBOgeyID52nOtTuLp0vFOIhzia4MhCTmTTwJUUuswZfILWY4ET6hEjl9GqvGyA7+N289qOb9rFhT577yQ9+t3z1H2OY1IChOFJwXQvcs9cC0YWQMnH3TLJ8h2C73DeY9wQ34KsGSz5ao5zIt736BUBnPzVP/kqjsXffLsAiNPxDOWuEicfybBli2f7/VB3tziVz2tsB5QPD8tH8/Vu8defPDD+oaFc18OXauS4FuDBcXMOxpuvR+nmK3iGc3cvrSB6LPOA4+QKR66W5OC36+yePT0NCH9nW2JTzWbYVNo2eHPJNSSoaB/u9WAEsifV8Q4bR8vUr96lZzDsg5NOen7WTpenviK5kaoNVCiSSMYHSDXQqaQe33ousDb0jH2a4TQ4zSxt8Dwx7n3zfcwWhiDGVGoxngUFIHCQF4pkokAMxKcqM3jpwQPCMi1lqJkVSNqaE0NrUR/HLZuuoHjRjhzySMmNAr03MyMX6O5HnDxsUXD+KtO5Jv69I3Xurz78PpTClsu8V3FxoX/cD8/9Bhi9KJdhHYrh/kLm+Dc8PP95n9fG3e52Qv7RjrjWXhflxV2HazTu+fTr4Yhq0czdV58P05c/u05f/OlN+vyPr9IXf/ImvfoLnKhXCBK0iKM0eakrvHLuK/McSa9XqgRz0narVU3t7wu0VkvYVuZu4fbvUV8VPDAcwdSD2X1K7FdSOsXDPK+X0qNGNT1tN9PTXjtd9F1KqRHTl0x1VsSZYbFDZR2h2tLS39mtjcVPwK7v+vGN+07Xj2RD1Z0j9DHeab6XRLABNKiUg7KZwBzme/AfjuUliABkzcXsjHGZZ29MhvoAdoeVGo1GqvBZ79XjjbtG8lVJQWPLicJkrt89+M7mMbfghF+Kevi3kCyHi+Lj8Nsyi7LeuTdv/ChAUFwbn/kGf/nNAf0A33eAlI/fPyM+vSvfm9W9v7wm714Wvw9PdSuOOu+hAu/bvvCi3oY05bRGw0yv1+Etbue7VIGNDvL4thfzAdVs8s4Vk8ZGF3C2pmMcQoUTwuNBgJ3UmrFgSAmpUcJeKbNXlVpIL5dwaleOUxdpYP59v15LPZjWcyES1I8TMGKGj5XeoPbMYxc8iN3ViM85xiLAiuWV2I92jsBjEOLWhptLu7PXaBCU6gkepRKf4UEJJKTS/W5MK76bDYGEcskngGi2hCtUt1rNPMTE7jvAfW1xtYN4b1G2eV6HNt8zKb4fPm1FcOjAjGB8llzF0XxGsL17XVGEdT/UP85J7nwyX53LKUqLf8W5KIBv/vaAX97ZAi/fOJbLyN/yv6KIe7sujrjna+/vPoDS6pnq1D1vpUvfUvz8JN5w53sOwk5EC7nGLsZVujPEA8BMdzcJYTZxfqrTDEfpzYsBUvAm3b4YPQywLszp1yqpicQqU7FijUOzNPXSfMtWQ1WDhGhWnXSRo/a+7cxJrqECrAzAupuAfPPJhmsQjlREem1RhUox3xUp6WMaWchYHq4tFO31eRr91IFnhWcZUkknwPd557fhttqo5HY7NZsuKOy7dAD34TqXd/SFDS5n7h5AxHMtNXgeojw/x+2e1O98vT/5diuY9O6tfMvfiyOS9Jtn8xXvHi8eIoAPX7+9HYCd/8aB+Ot2qAUbx+4LyEffXpu/ZRAW17x7hu1wbwbw4XvJ8WEwcNlIZ8+72FHd1MPscfhHPumVu7ZbDOOxO1KSXwhvtssmzRAik1ukGQ7AfGwWzgNb+fgO8BynFgCL9RtgMphlp7rRxWyIEkUbJ593vC1CC0ih6DAbzN/JLi0Rk85Qmtys0sA5jq4bYTTemJTAEsQhWdDrjidSlqGEeA6105B3CCJW3kNqCpqGL3wwl6vXSicn3ViJ2vX4TWp0MLwRUgsbUEBxr0ND7rEwGuXZ+2MZAPbMl/iTaZzpzMfhmB+xFZ3s8LP4DCa55wvz4QOovD32fE3GjKCS7X7m43nLUMj0LY65eTxfHwShrFxMcW9xba5f/pb3fCbXJab9HY64xWOKe/zvjjliWOIID7Bc26dqqwTY6NB2VASO8UW3mFDDdfGQQ5m5nX7hyF2IjeDdgwADSRFRb+B9NWGSDUYW4S1iP1HwEuk0x7Nc4IauYZKLAW8odGMYwWgDBvvd/BjP0XUjlun2aoJuxq1FN69N02lXYxkmX65eayIBUa81l8DEKFSFHR+yK0DavSmthIthCKRkSCHsP5dAd42wDt6LiYq+uKnVrcdKPJ1OO483Un8/XcHHYSJF+2q6ioDhyhED7ERB980tk97PzLQDMQVKMNij3vNNpuWa2rv8LC7nWj5zaYcSoeM9yOKo21uA5C2X5b1uhZrNKtfdY56Is7HHM/l3uCW2uCfq6tFcZ6+4v5qPCCRo69rp1nirzmnYIFDw7Nc6XZo50E0lo0bRYzSZNAsW+AFd/R7rhbhzod6lJs6DAJvGeN4SDIrmfV4QhErMAddws0nX6F1fzjBaLdNks0wLROVqdYxbewTTUNHTXVrczNDBt2n4aoCnOE7jkcNL43iDRv+8k3tHh9233GNsB2jYA1wGYFHTzvgxZuWylk6UVfcGw/zkn6nTTuxdbXzZO0blNK/c44CrmHF2uS+QN7irk68dt1nv09RZUl9P0viVK+dIaAkuiKR2pkHBJJ9TbH6737k2/nGhtckMy+f8Y4lvSynu8dOTme1vt29da3vvJZlXCq77nwfQvQPI4uTh/Le3eDbHA9SW+/bOuD7qAsCWs01689UovXJW2ReTNHm1QAOt0wbVF8tYoZ18zbLrjbhws1MUTXWvYiZpd+tFhmCInTLVavGQb23heqKmjIPJGHw7dgCEZJvCoDEgc4G5yZp9BdjwOK/G4/Ty6irdXN9G6GHmuhFXwzR2XYnJNC03c0rdxUqJJvbVe5XUOm+k2gmqr3Ocal2k5UmDHfWGhCsdslwRjACMTyocs4C0AwQeeHD+ndH8xXSRRq6IOF6kySi/e9JZ5QJTCZjf6JFVPB8xz2DwcpauvxpTz3VwQOZnqucv91+Dceyx5XMGP/NWHPeTPU4fvh/+fvNXAZSC7Lm8/C8DySYeDh/UmN85T+fOj82l5XodpNrhmH/d47LYMvSL77FTv8BYsJ77VZ38duB6Ntyl268W6c2vpun1J6M0+noey7fHkqjw3NWHNDkM+2THqcInkizWr1VIaMZUsW9xtNQ2gO5BgLlGveAyiBqL7h7hQ95VEjY5anGfFqA9XrYAFDe4sg4XDZAetyMANUIqzAxJAAIqtmE3QFrnwRedbupimFfMNTulF1w0Y6yycYpr/NjEv3Y61bDEezl51A3AmZCoXUYROC95LqOmk2oiUqRp9AIJ5noWvlDLybsuvxTr4kNPean4NgnO2d+VYzNtSxHgHV/j/QAw38cTXpKbxLd8d//lrs9BfynyD0yN8/m64h63eyy6fRuch4vjI5fix/2eq8BR7omvUajtOBQe3SVD8XDx4REFjPybv739LDbK4H8c9Y9oLYqN59EyeHy0QXPAvzl0kTarCcCSjzu0APfFq2N4nqMiLnDi+LJmSxnA1eFt05UoneDTdtK0qwA8sJnH5LuEZtorO0C0qwG2MqBSipis16BONeqH0Zwq2DGlmITh0kw8FnrcpRJAqGLDdWuAqtlP/UYvnTU78c7uzz99kQYuNb7fpEoTO+oEwxyQNZFm7fNa6j9upv5T7KgLvMNuM0IOGqAudmKWq2taqCoNmjrzu9FpxTIDTeyuMuI71Ch1DUDSNZVdvog+3gvObnxMI9QhkY0rBM2xOegTmeCZMZI8/lGO/PVo8LlgymEr5I+HZXZsBfOyyDlsHouDcarYfMahdI4XEge2RFkZUAV87jfrxMc7iu5wfT6at3efwhY/8/O/cQ66RuyRZ/pCjJNzOnYTGnLMhfyc7BMvzFfQaMNS/Ao72mE/oBEAO1aS4XTFcuZIMxMNlWh2/gcBNt8s0gD1N4ahU6TWfAtzZZquf62RWrUOJlKd5oflgoQwBlWjUA12DXXsKh7UabXTWe809VsnqVltI1JraXAzTp/85Mv06V+8TF9/9gavEluvaqUopwIwq3gwzX2q93UEkG5tF0GxJRA1OIjqpvLGugSzcZuWAOt18lIDiGc7twRRoq1CsqEcsSMd4/SVg4JNYGqobufbNH6ziATIoF7Q/8CkdwAS4CqYw//DFW8vP9waW4HEw4fb268a2W7FM/K3vL/9Flt+qF8Ohw/n4nT8ie275R2ui7+HMorL/ZmFez6kRsDs2TrxA0DoJHXwzO2EazTDWlODm7J3f4xGo5MDMJcqSWi6fdjLlGVc/TiP9RpqcqA7VlTyGd/eZhQ6x3BXgs23PORoE6hs1puozzrlIvpw+VVbvunMQRzV6BGVMv222kNSnLZS96IfC/YaYkh4fSWOg6C0HDkqP02f/uwldtAoZnKb/UC1YBYNPd7SII1y2mB4IkIhtAMwOZGgTg/TS9lhwDug6vuPfEOYYmgnQai7k0T09IAu9TyK1OkoL+J2SD16nVPi5kM601ezNH+DWp3RoC0ECMEBUQ8Sp5Atb9kCCwu+wXSf4ibQ3KMj5ENRhl/j0AEgAYA4kMmfh3Skol02PzNfJ1P95uX+dSvOex/H4id38Xn4ypafkf9x1Moebo/rwICLB2rCrE17mm7T5A0284sxKnEdwsOAtf1txx7hJDqjzpXc1hb2ZWMu7SVjVoBpbvKnE6/D3oWT7H4+CDDVhReIVo1sp4M3Kq3UQgo5yO2LsFwZEBiE8b/g9xSV6kydWKcJNXTse63b7TSnV2ypxx4jvvqohf3V5AFUdo1d5UsTzOt/M0kLvsdy3VKCVplPZHaq7rEzumOhE0BmRF47yLXCrGdkWDh/U0N/5PLpgIxGSlrHzFzZZ0v9zPdX1Isewzk1pRjlmpU7w+MdfD5Mo9d4z9QjjDz/3++wXiYCPJnjeT/NwjUu7F7iwhLPPeYz7vEfTckMt1WS+nDgULCnIvwQQMvQ8m+2qeIsu3+9J5cdO7yJMth8jp5L0Rn8p2vjP79FmTxTjB3z6bq1vknF5SCu8RTN63rz6YjvU7zqVZpemU2MHb3W+aFNdGQ7uV5iuEl08mOAdYw20hzxHebIhjTCwRrgYE3wREeTWRpjkzsx+kGAGdtwMX0Da6bk4A/kBrD7BrXhahESzgVElHBj3+zh2qzqYgw7HywfRrNhGq7x1EqIS8TnHFDaYId05OEaFTx3Uu+UshZKH0UHKgTG+TbVNRLlCPtOtRxReplBHbZUPCLKPMRcpPFkwU7jAORshs1AnSIwWK1CFOgfVS+hjmk8IHRBPN9DOZ05E4bn4L0MfEX0F+M0epXz3gRusJZ7gzl2Z7FHj/dtruah6YHFgLONOmz5+iw7M0jYgsFALKSQ4LeVh3N8eFhIWUyGnaDjnjjhOIonsmrNA9xek6924xDf8nfPvN38lY9EvfhjmSW0yDF29QKvcfASz/uN643QLjy35eQuz5VYFwkHhwC4ZgkgayA0HB1xzoPLzhvY1oRZ03mXRvQxSYyTLuGRs+ofBFgLZnYppIVhJOLXMGy2hilrDP+1YFoiZOwfeJU6A7sp6vEu+Y7r6nE17Ze+oWwC0wDYbJ6upjMYij00Q6+7Os/WVXDU04hcmBbZqTBZI95cfV1mB8FlVEz2QFy4YrVv9QpVCmJUzyY/mmV7e+MCcYu05HexWo7iTkwovl34RMnmEp4Lv0sAiKH368rWy4X5/QlCL+nRY4A2TfNbxL0LzlE/U1iUbNNrgPxqxnUuAmOuU5ZgwV4/ZX7m8+G37C1gxg8P8gOsZED4m//el/3Tg5SLXfBmAPtbUAnNuLzYub8oIlAWvYmrOWi98pPd80eAmE81gZOcT570Uve8E2aNdq1rtS3g1dxX/UAjA9sCSMFhXMt7Y4hI25Zr1+yC0Gs6J710en6S+i43324hFCzzeybeuoZXD7C0EYdVDbe7JQzhwaspts2GQnk4FapWjlOtUUrdk0Z68uginXXPUm1fS8ubeRq+uE03V4P02iArzHCq2so1gpVUgCR6sMSh1uaAuaCvL1mPyDoyM3K9qHzErw6itkZvUqo6Y8Vz5ostHMlfYYNRlm6xKxM2aKD5XRu8VJkZ62dAoAhnoGp4DB2E5wDaO6jtWJoSSfCPrxbp6tNhuvr1ME1fACSANn29DDtt+DXgegVIb3meAVpFYzQif9xvfI/wxuF7gOlwQagrGV38e4sQTnKP6vJwbwYIP4vz8Tf/y2I5H1Y6vd0CRvkfN0Y9Yj+cdsO+LTdS6pzX4+Wp/UedGE1x3oIrgC/piN6gw6RjZsxL2oYDJXgPoyPF5A5jYy714FvvTHYw+NoyZAGGHgSYr+Jrgr4WIGqUfRFWRLxSGde0w0NOeOgpqL+g0KeXZ+mDp0/T+4+fppNGN5bUnGJXjV8P0gRdPqQ3zDnmIPdoPAsp5ZqqAiSMTcAlHXPmaiaudJaopkELPolpj/S1L0aRmzYaNRsJb9SzTGNrDerbqaWzC9++i9fa8W0g5cj7b9BY4zQuQKeE0322wDJqVHPAIOICGy14tsWmHGzTLVLs6tdIs19N0/WvJmn4BeoXR2A5AohTLJy10leJ600Qrdjf2d4yXqDQrgI4HM9H/A4I6ETFvfkKfkgAz70LjngW++GZ9+XHZ/FDePmLv/nLdzcf4quS6ym1Twx8NzPA7Hw6TXzqDJlQYFhHMJkGpVTKmat5uqCmTrz9Tv5YTcNUqE7fZpdV8fcEWtWdGrTgS+cPsPmWNSQVEsTlMS+arXTebKbzTis97vXTo3af84hRvIjZAJvrdpR22DhlxEcWlaW0vMNW24yx7/dxTOSHmoRg9ghXx4kJGlDE4R6Nb5esNMgXcRrqox0USzgB0GYVsdxqpZ5rqrr8EuDqdE1yg2DdRrw1t+3sYsS3Q0cu7FvlHsV7pFrjIUTAkH8rCLLwHZnUpVrBcD2qpfV4FxLr5jPU75f06hvsvrk2mLtuPeVgi8W0OupWMFPAFJ+2JT7jt1z1WN78zPvhRq/xBFsuQ9D5WZwvds+/vTYOfGvLT8lyMv/K17wL7PwHSVaFH2ghwz7yPYABP5Rcrvio9Iq1P+zMSPvQLJZDewSXeWCRD+YcVnjuS9BMZ4/VKnV6fMy3t/FsAlacbRMBCAiOcUfhDQpvU5EuYDM3rILVWxK1GMuz62vUy1WaDYf07lUsj3Te76X3nyDZLrqp1i+lchep0UBOhT6n4arZhjreuFQey5KI26Wus1Fkc41cp1+XzZpB9APYfIFpF4/UFOhOq5baSNQmZe2M3SDmY3VEPEVneYeoxJjSG8oBW1WrU/FU/ahRLgFuEa12gDbCMBjXphWtUe/Gyu7WgBEwuTs85QDwgnO6+2H3yMTgp5LK7wWbi3NIu0BicezwD4a6xxaM8xqvjVuiHPewtw7X5AL8ks+5fRN0h0s4n3f+HQCed6/nE1o4ocN5C9rA2lf/v/bOpEfSLzvrJyJjHjMjK4ea/3O325i2DCz4Ciz4EnwEJCR2rL3DQnjDmoWBBTsGCUtIYIEQstp22z38pxqzcox5Hvj9TlR1GznZFbuOrLciMvId7nDOc55z7rn3ikpaGK1CJhcY/8rn8E/kpP0dDHd80vDSfGrSAG0kEPAMu2ptO2WbpE36m6/5boop4QI+ZxHzg0s2Yd4KeA4lV42WF7l+/BxihWrPxzDqSZQg8IAehYPDtTtxfHQUpw96cX52GM+enfEd6MW93XOocdiIw+NOIpBZEUbsLZzmdDai8xcUHoHZas5MFMTcufObpXcHjxqaZZmc8W3MQjlauNyUWztDQD+suuPsImeIu6J1TrblPAVs4JgpDSTCulCwu42sUA4bf78FjQ1moJYDoXRLGfPRp455XvOMod4IHZAykT2Q137oaJstf+FQhuyqFAQbX0HMH75FcX+NDHn6/vA/X976w/n55fvDz3K2/Pzrr/cvv3v/y74DOfYn+L/Oi0i8xIN3T/LB9ThPS+RCYc3xc2DbvjLG6LaIrkDp2E2JsuTuw9zDfahy8WUUM9Oh+Jv1dI24KlaJ9sin/1+vP/tH/zaWpjRPeACF0HNTinOLYTyKRqeWqwJWjIeAEHII10p1Sz7DJ6aZjWjwoeaoVkinoV7dRbPYiu97/fiuexPlHQUrF6Ldq0bvHCQ6MiEQUzpax82rUVx+d5smMjcdxdTpKtuJrhWW09VADrVlCtJ6FBA4I/oLPMPtZpmLCDdBOM2rgjQd8z3lVFA+JMjJ73ItBeqj0BZpxCPMfwsTrhndz5nco4fBxj220BY0fB2T/PiLXpx9ckivgHTYTj0x97tUCfYZEfsOThSBpChEGbvbf4nE7QVm/8OL51DDfE6KBB8Sud53kV5xIo8vPu8/Jb7w+rVg72/+/lz+pRzuv8n/cxhojHm7w9t3O8aX/VQYkatp4iaK7miH3vt0YtvRDpRbKpPT17ivMUU5lvt5moAgbzNvT7OoE7fFMXv6yen9Anb9+/8VkzeO2Q32FS3d0hkfJsNK+JogTwcyXaXzszV8KBD57qIflwbcIHo3i1lmWSwhk2dHnXjSxSXeHkb/s1X0P58FAAzJpiNAwtZRLbrH9Ry8HlLhqxejGFyMUyt6553cF9pKpIAhFIuJ+VzC8zo3dJjM5xkUbmAufemGG6uxQafjaTob6xUd8b7nFC7NrsLV5JpsTHknQlVFCFwkZc83QDCaRxTLQXQOx1vtUme9d09d8qmGZ23oY5Uz10+e4K4/PgJtde2zONn1ImcO/tPwJvA5VOUz8gVsfRCOFKj88XNWOT/kz/uT/nqHfRCc/RX714d7+ZXfK76Jnu+/Rv+i/3YeN98M4u5iFFOoiCMzppc7pbDk0B397GJ//b7zHpdZVo8FyOX694KOEz+adfhvq5VtkOnsDuHR0A4xPXzy4H4BW/67n8bidhqzy3Es+3PIrRwEQXs/nd/xxg7eY5mbzxzLAyH6CNa7q368HQ3iajGOPqgyxtysMamHEO3PDx/Eo9157H5citnfQvq3jsCX6Jh5dkzrsEY7bjNBcXwDekKiW6Dk0aPWPn8eM5kRb9TYSSJjMyEGmFH4Wi75iabJ60ztdQ1YLkAAl9G/GcbtdR/hsvL7jNaM9CPMRvOraKtmyVxzTakrZwvvLZwYwyKeaxAxN77HzBr/cTaTWb9O0dKUKKxmb5Rq8NPTepx/9iCOnxxmutBgOIrRCApBu3XMtMXb7Z129uifrpfNz2Hv02H+KoqlUGmK/Cv3tpC/EkMv2//Hy//4nH/PT++/37/sXr/LSTPcz3HHwdUi3v0SD/nlMBegU4jTMhnzAqVsa9e3HUHaDQFZJttNUu+wm/NIcxVD+qtTr0fv8ChxVychV5kE4c3VO318HAf/jNe+KH/tBYqUaIASLqQboldAqhoaWeF3Z267DEAVzXcb3dvBLF68vo2v39zGy7u7eDsZxuVsnIPlc7R6wUN9WBmP8mjXisojPLQTiCWdr5ufK+NlD6NZK9CCQ01xRMC8eVNCzO7gUWg9z6UC+3gMzUYj5AYMQLO54Q4H8TFnEK1BCpc2dxW/BV6OOfmiWm52Ln+jQd9zBB6sRtJANKCLq4ic/k2SqwlL9BZB6SqJrr+LbrmOBhTCJMYNCLnm82JCfXUOFpu4vhzFi2+u48XXVyjOBMEFJeCgZt+a/ekAs8d+q0BMKvffcyx+t0ns2PxNAVNleLPe+fo1Ivn+4fOvhMt3hct7ZB0p53SDZQAIQC7DMGb1Kvh6kDk+S1+LtK7vcSNy2RYopYe0wgnPqaQ0cj6G+yq4MJtsM3/3LWkT9Wtbz/sEbNeH6MIjinphdIQxJKO5augBnKqEWyuKGay8vRvHC4Xr6g6TOIV3zWOiyVAtKLzrf7mob7cEZ6kdRfVpPWbHkmUHuCXrei0cvBtrMb6SZJ+/3fQHGTuTA8w1t6BHRpIVBDrQOJlOoofCmqYPYR6PZsD+LPePtLEcS3V1RoN/5rl5+FxjaS4wrAprPnPlHj7b+R8mk6bw05yS/g+NmA2rJPPRMVu/+lU3I3TujTkBGTT3oztdeR2RQi5fdXjcSn7oFLDJ5QwassiOX8MpvY2dvZeh/G//vH138s3+u/d/yZefE+c4Lz/vT91f5z/+5LzTBVTn9s0k3n5NP70cZZ6XXCwn0iAhjsLUqnXQepM7DY8wjypVFYRK00jbmx3hWHBBbf9QLB64g+07tGhSw16B94rZbMNH70UwzKKTMYrY4QJIYmZpEXOQ68jLH9DCUhP+RSdMMFev393G5QCNwKuYiQbcQqtfwtVvu9NHuRZPWp04qTZjfbKLcQczQye45Z4ei0ihh6j5UE0VqKt3/bi9HWGCqTCm8PLiLt69vYkBSDDGJLtev42XCs/TRDTrmyEE41MKIA1YQrA77XYGZ9VSiataV7FBVD3RyftwrcIlMtU5191L1Ny9YJmPxgkKFic6mqB5U9jzSq5JEs+ROesKr4sgl2inAlyrQNtROgOQFcpju4zezmL8ZprzFlaJerQbQqjjIwJ4rz2a+dwPb9Qxv1JyPvTw/rNfK1z7K/zOr6ETUA3TkW5eTuPy+1HcvRnzPBWJCtH+qWigtetJLEUpBGuqIntPnm97OLnHorhqjvFK12GztX2eSmcaVNOovSEN5MZArOChrNwrYFtgNKOsaiwXiYFeWFCjuagAlBaamrAqtjriZjTMDaNmaKGugAPkIpfxs16lFU/anfjB+Rm/g149TFGPjkHA/BEtFKpSxUJDwOVNdy50B//j5sgI97SDjRoXk/NNca0nhgswgR9MmntGO+HWHnAyqPcWudwAwj2IMp6DAOUiwaCcDWfniwo+1wb3+LU2cy9eGcXODrDDKSr38RwFwOfmfXn3+0x+lE6IwsaQvIaO2leRzxt44QgkuMR0X81iM6IdMKsijIi8BoV3tLNOx4dVgX5FkVOB9p3Km9Kzf7f070/Z14SzRFUazsNM9ST0oNbwapoKmBXh+r0i7EMMueY9PzpLer8fBCVNIv3jrUU7I/sfBFoUl6cqXPVaPYWSlkhvUj7tngj3Ctjml5NcDK6ApnlIkJVmA6MFKu9WypHZizQEDzigo0YgipNFDjAR1V0panCuHi7sD84exW89OYsz7PHO5QGOqQgopjeYnhWS7mufosL3fLdYSI5BKTRqZdapwU2ge49ONAJtRBvyzrnJm1YgDdzroJxRZeNZoo4mTmGQMez1xLXO9s8zdmOHZDJi9pCeHuiWKLT37uwor3v/a3Y2/7J/MgFPpMkbv+8QlMSAcZH3/R3355boQFO1SyBZGeemsOR86hgcjsFmSrKaystQzX6lxj0ii5yui6ZjkSkq1DkP/rrnrpxnoTgvR0dUSu5pSs42F/ODMlwtY3yLg4Kj4itz5VOAeA5lN+vEUQ7HbfWSjQtmu9GGFkJCr7Ojdyh6JyfledarCdr3jjoo5B7ZSiCwJN8tdwyw3+tF3vybl5i6BZyrTiPxVMxKo3EQDbw5V07ZOXf8IGsUu/E2pm/m8e1fXMaf/9l3cf12GEsqprt/Bu/58vHTeNBVSwLTtol3z3F9P0N7HWpByHI4gUoasqg14WEgwIpO+Pa7N3EzQMicWmahRCb5l9Crrafu1l/BgvfHIU7HSa8Xo1szN5ZpshygVcvsaCVDoVMovWGGIBAohzUUMIXJ30WcnH6F4Bi3ctlNBU5BySCtcsDfLdWKhvc5mT1rBygE4i3np7n1QQopPwqXdeAhiUJFz1XJvI4v3MTT0Ea9V4tmjw7vyH85rBx1zKEtb8f99JZtszSnNKxdmO+ULZEQz1rnQ2QcIlhDeJ6cUCVVcEVai5IbXFC/dquZCGQY5m4wQEAoK383pGKKukooSqtQzi9VoV3VR+E66uLpuxS9gmebcM0GeVHATp/+P+Jgf/n7P4mXlxecXuKgcXFbT8+a8ezzk2g/qMO/qHQFwmUod0aj365iopD97HV8+/M32PxpVEGes2YzHp+eZszI+yxGu7hAuG6/QABAsw8RcjXDApVxHhoUuIJJe3NxwwHJh29ZW6HaBlQg05WmIxVa2gsE3UQbDnd+dhJL42PwQrotG1LttENNRVFAaCV+5yJeCmyOFizn2YEiWnagHYZEZeyHU818lcCK4jbWzs7k2Svq32jjKSHlxsmcQm/jZ/kQzgINveG5hlYUsP0MHs1cSkqGRpIL2dJ0tPcxc7jaAOk4DrASTjY2cGu9vSw7UOE0bJMISv35TwGznRzHd+mlFcLlu8srzSZ48yC999DsOb5o4+nBqzxNzTrK6L3d7trtdww5mOI0h1LIvXI1HdpAlHKprQYCedRtRqeDQrT2/Flly8ROUVABe3J6v4n8yb/+aXzzy1dx8fImrt70k2APIfFJYtNb4JAzUbmsNf9M36mZFu3ym2B5hcat8blqug8FDfiH41eTB5iER5yH6VVL3v+XmmSDebisuculL4H6CRVOwpjP1KxxBRJjpqWdYhnsmH0adCV5Ve7nrcBwjglzopF8JCcu2AkI0R4NbUS8vCWNwvkiqrlje2TdC7NaqQLYIQlAdOz+4Bz6tG6KeL2Sf1vQGZZZbXeDUxeA8Zmirp2WU7+4lzxHxFMN0tplpbhZlovnpe4qABBvkMi1uZyYspwYgd/EbITQ5HIMi/32PliR+RA05nDdDzM9UsAMLiPUKpZhHEU5eRdly/ZEuBQ4lUl6oLCL8jlgDdXIdqDcubk75fO8bBjOawMCbfhtuUKLok85fY1+yAkiGXTd5QjMvQL2J//qf0f/ZpoRXidjjtFM02Ad2HSsMFM5gEdd+dQklQcBq6BxpslIUpMM83c+Jd86oKIbB0if0HjPjePT8XREeksKy3teIPx7T5d/Mrg3nmAmQYHMsqVRnJggSqSHw7UqbgmtSiJOMXJlHb7UI7LXc7lyOi5b1yAhH7PDuYdOwoTDoOKO82xIO16E0tUWHhO5FFAvV9goK4RK2EwTzDcpUN7TQKxhEXXOuukgWE6aDEFGCFLAeD73MmETupr57T5HIfP+vvQ6y3jeRZwUEzLlaOv3sTaKh7Jg3vm8j7+pPLQDtS/CfeVSCnyGC96jvsNetqFe5X6dDhwX2juFzM6jwGsUzZw4egTEm8F1Hb0ByWn33IVYJ4rPpmx7jb/ndooWiLrYF7aBMqJAo/rhEg73Cth/+Rf/g0oZF0Lr1GpaZM5nF4WbTCeJHO16A5h0LJILODKllk42MOtUs9ZhB+jcrzy9gnCaGbsTPp/Qkc901W1XvktBoTjUMwWGe9sp1Dr5mBxEyE0UAz3FIBHFEIQ/OXWNhkrPFSGu04DZW1YSIUgBpvxaFRvbP2kCXQHR6L8uuc1quTWnSXCph5Fthcu5fu45aRmW3MSJD4ZvyjWQi/NmtIcdZLlUPhXcTtmbrj0NULgUYtEs90OiTgcqhB6cCsB5Xq94WTc5XAaaFVx+z/bQtL9vH5VGzubYoHGpTPLDqzew2X3QgmbgvfkMGtXsYOODjkZ4P4UlBUW5yCfyzA+ITh+n55nmlLIihCYiHB21owNwNKAhLh1f1iRnG2dz7svJta6wo4ykYlNex4bvFbD//Af/E2+EjqUQrkeRWkfnOf9xAWdB3qNNB3TqSDUVSVNJ5ak5n+kg0K3mzmdN14dAE7k+I9UUfP4YV/0caRLCaXw7hEek9tqAIodoZptKtluHLSrZ5jvJJSaAQtmRqXFcvEc2Kk3D7zdaoDB2CpXeL8yikO0bM+9p41JguYmZFHa+iGKHua6Znamw53pijlMiCDlMknwE6HcYqdOCl5n5gdnCvNqQ7vTmqj91FU/NzecodHqIH4hyxPGDQ/hOLTtaoq7wlrgus2uzzygP5RfJc78fBKclL6U8xpUM0rYPMU+H9f3n9+tyONxWb1NmhKsOJ5KyGPBNsg/SqVyWyXKnQ0O5cjVuldY+oB2kP7alCihqN3h2l2d1eUbLbX84aiiwOf0qz17F7XYdoRJCtkkwWevBcj/Hee8VsP/0z/9XNvwCjc3K+kAai27MQm3Xi1x95wiEcdeNop4OBeLJeZ6d7iJyFtxMC/6yRxxQcXZajGmPCsEplPScXMF7Qj+H2qDpTX6lwHGxgU8HYm1QTXAboWvSqPIfEwuP6PCGsE8Pcrf3aAUScL33saP5x9/80eTsc8FEsQwv0NkGe107PtNoODlRBKH2fK+ybApJajsPWK5m0UIgzZbtouGmIbkTSRlumihDR+ZEYZ6VyGAQle9dvjPpAPfPkQM62k6VcuzHHp0DAZ9CKNXMOoJjnbkdZYU66ARkwFsU3PNeVxvae5ui3769V5g4kzZzvVX6UoUT6XMslufKO+WntWrj/RDZMutLEbKe1qOFsLq3QUPBohw6H0l7eNZ+v3QdkD3AGJ5poWQ6C9ZVDqfC3etF/uMf/MtEFdfZpDmzwJK8irO5zQerreOr50fxe3/7eXz6w8dROW1EsQlnQWsUaR+wyhjMPAfNV6bLXM1j/XoWk9+LGP2Ye9/qXcFg6Li955aXIqR7zTUL1V5Fz/axCM0CQpB7OiI4bh2oIPnnhcNCV8PYTvfxL+/rtToj3tQxSc1FtVSN0e04N4G6vhvmuv4HCEmFDmw51Z3OEolFRjVcLdXEugasXtR+aQKj4P4ecWTH+37cSSdDT1K33gH43EOTe+y3soEacJ111J3XQVIw1X+HtlQAuZMQtoCPDAcuyb4Iw43ddjV6R91so4z3cb25dKaIex+RNjuZchog1tFxmdKbiz6NjJDjhN9eD5PHUbk995zP0rR2Ox2+cc4ofWN9+XETNJGye9yKVo/ntBAqiTxXJyejfT32yQEgFsqzN620CUrjbPBx3yGyWZw+PrlfwP7Jb/1hanEu8LtZ8Hmbs4WQd56Cd1jaxCdnzfidHz6MzxCwxlk7DpDyQDC03QsaeDRcxuB6GoN3dzEdTGM9wiUe7aL8CGJ4itnFgchgK0/XTCIa7wmwlQB+6ThRyA5PrVK3EbTcZEkngjPLCE2ZjnTAeDGeocAIABW9g1vNIJHuA3n+8DCOzo6iBNTXOGa4WaPJeD9JVD8AkjwZLuLi1U1s+qASAtsWveg8TX3d5Qgw23aAC6q4+WkF17zSa0aVDgA29xOBLSMNbmhgg9e3GWOC+8Pov76J+c08CniF4CNtSk1BLDvYrFsugiManwINDqogleECTOpWYQrqq0lso3gIH5bDEEcVRcvhHdrJEIqOj8FYlcnRgAUCJAp1T4+jhOLMUbac5EJDunTV8HKANVnlRv0G1EcI9LK8ivoXvWj/6DzRXA/QLQ71EEV/xUQevKcdeyVW6POgzVRIzxEN3b1thaKYG3evgP3TH/0h2g6EI0zLDOkbJa9iy0WOVbTp6Ke9enz59CgePz+O1ilci4bYIWAL+NEtiHV5PYlbZxdd9pP8FblNvQh/WdM4osAar0YOxc3FyCU4O0eD/aw9n/t3GkSbj3GJqdkZq3lyrC5ocVCYRodydCvwEzpFc2LKdX82jVf9Qe420jsqx2//+En86O//MErPHkThYRMSRIs1kF4lAn4Sl8t491fX8Sd//Kdx+ZO3cYKr/5lBW5eY6nWj+/BhlOst0Pg6bgfXUWwVo/fFWVS/OI94TMcjxBnWVhk099CA4B67N4N494uX8eZPv4vFq3lUttXYUt5ZtqeL41Kr7SLKKHGFS9WiAxC20ZTP4WGbVACS1DrwQJByB7quDrgvKKrD5NrFW8dcJwg9ArWazqP/fg22LVamfdqOsx8+i86nZ1E42e9ToAav3X/9m6uYvLuO80aPotfi6u1VzJrzOPmHX8ThP/jtlIGP9bqfg/3Bn8CxStGmc7s07lGjy+/1hFfhvINtPalBLjnHLNBMO3Hm0GCeqPXyxXW8+PY6rt+MM5LsrO0Vmr2EbLpgHdgVc9RtCWfQfpu5URDm6YD9SsXIC9bNca8O6FDHvpsmVKkX0KxyNLvwku5BPDhpRc+dROrgGY1qepATgVU5N0+ln3BEMB0NOoR7palFBlLl0DgkNrYzOBKez2JM2ekgFytuwyPke7jJUeriYGB6ZstpDCfDmGxmsTFdqduKAgiX44W0wW7pganAXGxn62yLm8u7uH03iMmYtkF57hCoAbA5WYlkKCPCxdnUW3phG+g5YwiaWIwWdYb3iJBrBHjFsTF1CSK+RQHXPDeXr5xRnqVjstRFlAIYDLkUEM46prVEOQ2tJLJguubvhjG+ugU113j4dRS6BKJPYgntqX95FI2vzvZC8JFetPjffJnuq7vfoVNO4QoPnSeJ51NDELo06lG9Gb1GM5qYza3rGrh++jdo+Nc3cfnLd3GJcA0u4BFDzMEaYrmFn9CfUzphzIep44tRpYErMcuGBskKLhEABBfQ8LUZr3A9GqxCWao0bAMe0IbnnfRqcXLajEePe9h4EOakgcDpvUF0qY0bRBxCVrt0RGMHXxhj5q8HUegjPGh7AZ62c/jJFBqgXCcEixun3XocOgEVQXfEzly3ijPKFSKQ2Slu1ZqmkM71+iUmb4F5gmtSqdhhZndmeEzoaEyky7TP023nHaFzRQJYQ4xsA4R7uFzGCJM6hQusiqI/wix5B11LCHcFx6F20o0KzoxIpvlzNEJXtFBy5jymFAvgQrxrh7swiU5yMSXJOFc6JfCujVkaLuwCPdkNVrEaIJC0Q1FKJnJSNo33fr4pDfGRX/cKWG7sDoyYICdndqOFxW6Mp3QQTx624/Nnx/Ho7BAvig7h/K2BQFpvSwUKmIfiDJd/V4ujCuhXg5/BFWbODof/LEGaA7yeVvcYfnGMtjUyFGJorgZsyX9a5W24hH2nusUkruAE62iAQj1cc/eufPToJM4ePohOrw1Hcg0xOgTUaYKsXd6PQJwWkOeS2wZ3l3fT2GK2t3cIwoiWvUOI+9gy/oathiRHHCKk55j6ettlqvb5bC6BfqD5KzqBBHONwJluo5XLhVKy0xBYOg144/c5wgahh8uNr0f7cdHJMpXKVSBXSfxBL5B25ApGHIlo9D+iHxva6aAB3ejCGY9acUCZDjCPpkbpve0QTCdgZKhmDvdRgKANK9q1QBtVOqA+yF4B+XLAHoQzG3lD36yxJKu7RWxQAlzIDBmt8PTWEPwDqFDGt1DKj/26V8Cc9ODaXfKY/mIcC8Tdyax/73d/O/7Oj7+Krz47i9PjBh4LMI5GOf+xSMOVN3g4IFMdjlE7wL0F7zuY0maZ3zl0HDBIdKCNDQ+DoBbpMNcdcwilDFJ1TMqrg55oYRfNbTdcLgp3WeHhe4U6kwdbkO+Ka4HZKBJkY2B4uqBgGdPrZliGKHQknOY/sYH7oMs1xhluuEXAtoZKNpQdtK62G3H6qIvnVMvVhEbOcHbkQvOPU1CEe1YVABA3t1jxejoshggXQgU8I2CcfzWJ6cUtXvNtrHE8TJKcrjDByGOpAC5TV5gCdd5iNrmM+61oQ9hwOja5oIiJegiVK9gUDJ/QDoZSDlAah3HGkPI5Ar3F0zRk5LINlR4I+xAFoQ5NF+8DkfWcNfk7h9vwtLduqkFZS+iYA+EzkHeFAqDDObJi5szHft3LwYb/oR8dILqB99I7Po6nZ2fxKS7ns0e96DSNBEvSsfvAvJ6YqwpvES5jLcLBFtu+5d3otXMNXUdV78cgnwReQdMjcdKA3y3gNe2qggX3AeYVxiqHrntu+YcgynXK2EBTnY0FFUAe877WeoO8b40bIbSukKw7bWKhcwylXJarWDEiT6dpEBA6zzEz09CHkXXPAyNijlC4ugy2GxQ0aRABpg5YENAO5PCZoJFxPicBF1BEzWzuT841c3jc7NaJx3Q+ZbuFdE9wJsolTB7tMl1PU6293np1oRuP2h1QdxcAJhwTBIPoO2yWUEk5lbxcfIXPQxd4AY133PtA3iWdMFaGRamcn8RB7zAOoDaaPdQu6+tMrJ1WhrqtRmNui5drMBRJL2giqU+pTb/iRZY/P1IEPtrrXgFb/8dLzKHJ/N146LxGtKFds7PQVlz11XQGuTS/CDSi8cZoycB4D+YvQJotFYSiIFjAsGSahtE5sENEPDvXzmzSaxXjXiDkERp7WAcVXX9Mz5EOcEzQgeH5ZpErLs7RVlfOWWFa1iDMVu6hYPEMJyDsB27RWlCC23PAkYQFSi7S7VyYJf9GwxoMBSGKKEzmtoGAdqIzqGZou5rdQqsdVtmPLiBMCJLPMpnO1hA1zXQ4AG23aH8ulmuqMQLpjCWvu6JD+xCwYjRB1UqMV8OkHVvqZ4zttA3lODkKqBYm2YClsTXRBKrheB3CYaKim5jjE8T1VT/Gd8M4QGBy4AzHoIY5rZ4iWCfHUey0USS8bAUT4TEo7GQP53S6uuRiLPLhmDmITl1NG3IrmFIHZfriOMpfOmHm473uFbDbP/ppFOhMPGV4kY06junkmgLeQRCx25BEvcY5JuYWs3AxmsTlYhhTiLnat6QBJwiE41vmDTnLO3Pv1VwaxS6vwymaFU2aqTaaP9xzhEvE0hsyXkRXxmyDSUB4+zPMNcd0jqDRiRu4QzYOZTT1WqRxWGqfJGk4BeDh2aYho7AIACciYJkVoPk01wrhKuip8Tm9WDzcAifPMSMO9Nfo2Nx0wrx0hMP8qaJxLMplOMVAVUVz1m7i4eHJUlZAMWptKIGZBFCEC8zZFVxssxJN8NgWIxsBkwmq8cynvU58inDAzeGadAh1UQEDs7pbImA4BYY/NqtyjIeruMYzXdLeZYRcRHfBZE1i6bgTBcphRqzlFLn0Ml1roowTsYDom2q+nKCYtKeTUsz/cn5CGWtTOoRyfAmCfdndC8FHetnXf+O1cf2v2+voX7yKW47B1RXQP471AHM0AJ613XhJQ/jH9WgUd5w/Rpjmmko4mGbTSauu1LICfaq42r1WM9pyK9DtGG/tsFnF7KA5dOBhA85QboSrEo5wuYfcTxIsV9uAdcaYl9x7ttrFBNScYopcUMU5egqSg756ew4ga/IyM8JoM8cagXK9qgUmYcO17hGeZhX02/DuYi26jQJeEU5p3KmBa2+ypdzIda6UiH0uF2jFj6bdBec0tXuJ4rk4B+VTPLinXY5eVJ48iPrZUVS7eIGYfUXSpUkntJPT+WZ8ruKdHioghiYwkS6hoMOx21L3KaYWz9T5n1O44+BmFhcXdxkoLesdUw7IQBQdJuo0eH49g6KbJWrOvXeUaU0bL2kLxIgzvYYfBG49H9HHU4QWD5s2d/vrLU6d2x5+7Ne9d5wCvwOI4d0AeMcDU/prxSacpAnRxb3DG3JrP+dAKlzVWjOOD0/hZz0IeTfPLW5LOTg8oDKT5SAamKEjEOO0W45nZ8347GE3Hp8046Tb4Hy1HyJO47jx/BjONqfiO0hxtYynWG5GHQ+uDsodwGN2mJA15nanQEF+HYDeKoTIiovcSarnHtxzjvvu9wvQyfKMMH8DONLo+jYWvG9GKAzeVA4niGx1+AwdVkfQFijADKSQlJsv5cappqdodrO7uEQ+Q0npYBTmHM/PYO4pbXRCx/cMktZzFpYTjPdbH25zbwF/8F9oM55ZWUahjhrhpZcQOFPRLc4IYbq+mWAWx/Hd6+v45etXKNaY9nDKHUJRgv+5xwDPKLagFThIxg8dswSaEMASfWlaOWqK8HW5P9XCfI6jtBmiMLpcCKCriGuW6YeP/br3jjdo91h4BTVQEUrcoGEhtRDlarUF/y3HBV7TGwjnlI5rwZ0e9o4pINBcpFryEscBDfDxQzdjghDExiqOjg/i4Xktzs+qcX7SiOMOyEPjL3AaDGUoDLAROBieLEhRoxecsd3GazxqIcCNQ3gK5UAIGi6qkpudVhDOVfRRiLvbPmYbAULwZ44Lil7ccYLJH9A5ue/4pZsMDGIOn9ncYbIg5LR0riFWbOFkHONgHJZjSl1u5qD0wGDpJMfzzBZYGB5AWDd4iKsJ5o9nZWCJzoZq4YZzNPGuDyFVmOA5jscEmuFeAbQKr703vYM/HdDhBYSsgIAWFJI2XKhj5L2CIK7j4nYY37+9jJ+9eRHf376DLowDJhCNHuc2QTERT+6BwEFgo3iIaYZPGRdbODF5iILNUQEE1jhZt23GhPE0c+wM2IrwePUgq+X62K97BUw0KIMUjXormqCTiWsZJKVhJ4tCXALdd7jqxQO4U8OON0hZx8Rh3pbj5DSlRi1DEa423TnBYXhci7NPm3H6vBmdR9Won2MaHtai/gDiUcO8+rN1cB1ThOY5g3hCA7tdjdp8AMktOx4K1ynTeU1Qogla1M/28aIVHTyZDUGoQYynoC7l3aAgmoY1gmojjkFd85VctUdvb3o9SBTjAjgPzgIIVsB8lx3oPevmcEuF32/Gt/Hm9goBnnI9Zc1dYJeQbswN5k5TszNqqafJPSSbBbziNe8zwGSEmZ1AFbbbBTXTGph5+z4aT312tQZIhFRyFFCoEso0R2CuuPdrvNDX8LjXwz4eKK4FvK16WEW58DYh95BYniza8yAHpRHQAn2R6c5QGFeAHICEE6gB1AsF1hwinFCSMhxR1JotOW82Cqf7f+zXvQJmqkgZT868a4mkRHE4mcfdcB43g1n0x0AsnXbWPcTLPOQ8tAcPUld+Mp/EFY1xOxmhpavoPWjE089P4xwX+BQX+PCTbtSfgDxP21F9jHl8hMadlGNVd/hIc7bdp8WAjFOI/ADkmOn10H8rOmh7sKBhC9E+RwEwtVXHQXsQ7QZdRxncytcGNwRRdg6izBkutkFsTYE2WwD2HyuEZAL5niFoWwRPby3dO5PqHnTiwSfn8ewHz+LR8/Oc1X4zHsVlfxyTqcMz1AxnQ7OOJdp7rigExC/pg2SogMnJJaLgq3OEPZf2NIRCm1TxaCldmq+Bw2dhPK/B3+RBtAXdcgdCvpnOsRQqs6MBu0zebHT2glXu0X5HHQeJcWBwhxz+oghOLdxRZ6oYcwDBMImrTF6jHDf234T2LeJpNnpxUHMfTZ0jOp22MxXrY7/uFTAHjN2fyNYzVWXhQDMaMKVxXbKyyHcdXPwHoFQT2HUpcQm9A+LmAb1+9w4zdRcdNO0phPfRpyfRfYogPoIA4/GUQZ3SQxqJo4awNZ7x3TmeWOsATxRSu57R32ocmgcaCd9rOmdVmkWpy7MRrjYIo3nEFY2NmmsKDGjjevl1PFmXITKH3/CCc/8aBmnR7mZLEwGHW5pFgZDR6K51gQQkiZeslA3mYn4fPEIp8PDOTk8y5DAxaEo7OH3ONjHVBknKGBjaETuTW31f4OxMCzG6msQYITYPTk8uQAv0Mmow+WYBLolnOBjvUNx1oJcxGdDGg0WMKNNwYqAb0yp3RHjN1u0gOCY2lnQccESqXQSMuikYZkcY63JMVDB1zHKMor7DvL+5vYm3d7fxatCPdwjs8oB2M+xP25hvdvSgFe0jLJVm9iO/7hWwEZA/odCZDYbxzlksaCDqhddXzGi6IYYimuOMnAFo5SIf/JqCOAdy251yfPn5w3j6/EEcUoHkBXSwLLNgBgJeV/GoiudF5RDC3icn0XjYwfPBnaanZnhSpqzsShtIr1wF//QQrwvU6z06jmbvkO+ruaivufU6QB239jt9AM87RjN5liYLou44ZQ83/vRhL7q9bo4ALFcIM9o8Gs3D9ci2htrNF8qcIXtIbV7SB9s4bnfwfLtwRRwXSL3zNHMCBybFGTYOmG9H8Bq87B0en8fqCh77dhSLu1mU1wfROGiA8NSXjpek9yrt6B50uPYgN1d3GaURZN6tD11w2AXw9vsRWAm4IX3gon/mgLmMuJ5jGUGzDQz8bkDhHSYxh8QQziUCeYkFeDcZgFz9uBhcx8vhdVwABDMQc21cjbapwDm7J904PDnKtKOP/bpXwNwypETlNC+Zyst32njahkLAnfCrTTE2AOrKzcPpDMRytzPDEss4e9CO3/nq0/jhZ8/jGJRxnNDY1lozhRbnxAmVhXsUMW2NHt4kbv05QtYB1QIhW1fp3HYhWu5jdEIjPMQDfdqNsydncXTSo6ERrhEm6Bp3e7aNhrNcMG3NIxAMM7KDqxhDc9xPxHKJocPOMXVo0SEmB0K9UIZbzF6fwyDpDrO5myAkaPluhqs/A31QFjAi2piTEmZviXDpCTpCsXGn9I3BZw46boc53w05zH+7xikAvYoIbgPBMoDs0JXDNy6c1wNhT6vwUZCtiJk09aa42vIs6tw2S+Qw2m040gFmHULuYUKA4Y5dBYVDMMoobZV6qfg7yr/tA58I6prj9nYar+8GcesS8wDG7RQuN+7HG8p5azDZqG0Ftg0QlLv1jOfloPpHft0rYM4Y6aGxTccuEAjN5Qz+sztAizBJwnQBmM9wxnge/eEy+dmcxjzttONHTx7FV+en3AN+hYA65Wp8CTd7NYx3r1xNbxnrOeZCtxiXulQvRvuwEufnXRDvLJ58eh7nz0/j6ReP4vzZcfQe4m2et+LkIZ8RrgrerEuK333fp0O30alByg87eIB4njT+lI6/mcM94E3XCL3B4H6f485dd/U25ZETeNU0Lu7GGQg1+8E07gJChi0ExiH+KM0W5TEU4XoSDnfJRw0C6725o0kFFC51EAs9wbLxfRDXUAamqoAT0KMNT7vdRH0dANsR8UTodvGgVoyHeI8n7Tqo5kwdTJa572dtnJhOBoIXuxVOAoKD6R7LhfGGlyYqOg6MedOb1mMvOOyDohUp9hqTe/O2H3cDV8gBZTWzkNghzobbMZrJAenZlx/hKuCxGjN0As7Hft0rYKftLp2GcMjB+N0cLtFAt7h9VAcNTI9xvBCUo+EN/LUg1M8Qrs8OW/G4znl4lLvxMGZA/ujFXbz5s+/j5//9F/GTP/5F/OV/exVvfz7EjTZYuR9SqdVL0WlhyrjH2dl5fPLJ83j86DzTkbsg0mGHMrUPKVMtbt9O4vKXd5ikXbQRtloTyAcV5nTsAHN5079LR+PNeBDfD2/jBe79m4uLePPydVy8fRu3g7u4m0/jCm3+/m4UP/3uTbx5cxcLTFuMqLEbNKE4Bb1LEQ2zqZOWuV8GvyDWjdOjaD87wVk5jiI8sgDyFk5RPMz/FqTKib7wtE/PevF3f/B5fPLoYY4vmk1iW7pdYhtz1zRFCc65hYTNpyNQHkVu8AioRNvJJAimWaTGqV5q7jh3rYDpS8A0SjggpoYr0FvKusVtnY02cX09Tr5szM4sX6MQB1xQof0cTVlVV9E6P4w6tGKLFXaOQY7nfuTXvUNF/X//EvtfRhe3cA3cXYOJIM0J6HHGQX1Anz2cl5FRk/tO0aTnzkCpOEY2i40B1r4BzX4M3w3ixbdv4t2Laz5PQR/4xu0slmOM5sKgRBFLs8Sjw12GGLuWlnWdAeV9uN0YJJmYEAgBvka4+i8GUVluETqDmKACmj3CRPTv5nF9OcjxuhvM3s2Ue2HiFnaKQ1eYvTWCteLzlE4ecNyuQTXOqWECj5qdzLotpv1EuIYcIG1xV40xqOZEEZ3FxmEzjp8fRufZIY7KYRSOkQh5JebegXO9yZnr69/2o4cAPD45hSY043o4SC+7cwBaN1pxjAfnEvEOWLsgS244YTo2BN4RgglIe3s1iCWoOkJC7lbjePrpo/j8q8fQAaUQKduWYpmpOKZlYy35/RZF+fblddygPE7wSJcSs97A6hyaNWsc+PlRPP7B06jBSfWuNwV81zM44lPI/0d83Stgl3/0dQ7bOMvZkRL3J3LOYK44eCingkvQjtKoCmauA1yfd2vRo7OLm0msZ+NYjEYxvRvSyKN49+4uXl32Yzywk9EmvNH5ECJsajHeUx1hdjVoA9Db+Tbubsbxixev4+XFDR4pxJTj0uzQy2FMrqYIwDbOT4xRbaM/x0u6uYuLq1FccVxfD7NhbzCB/bm7kGCOMTOu21qmMiW4kwPJJjkOaPQBZH6e31GOwDzBiWj/KCKIprYUVggNAja1k03JAU26D9tx+BwvFpNehD9GV+GiQUA2xyexlbks0/R2EC083CMExhEI9yufTSbxDCQ+gzNCo6ChlEl+Ky3lPxf7cxpbkdZ1TPTmmnpj6lyWdMm5v/s7X8WXXz2JKqZ0A/S4vPrs9TA2UBTnhu7oq1s+v3I2PgpiupJ8cQXnMljTwhQfg7Sf/eh5HD0/j1IPjxLA2GrejytRfvxxBexeE2mWpFFqZ/duETQJarvaBvY38C4gHFtt1qSufxf+cNLDy+o2+A7BU1vwgtZ3aBUo5dbKFy6tSWXvuOcEr3OJY2Bu0vDlMC5/dpnvbiLvpu4P8Gg6dMir63fxl999Fz///k38/MW7+AVm7Ltv38YNwmpUugF6zeEmby/429cv4s9//nX8xbffxTfv3uEtcV+dD4ec8AinCJOL4rlWPyodJTwy6SwsME0Hlizewll+9lcv48XXlwgxdTTcAIpuKRc2ic4xyIuJwYOrHcK7QOsiJqzQrMJhEKyyEgIP47MReWcr6QhJyrfcrFbexOPeUXz24Cy+OD2NYzNPDZqiqU35F9fqXboSZAE0Ls4XlBEehwkd7xax5vbd5mGcHh5l1uqGLxY3oOr3N7FE8ZxR5UarBTcaS6/MyB+mnZLjHsSE34cb0LsML3QizCmOkiMHcN8D+G0Z3lcEbT/2634vEqzVYykUV1EouWit+zQj/yDAEJifTsYZZHR8q9LARFJQxwSxdpkDlovdGq7AxI3ny7hCsK6weZcQ1BsqOQXlNivc5THaiSDdXV6BlvAFtL3cLkHYTS0o5rjkkIYecr8+97nFq7vjmNFYeqMGMm9vhvH6NUL24mUOp3xz/TZeje7iGlM0o7y5BgQcxKxZsz021gkkqBQ3mEP4j8Sd81zV79XFdXz3/UVcXwxz11ej9U4Bc00xOy2XPcIy7fByi5hEh3ccEgoci/32g560P7bc3/WyjOctQcMCZrCHCf3y4QkK6URZuCttWnZxvzL3q1IW/ACXPtphtjXls9kwBkssgRkcoNOTB6fxQMGmnVy4ZIWDsrq5ivJqRD3MzaPtETzFasfz14iWfudOTkgxcZ6jBtoeocQuspKzTao4JYelKJ20cFZo94/8ulfASq5A2AK96iBNbYztmMVBE4itwSvmN3hg72K8vInFAaS0jlvM32e1RdzFOK6347iNUcC+YrDFVBVmMThYxPSAa4uLGBWmMSlA/gu30Nnb6G8uIeNvYrDox+pgFQvI55znlDtFgGOF5i5pHNxqjtEOTrK5i8HqhnIMEVQ4G4La57OmcsD7YDmOCd8ttvDAIjBUpi4He8Fa8HlURvDKQxp3HJUynhTlMgSwxKsawXHejq7immPKvYaLu+ivcQiW17EoDmJeoVYVyt7gvm06sUn31dbwU/gT99+ZGgqX2YA4E+5l+SZrlIS6jdc3UaxN4ugBWtjCs2vAB+twzcY0lk1QvQFKVTkqfFeEv64g9HOfDTqVHCKax4lDbD26rKqpxiRW5tHqofwPNnHQmqN4t/DJa97HXMO9cCl3vJcAiTJK0DBzw0xXPu8qlOGA/j2gLjW8TzzhouTsI7/unbb2m9dvXh/rdS+C/eb1m9fHev1GwH7z+v/4ivg/ukYgaAN5WdgAAAAASUVORK5CYII=;direction=south;" vertex="1" parent="1">
          <mxGeometry x="-527.505" y="10.005000000000003" width="135" height="94.13" as="geometry" />
        </mxCell>
        <mxCell id="OKBfxnP3OJGm2N5aAB1n-12" value="" style="edgeStyle=orthogonalEdgeStyle;rounded=0;orthogonalLoop=1;jettySize=auto;html=1;" edge="1" parent="1" source="OKBfxnP3OJGm2N5aAB1n-3" target="OKBfxnP3OJGm2N5aAB1n-5">
          <mxGeometry relative="1" as="geometry" />
        </mxCell>
        <mxCell id="OKBfxnP3OJGm2N5aAB1n-3" value="&lt;b&gt;&lt;font style=&quot;font-size: 16px;&quot;&gt;Convolutional Layers&lt;/font&gt;&lt;/b&gt;" style="rounded=0;whiteSpace=wrap;html=1;fillColor=#ffe6cc;strokeColor=#d79b00;" vertex="1" parent="1">
          <mxGeometry x="-520.01" y="120" width="120.01" height="40" as="geometry" />
        </mxCell>
        <mxCell id="OKBfxnP3OJGm2N5aAB1n-13" value="" style="edgeStyle=orthogonalEdgeStyle;rounded=0;orthogonalLoop=1;jettySize=auto;html=1;" edge="1" parent="1" source="OKBfxnP3OJGm2N5aAB1n-5" target="OKBfxnP3OJGm2N5aAB1n-6">
          <mxGeometry relative="1" as="geometry" />
        </mxCell>
        <mxCell id="OKBfxnP3OJGm2N5aAB1n-14" style="edgeStyle=orthogonalEdgeStyle;rounded=0;orthogonalLoop=1;jettySize=auto;html=1;exitX=1;exitY=0.5;exitDx=0;exitDy=0;entryX=1;entryY=0.5;entryDx=0;entryDy=0;" edge="1" parent="1" source="OKBfxnP3OJGm2N5aAB1n-5" target="OKBfxnP3OJGm2N5aAB1n-7">
          <mxGeometry relative="1" as="geometry" />
        </mxCell>
        <mxCell id="OKBfxnP3OJGm2N5aAB1n-5" value="&lt;b&gt;&lt;font style=&quot;font-size: 16px;&quot;&gt;Activation Layer&lt;/font&gt;&lt;/b&gt;" style="rounded=0;whiteSpace=wrap;html=1;fillColor=#fff2cc;strokeColor=#d6b656;" vertex="1" parent="1">
          <mxGeometry x="-510.01" y="180" width="100.01" height="40" as="geometry" />
        </mxCell>
        <mxCell id="OKBfxnP3OJGm2N5aAB1n-17" style="edgeStyle=orthogonalEdgeStyle;rounded=0;orthogonalLoop=1;jettySize=auto;html=1;exitX=0.5;exitY=1;exitDx=0;exitDy=0;entryX=0.5;entryY=0;entryDx=0;entryDy=0;" edge="1" parent="1" source="OKBfxnP3OJGm2N5aAB1n-6" target="OKBfxnP3OJGm2N5aAB1n-7">
          <mxGeometry relative="1" as="geometry">
            <mxPoint x="-460" y="400" as="targetPoint" />
          </mxGeometry>
        </mxCell>
        <mxCell id="OKBfxnP3OJGm2N5aAB1n-6" value="&lt;b&gt;&lt;font style=&quot;font-size: 16px;&quot;&gt;Convolutional Layers&lt;/font&gt;&lt;/b&gt;" style="rounded=0;whiteSpace=wrap;html=1;fillColor=#ffe6cc;strokeColor=#d79b00;" vertex="1" parent="1">
          <mxGeometry x="-515.01" y="240" width="110" height="40" as="geometry" />
        </mxCell>
        <mxCell id="OKBfxnP3OJGm2N5aAB1n-7" value="" style="ellipse;whiteSpace=wrap;html=1;aspect=fixed;fillColor=#f5f5f5;fontColor=#333333;strokeColor=#666666;" vertex="1" parent="1">
          <mxGeometry x="-485" y="320" width="50" height="50" as="geometry" />
        </mxCell>
        <mxCell id="OKBfxnP3OJGm2N5aAB1n-9" value="" style="endArrow=none;html=1;rounded=0;entryX=1;entryY=0.5;entryDx=0;entryDy=0;exitX=0;exitY=0.5;exitDx=0;exitDy=0;strokeWidth=8;" edge="1" parent="1" source="OKBfxnP3OJGm2N5aAB1n-7" target="OKBfxnP3OJGm2N5aAB1n-7">
          <mxGeometry width="50" height="50" relative="1" as="geometry">
            <mxPoint x="-720" y="230" as="sourcePoint" />
            <mxPoint x="-670" y="180" as="targetPoint" />
          </mxGeometry>
        </mxCell>
        <mxCell id="OKBfxnP3OJGm2N5aAB1n-10" value="" style="endArrow=none;html=1;rounded=0;exitX=0.5;exitY=1;exitDx=0;exitDy=0;strokeWidth=8;entryX=0.5;entryY=0;entryDx=0;entryDy=0;" edge="1" parent="1" source="OKBfxnP3OJGm2N5aAB1n-7" target="OKBfxnP3OJGm2N5aAB1n-7">
          <mxGeometry width="50" height="50" relative="1" as="geometry">
            <mxPoint x="-500" y="420" as="sourcePoint" />
            <mxPoint x="-460" y="330" as="targetPoint" />
          </mxGeometry>
        </mxCell>
        <mxCell id="OKBfxnP3OJGm2N5aAB1n-15" value="&lt;font style=&quot;font-size: 16px;&quot;&gt;&lt;b&gt;Passing the input value into the&amp;nbsp;&lt;/b&gt;&lt;/font&gt;&lt;div&gt;&lt;font style=&quot;font-size: 16px;&quot;&gt;&lt;b&gt;output and adde with&amp;nbsp;&lt;/b&gt;&lt;/font&gt;&lt;/div&gt;&lt;div&gt;&lt;font style=&quot;font-size: 16px;&quot;&gt;&lt;b&gt;the convolutional output&lt;/b&gt;&lt;/font&gt;&lt;/div&gt;" style="text;html=1;align=center;verticalAlign=middle;resizable=0;points=[];autosize=1;strokeColor=none;fillColor=none;" vertex="1" parent="1">
          <mxGeometry x="-380" y="180" width="270" height="70" as="geometry" />
        </mxCell>
        <mxCell id="OKBfxnP3OJGm2N5aAB1n-18" value="&lt;b&gt;&lt;font style=&quot;font-size: 16px;&quot;&gt;Output =Add(X, output)&lt;/font&gt;&lt;/b&gt;" style="text;html=1;align=center;verticalAlign=middle;resizable=0;points=[];autosize=1;strokeColor=none;fillColor=none;" vertex="1" parent="1">
          <mxGeometry x="-660" y="338" width="200" height="30" as="geometry" />
        </mxCell>
      </root>
    </mxGraphModel>
  </diagram>
</mxfile>
